<svg width="406" height="233" viewBox="0 0 406 233" fill="none" xmlns="http://www.w3.org/2000/svg">
<path d="M292.03 119.12L291.31 118.92L299.17 91.29L299.89 91.49L299.13 94.28L292.03 119.12Z" fill="#78787D"/>
<path d="M319.67 75.6902L318.92 75.6702L319.04 72.3702L279.13 54.0402L238.86 72.8502L238.54 72.1702L279.12 53.2202L319.81 71.8902L319.67 75.6902Z" fill="#9B9BA0"/>
<path d="M320.345 74.21L319.867 74.7886L340.973 92.1977L341.45 91.6192L320.345 74.21Z" fill="#78787D"/>
<path d="M319.06 143.57L313.23 120.51L311.86 117.67C309.87 113.78 299.92 94.28 299.79 93.63L300.52 93.46C300.74 94.16 307.82 108.12 312.53 117.33L313.93 120.25L319.78 143.38L319.06 143.57Z" fill="#78787D"/>
<path d="M310.436 120.61L306.381 144.184L307.12 144.311L311.175 120.738L310.436 120.61Z" fill="#78787D"/>
<path d="M270.023 120.363L266.332 143.673L267.073 143.79L270.764 120.48L270.023 120.363Z" fill="#78787D"/>
<path d="M279.14 143.19L272.55 119.24L271.68 117.27L259.64 94.0498H257.87L250.85 118.74L250.13 118.53L257.3 93.2998H260.09L260.2 93.4998L272.36 116.94L273.26 118.99L279.87 142.99L279.14 143.19Z" fill="#78787D"/>
<path d="M207.24 118.9L206.54 118.63L216.53 92.8901L219.17 93.2001L232.19 118.08L231.53 118.43L218.69 93.9001L217.02 93.7001L207.24 118.9Z" fill="#78787D"/>
<path d="M217.77 91.94L217.31 91.35L239.29 74L259.22 91.24L258.73 91.8L239.27 74.97L217.77 91.94Z" fill="#78787D"/>
<path d="M180.67 92.32L159.56 75.35L158.68 75.75L139.08 92.19L138.6 91.61L158.33 75.08L159.68 74.48L181.15 91.73L180.67 92.32Z" fill="#78787D"/>
<path d="M159.13 143.19L152.16 117.85L140.02 94.0902L139.01 94.2603L131.98 117.86L131.26 117.64L138.42 93.6003L140.44 93.2603L152.86 117.58L159.86 142.99L159.13 143.19Z" fill="#78787D"/>
<path d="M150.373 119.981L146.565 142.531L147.304 142.656L151.112 120.106L150.373 119.981Z" fill="#78787D"/>
<path d="M85.6 144.18L84.87 144.03L89.94 119.07L97.34 93.0399L98.95 92.1499L112.94 118.21L112.28 118.56L98.65 93.1699L97.97 93.5399L90.67 119.25L85.6 144.18Z" fill="#78787D"/>
<path d="M92.4326 119.322L91.7003 119.484L97.0219 143.562L97.7542 143.4L92.4326 119.322Z" fill="#78787D"/>
<path d="M57.58 92.0699L57.13 91.4699L79.55 74.6899L99.42 91.4899L98.93 92.0599L79.52 75.6499L57.58 92.0699Z" fill="#78787D"/>
<path d="M159.97 73.1102L119.2 54.3002L78.6801 72.9802L78.3601 72.3002L119.2 53.4702L119.35 53.5402L160.28 72.4202L159.97 73.1102Z" fill="#9B9BA0"/>
<path d="M264.11 22.3499H260.98V24.8699H263.86V26.0399H260.98V29.5399H259.59V21.1699H264.11V22.3499Z" fill="#F4F4F4"/>
<path d="M270.51 26.9202H266.44C266.46 27.4702 266.63 27.9002 266.95 28.2002C267.28 28.5002 267.72 28.6502 268.29 28.6502C268.93 28.6502 269.51 28.4602 270.05 28.0802V29.1702C269.51 29.5102 268.79 29.6802 267.89 29.6802C267.01 29.6802 266.32 29.4102 265.82 28.8702C265.32 28.3302 265.07 27.5602 265.07 26.5802C265.07 25.6502 265.35 24.8902 265.9 24.3102C266.45 23.7302 267.13 23.4302 267.95 23.4302C268.77 23.4302 269.4 23.6902 269.85 24.2202C270.3 24.7402 270.52 25.4702 270.52 26.4102V26.9202H270.51ZM269.2 25.9602C269.2 25.4702 269.08 25.1002 268.86 24.8302C268.64 24.5602 268.32 24.4202 267.93 24.4202C267.54 24.4202 267.21 24.5602 266.94 24.8502C266.67 25.1402 266.5 25.5102 266.44 25.9602H269.2Z" fill="#F4F4F4"/>
<path d="M276.39 29.5399H275.08V28.6099H275.06C274.65 29.3299 274.04 29.6799 273.25 29.6799C272.66 29.6799 272.2 29.5199 271.87 29.1999C271.54 28.8799 271.37 28.4599 271.37 27.9299C271.37 26.7999 272.02 26.1399 273.32 25.9599L275.09 25.7099C275.09 24.8599 274.69 24.4299 273.88 24.4299C273.17 24.4299 272.53 24.6799 271.95 25.1699V23.9799C272.58 23.6099 273.31 23.4199 274.13 23.4199C275.64 23.4199 276.39 24.1599 276.39 25.6499V29.5399ZM275.08 26.5999L273.83 26.7699C273.44 26.8199 273.15 26.9199 272.95 27.0499C272.75 27.1799 272.66 27.4299 272.66 27.7799C272.66 28.0299 272.75 28.2399 272.93 28.3999C273.11 28.5599 273.35 28.6399 273.66 28.6399C274.07 28.6399 274.41 28.4899 274.68 28.1999C274.95 27.9099 275.09 27.5499 275.09 27.1099V26.5999H275.08Z" fill="#F4F4F4"/>
<path d="M281.19 29.4798C280.93 29.6098 280.58 29.6798 280.15 29.6798C278.99 29.6798 278.41 29.1198 278.41 28.0098V24.6298H277.41V23.5698H278.41V22.1898L279.76 21.7998V23.5698H281.19V24.6298H279.76V27.6198C279.76 27.9698 279.82 28.2298 279.95 28.3798C280.08 28.5298 280.29 28.6098 280.59 28.6098C280.82 28.6098 281.02 28.5398 281.19 28.4098V29.4798Z" fill="#F4F4F4"/>
<path d="M287.57 29.5401H286.22V28.5901H286.2C285.81 29.3101 285.2 29.6701 284.37 29.6701C282.96 29.6701 282.25 28.8201 282.25 27.1301V23.5601H283.6V27.0001C283.6 28.0701 284.02 28.6101 284.84 28.6101C285.24 28.6101 285.57 28.4601 285.83 28.1701C286.09 27.8701 286.22 27.4901 286.22 27.0101V23.5701H287.57V29.5401Z" fill="#F4F4F4"/>
<path d="M292.8 24.85C292.64 24.72 292.4 24.66 292.09 24.66C291.69 24.66 291.35 24.84 291.09 25.2C290.82 25.56 290.69 26.05 290.69 26.68V29.54H289.34V23.56H290.69V24.79H290.71C290.84 24.37 291.05 24.04 291.32 23.81C291.59 23.57 291.9 23.46 292.24 23.46C292.49 23.46 292.67 23.5 292.8 23.57V24.85Z" fill="#F4F4F4"/>
<path d="M298.71 26.9202H294.64C294.66 27.4702 294.83 27.9002 295.15 28.2002C295.48 28.5002 295.92 28.6502 296.49 28.6502C297.13 28.6502 297.71 28.4602 298.25 28.0802V29.1702C297.71 29.5102 296.99 29.6802 296.09 29.6802C295.21 29.6802 294.52 29.4102 294.02 28.8702C293.52 28.3302 293.27 27.5602 293.27 26.5802C293.27 25.6502 293.55 24.8902 294.1 24.3102C294.65 23.7302 295.33 23.4302 296.15 23.4302C296.97 23.4302 297.6 23.6902 298.05 24.2202C298.5 24.7402 298.72 25.4702 298.72 26.4102V26.9202H298.71ZM297.4 25.9602C297.4 25.4702 297.28 25.1002 297.06 24.8302C296.84 24.5602 296.52 24.4202 296.13 24.4202C295.74 24.4202 295.41 24.5602 295.14 24.8502C294.87 25.1402 294.7 25.5102 294.64 25.9602H297.4Z" fill="#F4F4F4"/>
<path d="M306.26 31.4399H305.12C303.89 30.0599 303.28 28.3599 303.28 26.3499C303.28 24.3199 303.89 22.5999 305.12 21.1699H306.27C305.06 22.6499 304.46 24.3699 304.46 26.3399C304.45 28.2899 305.06 29.9899 306.26 31.4399Z" fill="#F4F4F4"/>
<path d="M310.64 21.79C310.46 21.69 310.25 21.63 310.02 21.63C309.36 21.63 309.03 22 309.03 22.74V23.55H310.42V24.61H309.04V29.52H307.69V24.61H306.67V23.55H307.69V22.58C307.69 21.95 307.9 21.45 308.31 21.09C308.72 20.73 309.24 20.54 309.86 20.54C310.19 20.54 310.46 20.58 310.65 20.65V21.79H310.64Z" fill="#F4F4F4"/>
<path d="M312.42 31.4402H311.28C312.49 29.9802 313.09 28.2802 313.09 26.3302C313.09 24.3702 312.49 22.6402 311.28 21.1602H312.44C313.67 22.5802 314.29 24.3102 314.29 26.3402C314.28 28.3702 313.66 30.0702 312.42 31.4402Z" fill="#F4F4F4"/>
<path d="M100 22.3499H96.8701V24.8699H99.7501V26.0399H96.8701V29.5399H95.4801V21.1699H100V22.3499Z" fill="#F4F4F4"/>
<path d="M106.39 26.9202H102.32C102.34 27.4702 102.51 27.9002 102.83 28.2002C103.16 28.5002 103.6 28.6502 104.17 28.6502C104.81 28.6502 105.39 28.4602 105.93 28.0802V29.1702C105.39 29.5102 104.67 29.6802 103.77 29.6802C102.89 29.6802 102.2 29.4102 101.7 28.8702C101.2 28.3302 100.95 27.5602 100.95 26.5802C100.95 25.6502 101.23 24.8902 101.78 24.3102C102.33 23.7302 103.01 23.4302 103.83 23.4302C104.65 23.4302 105.28 23.6902 105.73 24.2202C106.18 24.7402 106.4 25.4702 106.4 26.4102V26.9202H106.39ZM105.09 25.9602C105.09 25.4702 104.97 25.1002 104.75 24.8302C104.53 24.5602 104.21 24.4202 103.82 24.4202C103.43 24.4202 103.1 24.5602 102.83 24.8502C102.56 25.1402 102.39 25.5102 102.33 25.9602H105.09Z" fill="#F4F4F4"/>
<path d="M112.27 29.5399H110.96V28.6099H110.94C110.53 29.3299 109.92 29.6799 109.13 29.6799C108.54 29.6799 108.08 29.5199 107.75 29.1999C107.42 28.8799 107.25 28.4599 107.25 27.9299C107.25 26.7999 107.9 26.1399 109.2 25.9599L110.97 25.7099C110.97 24.8599 110.57 24.4299 109.76 24.4299C109.05 24.4299 108.41 24.6799 107.83 25.1699V23.9799C108.46 23.6099 109.19 23.4199 110.01 23.4199C111.52 23.4199 112.27 24.1599 112.27 25.6499V29.5399ZM110.96 26.5999L109.71 26.7699C109.32 26.8199 109.03 26.9199 108.83 27.0499C108.63 27.1799 108.54 27.4299 108.54 27.7799C108.54 28.0299 108.63 28.2399 108.81 28.3999C108.99 28.5599 109.23 28.6399 109.54 28.6399C109.95 28.6399 110.29 28.4899 110.56 28.1999C110.83 27.9099 110.97 27.5499 110.97 27.1099V26.5999H110.96Z" fill="#F4F4F4"/>
<path d="M117.08 29.4798C116.82 29.6098 116.47 29.6798 116.04 29.6798C114.88 29.6798 114.3 29.1198 114.3 28.0098V24.6298H113.3V23.5698H114.3V22.1898L115.65 21.7998V23.5698H117.08V24.6298H115.65V27.6198C115.65 27.9698 115.71 28.2298 115.84 28.3798C115.97 28.5298 116.18 28.6098 116.48 28.6098C116.71 28.6098 116.91 28.5398 117.08 28.4098V29.4798Z" fill="#F4F4F4"/>
<path d="M123.45 29.5401H122.1V28.5901H122.08C121.69 29.3101 121.08 29.6701 120.25 29.6701C118.84 29.6701 118.13 28.8201 118.13 27.1301V23.5601H119.48V27.0001C119.48 28.0701 119.9 28.6101 120.72 28.6101C121.12 28.6101 121.45 28.4601 121.71 28.1701C121.97 27.8701 122.1 27.4901 122.1 27.0101V23.5701H123.45V29.5401Z" fill="#F4F4F4"/>
<path d="M128.68 24.85C128.52 24.72 128.28 24.66 127.97 24.66C127.57 24.66 127.23 24.84 126.97 25.2C126.7 25.56 126.57 26.05 126.57 26.68V29.54H125.22V23.56H126.57V24.79H126.59C126.72 24.37 126.93 24.04 127.2 23.81C127.47 23.57 127.78 23.46 128.12 23.46C128.37 23.46 128.55 23.5 128.68 23.57V24.85Z" fill="#F4F4F4"/>
<path d="M134.6 26.9202H130.53C130.55 27.4702 130.72 27.9002 131.04 28.2002C131.37 28.5002 131.81 28.6502 132.38 28.6502C133.02 28.6502 133.6 28.4602 134.14 28.0802V29.1702C133.6 29.5102 132.88 29.6802 131.98 29.6802C131.1 29.6802 130.41 29.4102 129.91 28.8702C129.41 28.3302 129.16 27.5602 129.16 26.5802C129.16 25.6502 129.44 24.8902 129.99 24.3102C130.54 23.7302 131.22 23.4302 132.04 23.4302C132.86 23.4302 133.49 23.6902 133.94 24.2202C134.39 24.7402 134.61 25.4702 134.61 26.4102V26.9202H134.6ZM133.29 25.9602C133.29 25.4702 133.17 25.1002 132.95 24.8302C132.73 24.5602 132.41 24.4202 132.02 24.4202C131.63 24.4202 131.3 24.5602 131.03 24.8502C130.76 25.1402 130.59 25.5102 130.53 25.9602H133.29Z" fill="#F4F4F4"/>
<path d="M142.14 31.4399H141C139.77 30.0599 139.16 28.3599 139.16 26.3499C139.16 24.3199 139.77 22.5999 141 21.1699H142.15C140.94 22.6499 140.34 24.3699 140.34 26.3399C140.34 28.2899 140.94 29.9899 142.14 31.4399Z" fill="#F4F4F4"/>
<path d="M146.52 21.79C146.34 21.69 146.13 21.63 145.9 21.63C145.24 21.63 144.91 22 144.91 22.74V23.55H146.3V24.61H144.92V29.52H143.57V24.61H142.55V23.55H143.57V22.58C143.57 21.95 143.78 21.45 144.19 21.09C144.6 20.73 145.12 20.54 145.74 20.54C146.07 20.54 146.34 20.58 146.53 20.65V21.79H146.52Z" fill="#F4F4F4"/>
<path d="M148.31 31.4402H147.17C148.38 29.9802 148.98 28.2802 148.98 26.3302C148.98 24.3702 148.38 22.6402 147.17 21.1602H148.33C149.56 22.5802 150.18 24.3102 150.18 26.3402C150.16 28.3702 149.54 30.0702 148.31 31.4402Z" fill="#F4F4F4"/>
<path d="M196.34 173.03C196.13 173.03 195.96 172.86 195.96 172.65V42.6998C195.96 42.4898 196.13 42.3198 196.34 42.3198C196.55 42.3198 196.72 42.4898 196.72 42.6998V172.66C196.72 172.87 196.55 173.03 196.34 173.03Z" fill="#9B9BA0"/>
<path d="M198.57 172.01L196.34 175.87L194.11 172.01H198.57Z" fill="#CDCDD0"/>
<path d="M119.52 45.5699V42.1499H118.42V45.5699H116.74L118.97 49.4399L121.21 45.5699H119.52Z" fill="#CDCDD0"/>
<path d="M279.78 45.5699V42.1499H278.69V45.5699H277L279.23 49.4399L281.47 45.5699H279.78Z" fill="#CDCDD0"/>
<path d="M196.34 216.21C196.13 216.21 195.96 216.04 195.96 215.83V192.44C195.96 192.23 196.13 192.06 196.34 192.06C196.55 192.06 196.72 192.23 196.72 192.44V215.83C196.72 216.04 196.55 216.21 196.34 216.21Z" fill="#9B9BA0"/>
<path d="M198.57 214.53L196.34 218.39L194.11 214.53H198.57Z" fill="#CDCDD0"/>
<path d="M207.76 184.54C207.59 184.54 207.44 184.42 207.4 184.25C207.35 184.05 207.47 183.85 207.68 183.8L336.41 152.52C336.61 152.46 336.81 152.6 336.86 152.8C336.91 153 336.79 153.2 336.58 153.25L207.85 184.53C207.82 184.53 207.79 184.54 207.76 184.54Z" fill="#9B9BA0"/>
<path d="M209.6 185.99L205.29 184.81L208.46 181.67L209.6 185.99Z" fill="#CDCDD0"/>
<path d="M185.73 184.54C185.7 184.54 185.67 184.54 185.64 184.53L56.8 153.25C56.6 153.2 56.48 153 56.52 152.8C56.57 152.6 56.77 152.47 56.97 152.52L185.8 183.8C186 183.85 186.12 184.05 186.08 184.25C186.05 184.42 185.89 184.54 185.73 184.54Z" fill="#9B9BA0"/>
<path d="M183.89 185.99L188.2 184.81L185.03 181.67L183.89 185.99Z" fill="#CDCDD0"/>
<path d="M198.76 189.2H194.09C193.95 189.2 193.82 189.12 193.76 188.99C193.7 188.86 193.71 188.71 193.79 188.6L196.75 184.63L193.64 181.27C193.54 181.16 193.51 181 193.57 180.86C193.63 180.72 193.76 180.64 193.91 180.64H198.67C198.88 180.64 199.05 180.81 199.05 181.02C199.05 181.23 198.88 181.4 198.67 181.4H194.77L197.51 184.36C197.63 184.49 197.64 184.69 197.54 184.84L194.84 188.46H198.76C198.97 188.46 199.14 188.63 199.14 188.84C199.14 189.05 198.97 189.2 198.76 189.2Z" fill="#9B9BA0"/>
<path d="M196.46 192.77C192.14 192.77 188.62 189.25 188.62 184.93C188.62 180.61 192.14 177.09 196.46 177.09C200.78 177.09 204.3 180.61 204.3 184.93C204.3 189.25 200.78 192.77 196.46 192.77ZM196.46 177.84C192.55 177.84 189.37 181.02 189.37 184.93C189.37 188.84 192.55 192.02 196.46 192.02C200.37 192.02 203.55 188.84 203.55 184.93C203.55 181.02 200.37 177.84 196.46 177.84Z" fill="#9B9BA0"/>
<path d="M279.14 56.3899C280.587 56.3899 281.76 55.2169 281.76 53.7699C281.76 52.3229 280.587 51.1499 279.14 51.1499C277.693 51.1499 276.52 52.3229 276.52 53.7699C276.52 55.2169 277.693 56.3899 279.14 56.3899Z" fill="#50E6FF"/>
<path d="M239.07 77.0501C240.517 77.0501 241.69 75.877 241.69 74.4301C241.69 72.9831 240.517 71.8101 239.07 71.8101C237.623 71.8101 236.45 72.9831 236.45 74.4301C236.45 75.877 237.623 77.0501 239.07 77.0501Z" fill="#50E6FF"/>
<path d="M217.99 95.9402C219.437 95.9402 220.61 94.7672 220.61 93.3202C220.61 91.8732 219.437 90.7002 217.99 90.7002C216.543 90.7002 215.37 91.8732 215.37 93.3202C215.37 94.7672 216.543 95.9402 217.99 95.9402Z" fill="#50E6FF"/>
<path d="M119.29 56.3899C120.737 56.3899 121.91 55.2169 121.91 53.7699C121.91 52.3229 120.737 51.1499 119.29 51.1499C117.843 51.1499 116.67 52.3229 116.67 53.7699C116.67 55.2169 117.843 56.3899 119.29 56.3899Z" fill="#50E6FF"/>
<path d="M159.66 77.0501C161.107 77.0501 162.28 75.877 162.28 74.4301C162.28 72.9831 161.107 71.8101 159.66 71.8101C158.213 71.8101 157.04 72.9831 157.04 74.4301C157.04 75.877 158.213 77.0501 159.66 77.0501Z" fill="#50E6FF"/>
<path d="M139.33 95.9402C140.777 95.9402 141.95 94.7672 141.95 93.3202C141.95 91.8732 140.777 90.7002 139.33 90.7002C137.883 90.7002 136.71 91.8732 136.71 93.3202C136.71 94.7672 137.883 95.9402 139.33 95.9402Z" fill="#50E6FF"/>
<path d="M180.43 95.9402C181.877 95.9402 183.05 94.7672 183.05 93.3202C183.05 91.8732 181.877 90.7002 180.43 90.7002C178.983 90.7002 177.81 91.8732 177.81 93.3202C177.81 94.7672 178.983 95.9402 180.43 95.9402Z" fill="#156AB3"/>
<path d="M57.92 95.9402C59.367 95.9402 60.5401 94.7672 60.5401 93.3202C60.5401 91.8732 59.367 90.7002 57.92 90.7002C56.4731 90.7002 55.3 91.8732 55.3 93.3202C55.3 94.7672 56.4731 95.9402 57.92 95.9402Z" fill="#156AB3"/>
<path d="M79.2201 77.0501C80.6671 77.0501 81.8401 75.877 81.8401 74.4301C81.8401 72.9831 80.6671 71.8101 79.2201 71.8101C77.7731 71.8101 76.6001 72.9831 76.6001 74.4301C76.6001 75.877 77.7731 77.0501 79.2201 77.0501Z" fill="#50E6FF"/>
<path d="M98.74 95.9402C100.187 95.9402 101.36 94.7672 101.36 93.3202C101.36 91.8732 100.187 90.7002 98.74 90.7002C97.293 90.7002 96.12 91.8732 96.12 93.3202C96.12 94.7672 97.293 95.9402 98.74 95.9402Z" fill="#50E6FF"/>
<path d="M258.89 95.9402C260.337 95.9402 261.51 94.7672 261.51 93.3202C261.51 91.8732 260.337 90.7002 258.89 90.7002C257.443 90.7002 256.27 91.8732 256.27 93.3202C256.27 94.7672 257.443 95.9402 258.89 95.9402Z" fill="#50E6FF"/>
<path d="M340.44 95.9402C341.887 95.9402 343.06 94.7672 343.06 93.3202C343.06 91.8732 341.887 90.7002 340.44 90.7002C338.993 90.7002 337.82 91.8732 337.82 93.3202C337.82 94.7672 338.993 95.9402 340.44 95.9402Z" fill="#156AB3"/>
<path d="M312.41 122.22C313.857 122.22 315.03 121.047 315.03 119.6C315.03 118.153 313.857 116.98 312.41 116.98C310.963 116.98 309.79 118.153 309.79 119.6C309.79 121.047 310.963 122.22 312.41 122.22Z" fill="#156AB3"/>
<path d="M271.82 122.22C273.267 122.22 274.44 121.047 274.44 119.6C274.44 118.153 273.267 116.98 271.82 116.98C270.373 116.98 269.2 118.153 269.2 119.6C269.2 121.047 270.373 122.22 271.82 122.22Z" fill="#50E6FF"/>
<path d="M152.25 122.22C153.697 122.22 154.87 121.047 154.87 119.6C154.87 118.153 153.697 116.98 152.25 116.98C150.803 116.98 149.63 118.153 149.63 119.6C149.63 121.047 150.803 122.22 152.25 122.22Z" fill="#50E6FF"/>
<path d="M90.9 122.22C92.347 122.22 93.52 121.047 93.52 119.6C93.52 118.153 92.347 116.98 90.9 116.98C89.453 116.98 88.28 118.153 88.28 119.6C88.28 121.047 89.453 122.22 90.9 122.22Z" fill="#50E6FF"/>
<path d="M111.98 122.22C113.427 122.22 114.6 121.047 114.6 119.6C114.6 118.153 113.427 116.98 111.98 116.98C110.533 116.98 109.36 118.153 109.36 119.6C109.36 121.047 110.533 122.22 111.98 122.22Z" fill="#156AB3"/>
<path d="M132.05 122.22C133.497 122.22 134.67 121.047 134.67 119.6C134.67 118.153 133.497 116.98 132.05 116.98C130.603 116.98 129.43 118.153 129.43 119.6C129.43 121.047 130.603 122.22 132.05 122.22Z" fill="#156AB3"/>
<path d="M207.5 122.22C208.947 122.22 210.12 121.047 210.12 119.6C210.12 118.153 208.947 116.98 207.5 116.98C206.053 116.98 204.88 118.153 204.88 119.6C204.88 121.047 206.053 122.22 207.5 122.22Z" fill="#156AB3"/>
<path d="M231.36 122.22C232.807 122.22 233.98 121.047 233.98 119.6C233.98 118.153 232.807 116.98 231.36 116.98C229.913 116.98 228.74 118.153 228.74 119.6C228.74 121.047 229.913 122.22 231.36 122.22Z" fill="#156AB3"/>
<path d="M250.58 122.22C252.027 122.22 253.2 121.047 253.2 119.6C253.2 118.153 252.027 116.98 250.58 116.98C249.133 116.98 247.96 118.153 247.96 119.6C247.96 121.047 249.133 122.22 250.58 122.22Z" fill="#156AB3"/>
<path d="M292.09 122.22C293.537 122.22 294.71 121.047 294.71 119.6C294.71 118.153 293.537 116.98 292.09 116.98C290.643 116.98 289.47 118.153 289.47 119.6C289.47 121.047 290.643 122.22 292.09 122.22Z" fill="#156AB3"/>
<path d="M318.88 146.46C320.327 146.46 321.5 145.287 321.5 143.84C321.5 142.393 320.327 141.22 318.88 141.22C317.433 141.22 316.26 142.393 316.26 143.84C316.26 145.287 317.433 146.46 318.88 146.46Z" fill="#156AB3"/>
<path d="M306.75 146.46C308.197 146.46 309.37 145.287 309.37 143.84C309.37 142.393 308.197 141.22 306.75 141.22C305.303 141.22 304.13 142.393 304.13 143.84C304.13 145.287 305.303 146.46 306.75 146.46Z" fill="#1A2C45"/>
<path d="M279.03 146.46C280.477 146.46 281.65 145.287 281.65 143.84C281.65 142.393 280.477 141.22 279.03 141.22C277.583 141.22 276.41 142.393 276.41 143.84C276.41 145.287 277.583 146.46 279.03 146.46Z" fill="#156AB3"/>
<path d="M267.02 146.46C268.467 146.46 269.64 145.287 269.64 143.84C269.64 142.393 268.467 141.22 267.02 141.22C265.573 141.22 264.4 142.393 264.4 143.84C264.4 145.287 265.573 146.46 267.02 146.46Z" fill="#156AB3"/>
<path d="M97.2201 146.65C98.6671 146.65 99.8401 145.477 99.8401 144.03C99.8401 142.583 98.6671 141.41 97.2201 141.41C95.7731 141.41 94.6001 142.583 94.6001 144.03C94.6001 145.477 95.7731 146.65 97.2201 146.65Z" fill="#156AB3"/>
<path d="M85.3201 146.65C86.7671 146.65 87.9401 145.477 87.9401 144.03C87.9401 142.583 86.7671 141.41 85.3201 141.41C83.8731 141.41 82.7001 142.583 82.7001 144.03C82.7001 145.477 83.8731 146.65 85.3201 146.65Z" fill="#1A2C45"/>
<path d="M146.97 146.65C148.417 146.65 149.59 145.477 149.59 144.03C149.59 142.583 148.417 141.41 146.97 141.41C145.523 141.41 144.35 142.583 144.35 144.03C144.35 145.477 145.523 146.65 146.97 146.65Z" fill="#156AB3"/>
<path d="M158.88 146.42C160.327 146.42 161.5 145.247 161.5 143.8C161.5 142.353 160.327 141.18 158.88 141.18C157.433 141.18 156.26 142.353 156.26 143.8C156.26 145.247 157.433 146.42 158.88 146.42Z" fill="#156AB3"/>
<path d="M318.929 74.2287L299.269 91.1182L299.757 91.687L319.418 74.7976L318.929 74.2287Z" fill="#78787D"/>
<path d="M299.68 95.9402C301.127 95.9402 302.3 94.7672 302.3 93.3202C302.3 91.8732 301.127 90.7002 299.68 90.7002C298.233 90.7002 297.06 91.8732 297.06 93.3202C297.06 94.7672 298.233 95.9402 299.68 95.9402Z" fill="#50E6FF"/>
<path d="M319.3 77.0501C320.747 77.0501 321.92 75.877 321.92 74.4301C321.92 72.9831 320.747 71.8101 319.3 71.8101C317.853 71.8101 316.68 72.9831 316.68 74.4301C316.68 75.877 317.853 77.0501 319.3 77.0501Z" fill="#50E6FF"/>
</svg>
