<svg width="406" height="233" viewBox="0 0 406 233" fill="none" xmlns="http://www.w3.org/2000/svg">
<g opacity="0.5">
<path opacity="0.5" d="M96.8 143L294.6 105.3L301.55 137.64L96.85 176.8L96.8 143Z" fill="#0078D4"/>
</g>
<g opacity="0.5">
<path opacity="0.5" d="M96.88 199.04L282.11 62.8501L286.87 68.6301L104.97 202.52L96.88 202.45V199.04Z" fill="#156AB3"/>
</g>
<path d="M196.91 95.73H192.65V99.99H196.91V95.73Z" fill="#50E6FF"/>
<path d="M189.27 86.0098H185.01V90.2698H189.27V86.0098Z" fill="#50E6FF"/>
<path d="M183.86 72.5498H179.6V76.8098H183.86V72.5498Z" fill="#50E6FF"/>
<path d="M189.84 54.9502H185.58V59.2102H189.84V54.9502Z" fill="#50E6FF"/>
<path d="M211.23 80.2598H206.97V84.5198H211.23V80.2598Z" fill="#50E6FF"/>
<path d="M231.13 58.29H226.87V62.55H231.13V58.29Z" fill="#50E6FF"/>
<path d="M240.56 74.5098H236.3V78.7698H240.56V74.5098Z" fill="#50E6FF"/>
<path d="M245.05 85.7798H240.79V90.0398H245.05V85.7798Z" fill="#50E6FF"/>
<path d="M218.02 67.8398H213.76V72.0998H218.02V67.8398Z" fill="#50E6FF"/>
<path d="M220.32 90.1499H216.06V94.4099H220.32V90.1499Z" fill="#50E6FF"/>
<path d="M185.53 109.44H181.27V113.7H185.53V109.44Z" fill="#50E6FF"/>
<path d="M196.02 114.76H191.76V119.02H196.02V114.76Z" fill="#50E6FF"/>
<path d="M173.85 100.96H169.59V105.22H173.85V100.96Z" fill="#50E6FF"/>
<path d="M170.06 86.2402H165.8V90.5002H170.06V86.2402Z" fill="#50E6FF"/>
<path d="M150.97 90.0298H146.71V94.2898H150.97V90.0298Z" fill="#50E6FF"/>
<path d="M153.15 104.99H148.89V109.25H153.15V104.99Z" fill="#50E6FF"/>
<path d="M165.8 126.61H161.54V130.87H165.8V126.61Z" fill="#50E6FF"/>
<path d="M138.89 109.47H134.63V113.73H138.89V109.47Z" fill="#50E6FF"/>
<path d="M130.03 123.04H125.77V127.3H130.03V123.04Z" fill="#50E6FF"/>
<path d="M233.42 154.16C234.563 154.16 235.49 153.233 235.49 152.09C235.49 150.947 234.563 150.02 233.42 150.02C232.277 150.02 231.35 150.947 231.35 152.09C231.35 153.233 232.277 154.16 233.42 154.16Z" fill="white"/>
<path d="M247.3 168.94C248.443 168.94 249.37 168.013 249.37 166.87C249.37 165.727 248.443 164.8 247.3 164.8C246.157 164.8 245.23 165.727 245.23 166.87C245.23 168.013 246.157 168.94 247.3 168.94Z" fill="white"/>
<path d="M273.03 165.43C274.173 165.43 275.1 164.503 275.1 163.36C275.1 162.217 274.173 161.29 273.03 161.29C271.887 161.29 270.96 162.217 270.96 163.36C270.96 164.503 271.887 165.43 273.03 165.43Z" fill="white"/>
<path d="M247.41 183.69C248.553 183.69 249.48 182.763 249.48 181.62C249.48 180.477 248.553 179.55 247.41 179.55C246.267 179.55 245.34 180.477 245.34 181.62C245.34 182.763 246.267 183.69 247.41 183.69Z" fill="white"/>
<path d="M214.09 173.24C215.233 173.24 216.16 172.313 216.16 171.17C216.16 170.027 215.233 169.1 214.09 169.1C212.947 169.1 212.02 170.027 212.02 171.17C212.02 172.313 212.947 173.24 214.09 173.24Z" fill="white"/>
<path d="M220.54 186.14C221.683 186.14 222.61 185.213 222.61 184.07C222.61 182.927 221.683 182 220.54 182C219.397 182 218.47 182.927 218.47 184.07C218.47 185.213 219.397 186.14 220.54 186.14Z" fill="white"/>
<path d="M196.69 166.62C197.833 166.62 198.76 165.693 198.76 164.55C198.76 163.407 197.833 162.48 196.69 162.48C195.547 162.48 194.62 163.407 194.62 164.55C194.62 165.693 195.547 166.62 196.69 166.62Z" fill="white"/>
<path d="M187.71 188.35C188.853 188.35 189.78 187.423 189.78 186.28C189.78 185.137 188.853 184.21 187.71 184.21C186.567 184.21 185.64 185.137 185.64 186.28C185.64 187.423 186.567 188.35 187.71 188.35Z" fill="white"/>
<path d="M166.07 171.03C167.213 171.03 168.14 170.103 168.14 168.96C168.14 167.817 167.213 166.89 166.07 166.89C164.927 166.89 164 167.817 164 168.96C164 170.103 164.927 171.03 166.07 171.03Z" fill="white"/>
<path d="M156.01 175.44C157.153 175.44 158.08 174.513 158.08 173.37C158.08 172.227 157.153 171.3 156.01 171.3C154.867 171.3 153.94 172.227 153.94 173.37C153.94 174.513 154.867 175.44 156.01 175.44Z" fill="white"/>
<path d="M166.07 190.55C167.213 190.55 168.14 189.623 168.14 188.48C168.14 187.337 167.213 186.41 166.07 186.41C164.927 186.41 164 187.337 164 188.48C164 189.623 164.927 190.55 166.07 190.55Z" fill="white"/>
<path d="M124 192.59C125.143 192.59 126.07 191.663 126.07 190.52C126.07 189.377 125.143 188.45 124 188.45C122.857 188.45 121.93 189.377 121.93 190.52C121.93 191.663 122.857 192.59 124 192.59Z" fill="white"/>
<path d="M284.104 65.1752L98.0996 201.914L98.9881 203.122L284.992 66.3837L284.104 65.1752Z" fill="#2195DC"/>
<path d="M298.04 120.87L96.9343 159.281L97.2157 160.755L298.321 122.343L298.04 120.87Z" fill="#45CAF2"/>
<path d="M298.39 107.66C298.16 107.66 297.95 107.49 297.9 107.26L297.85 107.01C297.8 106.74 297.97 106.48 298.24 106.42C298.52 106.36 298.77 106.54 298.83 106.81L298.88 107.06C298.93 107.33 298.76 107.59 298.49 107.65C298.45 107.66 298.42 107.66 298.39 107.66Z" fill="#F4F4F4"/>
<path d="M302.88 130.35C302.65 130.35 302.44 130.18 302.39 129.95L302.3 129.49C302.25 129.22 302.42 128.96 302.69 128.9C302.96 128.84 303.23 129.02 303.28 129.29L303.37 129.75C303.42 130.02 303.25 130.28 302.98 130.34C302.94 130.35 302.91 130.35 302.88 130.35ZM302.24 127.11C302.01 127.11 301.8 126.94 301.75 126.71L301.66 126.25C301.61 125.98 301.78 125.72 302.05 125.66C302.32 125.6 302.58 125.78 302.64 126.05L302.73 126.51C302.78 126.78 302.61 127.04 302.34 127.1C302.3 127.11 302.27 127.11 302.24 127.11ZM301.59 123.87C301.36 123.87 301.15 123.7 301.1 123.47L301.01 123.01C300.96 122.74 301.13 122.48 301.4 122.42C301.68 122.37 301.93 122.54 301.99 122.81L302.08 123.27C302.13 123.54 301.96 123.8 301.69 123.86C301.66 123.87 301.63 123.87 301.59 123.87ZM300.95 120.63C300.72 120.63 300.51 120.46 300.46 120.23L300.37 119.77C300.32 119.5 300.49 119.24 300.76 119.18C301.03 119.12 301.29 119.3 301.35 119.57L301.44 120.03C301.49 120.3 301.32 120.56 301.05 120.62C301.02 120.62 300.99 120.63 300.95 120.63ZM300.31 117.39C300.08 117.39 299.87 117.22 299.82 116.99L299.73 116.53C299.68 116.26 299.85 116 300.12 115.94C300.39 115.88 300.65 116.06 300.71 116.33L300.8 116.79C300.85 117.06 300.68 117.32 300.41 117.38C300.38 117.38 300.34 117.39 300.31 117.39ZM299.67 114.14C299.44 114.14 299.23 113.97 299.18 113.74L299.09 113.28C299.04 113.01 299.21 112.75 299.48 112.69C299.75 112.64 300.01 112.81 300.07 113.08L300.16 113.54C300.21 113.81 300.04 114.07 299.77 114.13C299.74 114.14 299.7 114.14 299.67 114.14ZM299.03 110.9C298.8 110.9 298.59 110.73 298.54 110.5L298.45 110.04C298.4 109.77 298.57 109.51 298.84 109.45C299.11 109.39 299.37 109.57 299.43 109.84L299.52 110.3C299.57 110.57 299.4 110.83 299.13 110.89C299.09 110.9 299.06 110.9 299.03 110.9Z" fill="#F4F4F4"/>
<path d="M303.48 133.38C303.25 133.38 303.04 133.22 302.99 132.98L302.94 132.73C302.89 132.46 303.06 132.2 303.33 132.14C303.6 132.08 303.86 132.26 303.92 132.53L303.97 132.78C304.02 133.05 303.85 133.31 303.58 133.37C303.54 133.38 303.51 133.38 303.48 133.38Z" fill="#F4F4F4"/>
<path d="M304.04 137.45C304.896 137.45 305.59 136.756 305.59 135.9C305.59 135.044 304.896 134.35 304.04 134.35C303.184 134.35 302.49 135.044 302.49 135.9C302.49 136.756 303.184 137.45 304.04 137.45Z" fill="#0078D4"/>
<path d="M297.57 105.3C298.426 105.3 299.12 104.606 299.12 103.75C299.12 102.894 298.426 102.2 297.57 102.2C296.714 102.2 296.02 102.894 296.02 103.75C296.02 104.606 296.714 105.3 297.57 105.3Z" fill="#0078D4"/>
<path d="M288.15 66.56C287.99 66.56 287.83 66.48 287.74 66.34L287.46 65.93C287.3 65.7 287.36 65.39 287.59 65.23C287.82 65.08 288.13 65.13 288.29 65.36L288.57 65.77C288.73 66 288.67 66.31 288.44 66.47C288.34 66.53 288.24 66.56 288.15 66.56ZM286.17 63.67C286.01 63.67 285.85 63.59 285.76 63.45L285.48 63.04C285.32 62.81 285.38 62.5 285.61 62.35C285.84 62.19 286.15 62.25 286.3 62.48L286.58 62.89C286.74 63.12 286.68 63.43 286.45 63.58C286.36 63.65 286.26 63.67 286.17 63.67ZM284.19 60.79C284.03 60.79 283.87 60.71 283.78 60.57L283.5 60.16C283.34 59.93 283.4 59.62 283.63 59.46C283.86 59.3 284.17 59.36 284.33 59.59L284.61 60C284.77 60.23 284.71 60.54 284.48 60.7C284.38 60.76 284.28 60.79 284.19 60.79Z" fill="#F4F4F4"/>
<path d="M289.48 69.35C290.336 69.35 291.03 68.656 291.03 67.8C291.03 66.944 290.336 66.25 289.48 66.25C288.624 66.25 287.93 66.944 287.93 67.8C287.93 68.656 288.624 69.35 289.48 69.35Z" fill="#2195DC"/>
<path d="M284.21 61.7802C285.066 61.7802 285.76 61.0862 285.76 60.2302C285.76 59.3741 285.066 58.6802 284.21 58.6802C283.354 58.6802 282.66 59.3741 282.66 60.2302C282.66 61.0862 283.354 61.7802 284.21 61.7802Z" fill="#2195DC"/>
<path d="M292.63 64.9299V55.9399H295.48C296.35 55.9399 297.04 56.1299 297.55 56.5099C298.06 56.8899 298.31 57.3899 298.31 57.9999C298.31 58.5099 298.17 58.9499 297.88 59.3299C297.59 59.7099 297.19 59.9699 296.68 60.1299V60.1599C297.3 60.2299 297.79 60.4599 298.16 60.8499C298.53 61.2399 298.71 61.7399 298.71 62.3599C298.71 63.1299 298.41 63.7499 297.8 64.2299C297.19 64.7099 296.43 64.9399 295.51 64.9399H292.63V64.9299ZM294.12 57.1299V59.6899H295.09C295.61 59.6899 296.01 59.5699 296.31 59.3199C296.6 59.0699 296.75 58.7299 296.75 58.2799C296.75 57.5099 296.24 57.1299 295.21 57.1299H294.12ZM294.12 60.8899V63.7399H295.39C295.95 63.7399 296.38 63.6099 296.68 63.3499C296.98 63.0899 297.14 62.7399 297.14 62.2899C297.14 61.3599 296.49 60.8899 295.2 60.8899H294.12Z" fill="#F4F4F4"/>
<path d="M313.06 122.33H311.42L310.61 120.04H307.07L306.29 122.33H304.66L308.03 113.34H309.71L313.06 122.33ZM310.22 118.83L308.97 115.24C308.93 115.12 308.89 114.93 308.85 114.68H308.82C308.78 114.92 308.74 115.11 308.7 115.24L307.46 118.83H310.22Z" fill="#F4F4F4"/>
<path d="M92.09 39.6602L89.19 47.1102C88.59 48.4402 87.74 49.1002 86.66 49.1002C86.36 49.1002 86.1 49.0702 85.9 49.0202V47.8102C86.13 47.8902 86.34 47.9202 86.53 47.9202C87.07 47.9202 87.48 47.6502 87.75 47.1202L88.18 46.0702L85.63 39.6602H87.24L88.77 44.3302C88.79 44.3902 88.82 44.5402 88.88 44.7902H88.91C88.93 44.6902 88.97 44.5402 89.02 44.3402L90.63 39.6602H92.09Z" fill="#F4F4F4"/>
<path d="M295.18 207.54L293.04 210.79L295.15 213.96H293.46L292.33 211.97C292.26 211.85 292.18 211.69 292.08 211.51H292.06C292.04 211.55 291.96 211.7 291.8 211.97L290.65 213.96H288.97L291.15 210.81L289.08 207.54H290.77L291.88 209.63C291.96 209.78 292.05 209.94 292.12 210.11H292.14L293.58 207.55H295.18V207.54Z" fill="#F4F4F4"/>
<path d="M94.98 38.19L96.83 35L98.67 38.19H94.98Z" fill="#9B9BA0"/>
<path d="M296.69 200.72L299.88 202.57L296.69 204.41V200.72Z" fill="#9B9BA0"/>
<path d="M296.99 202.93H96.87C96.66 202.93 96.49 202.76 96.49 202.55V38.0499C96.49 37.8399 96.66 37.6699 96.87 37.6699C97.08 37.6699 97.25 37.8399 97.25 38.0499V202.17H296.99C297.2 202.17 297.37 202.34 297.37 202.55C297.37 202.76 297.19 202.93 296.99 202.93Z" fill="#9B9BA0"/>
</svg>
