<svg width="406" height="233" viewBox="0 0 406 233" fill="none" xmlns="http://www.w3.org/2000/svg">
<path d="M303.02 203.75H121.11C120.9 203.75 120.73 203.58 120.73 203.37V38.0902C120.73 37.8802 120.9 37.7102 121.11 37.7102C121.32 37.7102 121.49 37.8802 121.49 38.0902V203H303.02C303.23 203 303.4 203.17 303.4 203.38C303.4 203.59 303.23 203.75 303.02 203.75Z" fill="#9B9BA0"/>
<path d="M119.39 38.0701L121.11 35.0901L122.83 38.0701H119.39Z" fill="#9B9BA0"/>
<path d="M217.94 159.82C217.67 159.82 217.44 159.6 217.44 159.33C217.44 159.05 217.65 158.83 217.93 158.82L218.42 158.81C218.68 158.8 218.93 159.02 218.93 159.3C218.93 159.58 218.72 159.81 218.44 159.81L217.94 159.82ZM214.94 159.76C214.93 159.76 214.92 159.76 214.91 159.76L214.4 159.73C214.12 159.71 213.92 159.47 213.94 159.2C213.96 158.92 214.21 158.71 214.47 158.74L214.96 158.77C215.24 158.78 215.45 159.02 215.43 159.3C215.42 159.55 215.2 159.76 214.94 159.76ZM221.43 159.61C221.18 159.61 220.96 159.42 220.93 159.16C220.9 158.89 221.1 158.64 221.37 158.61L221.86 158.56C222.12 158.53 222.38 158.73 222.41 159C222.44 159.27 222.24 159.52 221.97 159.55L221.47 159.6C221.46 159.61 221.44 159.61 221.43 159.61ZM211.46 159.42C211.44 159.42 211.41 159.42 211.39 159.42L210.89 159.35C210.62 159.31 210.43 159.05 210.47 158.78C210.51 158.51 210.77 158.32 211.04 158.36L211.53 158.43C211.8 158.47 211.99 158.72 211.95 159C211.92 159.24 211.7 159.42 211.46 159.42ZM224.89 159.1C224.65 159.1 224.44 158.93 224.4 158.69C224.35 158.42 224.53 158.16 224.8 158.11L225.28 158.02C225.55 157.97 225.81 158.14 225.87 158.41C225.92 158.68 225.75 158.94 225.48 159L224.98 159.1C224.95 159.1 224.92 159.1 224.89 159.1ZM208.02 158.78C207.98 158.78 207.95 158.78 207.91 158.77L207.41 158.65C207.14 158.58 206.98 158.31 207.04 158.04C207.11 157.77 207.37 157.61 207.65 157.67L208.13 157.78C208.4 157.84 208.57 158.11 208.51 158.38C208.45 158.62 208.25 158.78 208.02 158.78ZM228.29 158.31C228.07 158.31 227.87 158.17 227.81 157.94C227.74 157.67 227.89 157.4 228.16 157.32L228.63 157.18C228.9 157.1 229.17 157.26 229.25 157.52C229.33 157.79 229.18 158.06 228.91 158.14L228.42 158.28C228.38 158.3 228.34 158.31 228.29 158.31ZM204.65 157.85C204.6 157.85 204.55 157.84 204.5 157.83L204.02 157.67C203.76 157.58 203.62 157.3 203.7 157.04C203.79 156.78 204.07 156.64 204.33 156.72L204.8 156.88C205.06 156.97 205.21 157.25 205.12 157.51C205.06 157.71 204.86 157.85 204.65 157.85ZM231.62 157.22C231.42 157.22 231.23 157.1 231.15 156.9C231.05 156.64 231.18 156.35 231.44 156.26L231.9 156.08C232.16 155.98 232.45 156.11 232.55 156.36C232.65 156.61 232.52 156.91 232.27 157.01L231.8 157.19C231.74 157.21 231.68 157.22 231.62 157.22ZM201.36 156.63C201.29 156.63 201.23 156.62 201.16 156.59L200.7 156.39C200.45 156.28 200.33 155.99 200.44 155.73C200.55 155.48 200.84 155.36 201.1 155.47L201.56 155.67C201.81 155.78 201.93 156.07 201.82 156.33C201.74 156.51 201.56 156.63 201.36 156.63ZM234.83 155.85C234.64 155.85 234.47 155.75 234.38 155.57C234.26 155.32 234.36 155.02 234.61 154.9L235.05 154.68C235.3 154.56 235.6 154.66 235.72 154.91C235.84 155.16 235.74 155.46 235.49 155.58L235.04 155.8C234.98 155.83 234.91 155.85 234.83 155.85ZM198.2 155.13C198.12 155.13 198.04 155.11 197.97 155.07L197.53 154.83C197.29 154.7 197.2 154.4 197.33 154.15C197.46 153.9 197.77 153.82 198.01 153.95L198.45 154.19C198.69 154.32 198.79 154.62 198.66 154.87C198.55 155.03 198.38 155.13 198.2 155.13ZM237.92 154.21C237.75 154.21 237.58 154.12 237.49 153.96C237.35 153.72 237.43 153.42 237.67 153.28L238.09 153.03C238.33 152.89 238.63 152.96 238.78 153.2C238.92 153.44 238.85 153.74 238.61 153.89L238.18 154.15C238.09 154.18 238 154.21 237.92 154.21ZM195.17 153.36C195.08 153.36 194.98 153.33 194.9 153.28C194.76 153.19 194.61 153.1 194.47 153C194.24 152.85 194.18 152.54 194.33 152.31C194.48 152.08 194.79 152.02 195.02 152.17C195.16 152.26 195.29 152.35 195.43 152.44C195.66 152.59 195.73 152.9 195.58 153.13C195.5 153.28 195.34 153.36 195.17 153.36ZM240.85 152.31C240.69 152.31 240.54 152.24 240.44 152.1C240.28 151.88 240.33 151.56 240.55 151.4L240.95 151.11C241.17 150.95 241.48 151 241.65 151.22C241.81 151.44 241.76 151.76 241.54 151.92L241.13 152.21C241.06 152.28 240.95 152.31 240.85 152.31ZM192.31 151.35C192.2 151.35 192.1 151.32 192.01 151.25L191.61 150.94C191.39 150.77 191.36 150.45 191.53 150.24C191.7 150.02 192.02 149.99 192.23 150.16L192.62 150.46C192.84 150.63 192.88 150.94 192.71 151.16C192.61 151.28 192.46 151.35 192.31 151.35ZM243.62 150.16C243.48 150.16 243.34 150.1 243.24 149.98C243.06 149.77 243.09 149.45 243.3 149.27L243.67 148.95C243.88 148.77 244.19 148.79 244.38 149C244.56 149.21 244.54 149.52 244.33 149.71L243.95 150.04C243.84 150.12 243.73 150.16 243.62 150.16ZM189.64 149.09C189.52 149.09 189.4 149.05 189.3 148.96L188.93 148.61C188.73 148.42 188.72 148.1 188.91 147.9C189.1 147.7 189.41 147.69 189.62 147.88L189.98 148.21C190.18 148.4 190.2 148.71 190.01 148.92C189.91 149.04 189.77 149.09 189.64 149.09ZM246.19 147.79C246.06 147.79 245.94 147.74 245.84 147.65C245.64 147.45 245.64 147.14 245.84 146.94L246.19 146.59C246.39 146.39 246.7 146.39 246.9 146.58C247.1 146.77 247.1 147.09 246.91 147.29L246.56 147.65C246.44 147.74 246.31 147.79 246.19 147.79ZM187.16 146.62C187.03 146.62 186.89 146.57 186.79 146.46L186.45 146.09C186.27 145.88 186.28 145.57 186.49 145.38C186.7 145.19 187.01 145.21 187.2 145.42L187.53 145.78C187.72 145.98 187.7 146.3 187.5 146.49C187.4 146.58 187.28 146.62 187.16 146.62ZM248.55 145.21C248.44 145.21 248.32 145.17 248.23 145.09C248.02 144.91 247.99 144.6 248.16 144.39L248.48 144.01C248.65 143.8 248.97 143.76 249.18 143.94C249.39 144.11 249.43 144.43 249.25 144.64L248.93 145.03C248.83 145.15 248.69 145.21 248.55 145.21ZM184.9 143.95C184.75 143.95 184.6 143.88 184.5 143.75L184.25 143.43C184.08 143.21 184.09 142.86 184.31 142.69C184.53 142.52 184.81 142.53 184.98 142.75L185.28 143.15C185.45 143.37 185.41 143.68 185.19 143.85C185.12 143.92 185.01 143.95 184.9 143.95ZM250.68 142.43C250.58 142.43 250.48 142.4 250.39 142.34C250.17 142.18 250.11 141.87 250.27 141.64L250.55 141.23C250.71 141 251.02 140.95 251.25 141.1C251.48 141.26 251.54 141.57 251.38 141.8L251.09 142.22C250.99 142.36 250.83 142.43 250.68 142.43ZM182.88 141.1C182.72 141.1 182.55 141.02 182.46 140.87L182.19 140.45C182.04 140.22 182.11 139.91 182.35 139.76C182.58 139.61 182.89 139.68 183.04 139.92L183.31 140.34C183.46 140.57 183.39 140.88 183.16 141.03C183.07 141.07 182.97 141.1 182.88 141.1ZM252.57 139.49C252.48 139.49 252.4 139.47 252.32 139.42C252.08 139.28 252 138.97 252.14 138.74L252.39 138.31C252.53 138.07 252.83 137.98 253.07 138.12C253.31 138.26 253.4 138.56 253.26 138.8L253.01 139.24C252.91 139.4 252.74 139.49 252.57 139.49ZM181.11 138.08C180.93 138.08 180.76 137.98 180.67 137.82C180.59 137.67 180.51 137.52 180.43 137.37C180.31 137.12 180.4 136.82 180.65 136.7C180.9 136.58 181.2 136.67 181.32 136.92C181.39 137.06 181.47 137.21 181.55 137.35C181.68 137.59 181.59 137.9 181.34 138.03C181.27 138.06 181.19 138.08 181.11 138.08ZM254.2 136.39C254.13 136.39 254.05 136.37 253.98 136.34C253.73 136.22 253.63 135.92 253.75 135.67C253.82 135.52 253.89 135.38 253.96 135.23C254.07 134.98 254.37 134.87 254.62 134.98C254.87 135.09 254.98 135.39 254.87 135.64C254.8 135.8 254.73 135.95 254.65 136.1C254.56 136.28 254.38 136.39 254.2 136.39ZM179.61 134.93C179.42 134.93 179.23 134.82 179.15 134.62L178.96 134.16C178.85 133.91 178.98 133.61 179.23 133.51C179.48 133.4 179.78 133.53 179.88 133.78L180.07 134.24C180.18 134.49 180.06 134.79 179.8 134.9C179.74 134.92 179.68 134.93 179.61 134.93ZM255.55 133.16C255.49 133.16 255.43 133.15 255.38 133.13C255.12 133.03 254.99 132.75 255.08 132.49L255.25 132.02C255.34 131.76 255.63 131.63 255.89 131.72C256.15 131.81 256.28 132.1 256.19 132.36L256.02 132.83C255.95 133.03 255.76 133.16 255.55 133.16ZM178.38 131.66C178.17 131.66 177.97 131.53 177.9 131.32L177.75 130.84C177.67 130.58 177.81 130.3 178.08 130.21C178.34 130.13 178.62 130.27 178.71 130.54L178.86 131.01C178.95 131.27 178.8 131.55 178.54 131.64C178.49 131.65 178.43 131.66 178.38 131.66ZM256.63 129.83C256.59 129.83 256.54 129.82 256.5 129.81C256.23 129.74 256.08 129.46 256.15 129.19L256.28 128.71C256.35 128.44 256.62 128.28 256.89 128.35C257.16 128.42 257.32 128.69 257.25 128.96L257.12 129.45C257.05 129.68 256.85 129.83 256.63 129.83ZM177.44 128.29C177.21 128.29 177.01 128.13 176.95 127.9L176.84 127.4C176.78 127.13 176.95 126.86 177.22 126.81C177.49 126.76 177.76 126.92 177.81 127.19L177.92 127.67C177.98 127.94 177.82 128.21 177.55 128.27C177.52 128.28 177.48 128.29 177.44 128.29ZM257.41 126.42C257.38 126.42 257.35 126.42 257.32 126.41C257.05 126.36 256.87 126.1 256.92 125.83L257.01 125.34C257.06 125.07 257.32 124.88 257.59 124.93C257.86 124.98 258.05 125.24 258 125.51L257.91 126.01C257.86 126.25 257.65 126.42 257.41 126.42ZM176.79 124.85C176.54 124.85 176.33 124.67 176.3 124.42L176.23 123.92C176.19 123.65 176.38 123.39 176.66 123.36C176.93 123.31 177.19 123.51 177.22 123.79L177.29 124.28C177.33 124.55 177.14 124.81 176.87 124.85C176.84 124.85 176.82 124.85 176.79 124.85ZM257.9 122.96C257.88 122.96 257.87 122.96 257.85 122.96C257.58 122.93 257.37 122.69 257.4 122.41L257.44 121.92C257.46 121.64 257.73 121.45 257.98 121.46C258.26 121.48 258.46 121.72 258.44 122L258.39 122.51C258.37 122.76 258.15 122.96 257.9 122.96ZM176.44 121.37C176.18 121.37 175.96 121.16 175.94 120.9L175.91 120.4C175.9 120.12 176.11 119.89 176.39 119.88C176.66 119.83 176.9 120.08 176.91 120.36L176.94 120.85C176.96 121.13 176.75 121.36 176.47 121.38C176.46 121.37 176.45 121.37 176.44 121.37ZM258.09 119.46C258.08 119.46 258.08 119.46 258.09 119.46C257.81 119.46 257.59 119.23 257.59 118.95V118.46C257.59 118.29 257.67 118.14 257.8 118.05C257.67 117.96 257.59 117.82 257.58 117.65L257.57 117.15C257.56 116.87 257.78 116.64 258.06 116.64C258.31 116.64 258.57 116.85 258.57 117.13L258.58 117.63C258.58 117.8 258.5 117.96 258.37 118.05C258.5 118.14 258.59 118.29 258.59 118.46V118.97C258.58 119.24 258.36 119.46 258.09 119.46ZM176.39 117.87H176.38C176.1 117.86 175.89 117.63 175.89 117.36L175.91 116.86C175.92 116.58 176.16 116.41 176.43 116.38C176.71 116.39 176.92 116.62 176.91 116.9L176.89 117.39C176.88 117.66 176.66 117.87 176.39 117.87ZM257.86 114.66C257.61 114.66 257.39 114.47 257.36 114.21L257.31 113.72C257.28 113.45 257.47 113.2 257.75 113.17C258.01 113.13 258.27 113.33 258.3 113.61L258.36 114.11C258.39 114.38 258.19 114.63 257.92 114.66C257.9 114.65 257.88 114.66 257.86 114.66ZM176.63 114.38C176.61 114.38 176.59 114.38 176.57 114.38C176.3 114.35 176.1 114.1 176.13 113.83L176.19 113.33C176.22 113.06 176.48 112.86 176.75 112.9C177.02 112.93 177.22 113.18 177.18 113.46L177.12 113.95C177.1 114.2 176.88 114.38 176.63 114.38ZM257.35 111.19C257.12 111.19 256.91 111.02 256.86 110.79L256.76 110.3C256.71 110.03 256.88 109.77 257.15 109.71C257.42 109.66 257.68 109.83 257.74 110.1L257.84 110.59C257.89 110.86 257.72 111.12 257.45 111.18C257.42 111.19 257.38 111.19 257.35 111.19ZM177.16 110.93C177.13 110.93 177.1 110.93 177.06 110.92C176.79 110.87 176.61 110.6 176.67 110.33L176.77 109.83C176.83 109.56 177.09 109.39 177.36 109.45C177.63 109.51 177.8 109.77 177.74 110.04L177.64 110.52C177.61 110.76 177.4 110.93 177.16 110.93ZM256.54 107.79C256.32 107.79 256.12 107.65 256.06 107.42L255.92 106.95C255.84 106.69 255.99 106.41 256.25 106.33C256.51 106.25 256.79 106.4 256.87 106.66L257.01 107.15C257.08 107.42 256.93 107.69 256.66 107.77C256.63 107.79 256.59 107.79 256.54 107.79ZM177.99 107.53C177.94 107.53 177.9 107.52 177.85 107.51C177.59 107.43 177.43 107.16 177.51 106.89L177.65 106.41C177.73 106.15 178.01 105.99 178.27 106.08C178.53 106.16 178.69 106.44 178.6 106.7L178.46 107.18C178.41 107.39 178.21 107.53 177.99 107.53ZM255.44 104.47C255.24 104.47 255.05 104.35 254.97 104.15L254.79 103.69C254.69 103.43 254.82 103.14 255.07 103.04C255.33 102.94 255.62 103.07 255.72 103.32L255.9 103.79C256 104.05 255.87 104.34 255.61 104.43C255.56 104.46 255.5 104.47 255.44 104.47ZM179.12 104.21C179.06 104.21 179 104.2 178.94 104.18C178.68 104.08 178.55 103.79 178.65 103.53L178.84 103.06C178.94 102.8 179.24 102.68 179.49 102.78C179.75 102.88 179.87 103.17 179.77 103.43L179.59 103.89C179.51 104.09 179.32 104.21 179.12 104.21ZM254.06 101.26C253.87 101.26 253.69 101.15 253.61 100.97C253.54 100.82 253.47 100.68 253.4 100.53C253.28 100.28 253.38 99.9801 253.62 99.8601C253.87 99.7401 254.17 99.8401 254.29 100.08C254.37 100.23 254.44 100.38 254.51 100.54C254.63 100.79 254.52 101.09 254.27 101.21C254.21 101.24 254.14 101.26 254.06 101.26ZM180.52 101C180.45 101 180.37 100.98 180.3 100.95C180.05 100.83 179.95 100.53 180.07 100.28C180.14 100.13 180.22 99.9701 180.3 99.8201C180.43 99.5701 180.73 99.4801 180.97 99.6001C181.22 99.7301 181.31 100.03 181.19 100.27C181.11 100.42 181.04 100.56 180.97 100.71C180.88 100.9 180.71 101 180.52 101ZM252.41 98.1801C252.24 98.1801 252.07 98.0901 251.98 97.9301L251.73 97.5101C251.59 97.2701 251.66 96.9701 251.9 96.8201C252.14 96.6801 252.44 96.7501 252.59 96.9901L252.85 97.4201C252.99 97.6601 252.91 97.9601 252.67 98.1001C252.59 98.1601 252.5 98.1801 252.41 98.1801ZM182.2 97.9301C182.11 97.9301 182.02 97.9101 181.94 97.8601C181.7 97.7201 181.63 97.4101 181.77 97.1701L182.03 96.7401C182.18 96.5101 182.49 96.4401 182.72 96.5801C182.95 96.7301 183.03 97.0301 182.88 97.2701L182.62 97.6901C182.53 97.8401 182.37 97.9301 182.2 97.9301ZM250.51 95.2501C250.35 95.2501 250.2 95.1801 250.1 95.0401L249.81 94.6401C249.65 94.4201 249.69 94.1001 249.92 93.9401C250.14 93.7701 250.46 93.8201 250.62 94.0501L250.92 94.4601C251.08 94.6801 251.03 95.0001 250.8 95.1601C250.71 95.2201 250.61 95.2501 250.51 95.2501ZM184.13 95.0101C184.03 95.0101 183.92 94.9801 183.84 94.9201C183.62 94.7601 183.57 94.4501 183.73 94.2201L184.03 93.8101C184.2 93.5901 184.51 93.5501 184.73 93.7101C184.95 93.8801 185 94.1901 184.83 94.4101L184.54 94.8101C184.43 94.9401 184.28 95.0101 184.13 95.0101ZM248.36 92.4901C248.22 92.4901 248.08 92.4301 247.98 92.3101L247.66 91.9401C247.48 91.7301 247.5 91.4201 247.71 91.2301C247.92 91.0501 248.23 91.0701 248.42 91.2801L248.75 91.6601C248.93 91.8701 248.91 92.1901 248.69 92.3601C248.59 92.4501 248.47 92.4901 248.36 92.4901ZM186.3 92.2701C186.18 92.2701 186.07 92.2301 185.97 92.1501C185.76 91.9701 185.74 91.6501 185.92 91.4401L186.25 91.0601C186.43 90.8501 186.75 90.8301 186.96 91.0101C187.17 91.1901 187.19 91.5101 187.01 91.7201L186.68 92.1001C186.58 92.2101 186.44 92.2701 186.3 92.2701ZM245.98 89.9301C245.85 89.9301 245.73 89.8801 245.63 89.7901L245.28 89.4401C245.08 89.2501 245.08 88.9301 245.27 88.7301C245.46 88.5301 245.78 88.5301 245.98 88.7201L246.34 89.0701C246.54 89.2701 246.54 89.5801 246.34 89.7801C246.24 89.8801 246.11 89.9301 245.98 89.9301ZM188.7 89.7201C188.57 89.7201 188.44 89.6701 188.34 89.5701C188.15 89.3701 188.15 89.0601 188.35 88.8601L188.71 88.5101C188.91 88.3201 189.23 88.3201 189.42 88.5201C189.61 88.7201 189.61 89.0401 189.41 89.2301L189.05 89.5701C188.95 89.6701 188.82 89.7201 188.7 89.7201ZM243.36 87.5701C243.26 87.5701 243.16 87.5401 243.07 87.4601L242.69 87.1401C242.48 86.9701 242.44 86.6501 242.62 86.4401C242.79 86.2301 243.11 86.1901 243.32 86.3701L243.65 86.6401C243.86 86.8101 243.92 87.1501 243.75 87.3701C243.64 87.5001 243.5 87.5701 243.36 87.5701ZM191.3 87.3801C191.16 87.3801 191.01 87.3201 190.91 87.2001C190.74 86.9901 190.77 86.6701 190.98 86.5001L191.31 86.2301C191.52 86.0601 191.87 86.0601 192.04 86.2801C192.21 86.4901 192.21 86.7801 192 86.9601L191.61 87.2701C191.53 87.3501 191.41 87.3801 191.3 87.3801ZM240.61 85.4501C240.51 85.4501 240.41 85.4201 240.32 85.3601L239.92 85.0801C239.69 84.9201 239.63 84.6101 239.79 84.3901C239.95 84.1601 240.26 84.1001 240.48 84.2601L240.9 84.5501C241.12 84.7101 241.18 85.0201 241.02 85.2501C240.92 85.3801 240.77 85.4501 240.61 85.4501ZM194.1 85.2801C193.94 85.2801 193.79 85.2001 193.69 85.0701C193.53 84.8401 193.59 84.5301 193.82 84.3701C193.96 84.2701 194.1 84.1801 194.24 84.0801C194.47 83.9301 194.78 83.9901 194.93 84.2201C195.08 84.4501 195.02 84.7601 194.79 84.9101C194.65 85.0001 194.52 85.0901 194.39 85.1801C194.29 85.2501 194.2 85.2801 194.1 85.2801ZM237.66 83.5701C237.58 83.5701 237.49 83.5501 237.41 83.5001L236.98 83.2501C236.74 83.1101 236.65 82.8101 236.79 82.5701C236.93 82.3301 237.23 82.2401 237.47 82.3801L237.91 82.6301C238.15 82.7701 238.23 83.0701 238.09 83.3101C238 83.4801 237.83 83.5701 237.66 83.5701ZM197.06 83.4201C196.89 83.4201 196.72 83.3301 196.63 83.1701C196.49 82.9301 196.58 82.6201 196.82 82.4901L197.26 82.2401C197.5 82.1101 197.81 82.2001 197.94 82.4401C198.07 82.6801 197.98 82.9901 197.74 83.1201L197.31 83.3601C197.23 83.4001 197.14 83.4201 197.06 83.4201ZM234.55 81.9501C234.48 81.9501 234.41 81.9401 234.34 81.9001L233.89 81.6901C233.64 81.5801 233.53 81.2801 233.64 81.0301C233.76 80.7801 234.05 80.6701 234.3 80.7801L234.76 80.9901C235.01 81.1101 235.12 81.4001 235 81.6501C234.92 81.8401 234.74 81.9501 234.55 81.9501ZM200.17 81.8301C199.98 81.8301 199.8 81.7201 199.72 81.5401C199.6 81.2901 199.71 80.9901 199.97 80.8801L200.43 80.6701C200.68 80.5601 200.98 80.6701 201.09 80.9201C201.2 81.1701 201.09 81.4701 200.84 81.5801L200.39 81.7801C200.31 81.8101 200.24 81.8301 200.17 81.8301ZM231.32 80.6001C231.26 80.6001 231.2 80.5901 231.15 80.5701L230.68 80.4001C230.42 80.3101 230.28 80.0201 230.37 79.7601C230.46 79.5001 230.75 79.3601 231.01 79.4501L231.49 79.6201C231.75 79.7201 231.88 80.0001 231.79 80.2601C231.72 80.4701 231.53 80.6001 231.32 80.6001ZM203.4 80.5101C203.2 80.5101 203 80.3801 202.93 80.1801C202.84 79.9201 202.97 79.6301 203.23 79.5401L203.71 79.3701C203.97 79.2801 204.26 79.4201 204.35 79.6801C204.44 79.9401 204.3 80.2301 204.04 80.3201L203.58 80.4801C203.51 80.5001 203.46 80.5101 203.4 80.5101ZM227.99 79.5301C227.95 79.5301 227.9 79.5201 227.86 79.5101L227.38 79.3801C227.11 79.3101 226.95 79.0401 227.02 78.7701C227.09 78.5001 227.36 78.3401 227.63 78.4101L228.12 78.5401C228.39 78.6101 228.55 78.8901 228.47 79.1501C228.41 79.3901 228.21 79.5301 227.99 79.5301ZM206.74 79.4601C206.52 79.4601 206.32 79.3101 206.26 79.0901C206.19 78.8201 206.35 78.5501 206.61 78.4801L207.1 78.3501C207.37 78.2801 207.64 78.4501 207.71 78.7201C207.78 78.9901 207.61 79.2601 207.34 79.3301L206.87 79.4501C206.82 79.4601 206.78 79.4601 206.74 79.4601ZM224.58 78.7601C224.55 78.7601 224.52 78.7601 224.49 78.7501L224 78.6701C223.73 78.6301 223.54 78.3701 223.59 78.0901C223.64 77.8201 223.89 77.6301 224.17 77.6801L224.67 77.7701C224.94 77.8201 225.12 78.0801 225.07 78.3501C225.02 78.5901 224.81 78.7601 224.58 78.7601ZM210.15 78.7201C209.91 78.7201 209.7 78.5501 209.66 78.3001C209.61 78.0301 209.8 77.7701 210.07 77.7201L210.57 77.6401C210.85 77.5901 211.1 77.7801 211.15 78.0501C211.2 78.3201 211.01 78.5801 210.74 78.6301L210.25 78.7101C210.21 78.7101 210.18 78.7201 210.15 78.7201ZM221.11 78.2901C221.09 78.2901 221.08 78.2901 221.06 78.2901L220.57 78.2501C220.29 78.2301 220.09 77.9901 220.11 77.7101C220.13 77.4301 220.4 77.2401 220.65 77.2501L221.15 77.2901C221.42 77.3201 221.63 77.5601 221.6 77.8301C221.58 78.0901 221.37 78.2901 221.11 78.2901ZM213.62 78.2601C213.36 78.2601 213.15 78.0601 213.12 77.8001C213.1 77.5201 213.3 77.2801 213.57 77.2601L214.07 77.2201C214.31 77.2001 214.59 77.4001 214.61 77.6801C214.63 77.9601 214.42 78.2001 214.15 78.2201L213.66 78.2601C213.65 78.2601 213.64 78.2601 213.62 78.2601ZM217.62 78.1101H217.12C216.84 78.1101 216.62 77.8901 216.62 77.6101C216.62 77.3301 216.84 77.1101 217.12 77.1101H217.62C217.9 77.1101 218.12 77.3401 218.12 77.6101C218.12 77.8801 217.89 78.1101 217.62 78.1101Z" fill="#F4F4F4"/>
<path d="M235.66 105.99C239.493 105.99 242.6 102.883 242.6 99.0501C242.6 95.2173 239.493 92.1101 235.66 92.1101C231.827 92.1101 228.72 95.2173 228.72 99.0501C228.72 102.883 231.827 105.99 235.66 105.99Z" fill="#1D4A79"/>
<path d="M217.76 114.09C221.593 114.09 224.7 110.983 224.7 107.15C224.7 103.317 221.593 100.21 217.76 100.21C213.927 100.21 210.82 103.317 210.82 107.15C210.82 110.983 213.927 114.09 217.76 114.09Z" fill="#1D4A79"/>
<path d="M217.76 134.34C221.593 134.34 224.7 131.233 224.7 127.4C224.7 123.567 221.593 120.46 217.76 120.46C213.927 120.46 210.82 123.567 210.82 127.4C210.82 131.233 213.927 134.34 217.76 134.34Z" fill="#1D4A79"/>
<path d="M235.66 125.6C239.493 125.6 242.6 122.493 242.6 118.66C242.6 114.827 239.493 111.72 235.66 111.72C231.827 111.72 228.72 114.827 228.72 118.66C228.72 122.493 231.827 125.6 235.66 125.6Z" fill="#1D4A79"/>
<path d="M235.66 145.21C239.493 145.21 242.6 142.103 242.6 138.27C242.6 134.437 239.493 131.33 235.66 131.33C231.827 131.33 228.72 134.437 228.72 138.27C228.72 142.103 231.827 145.21 235.66 145.21Z" fill="#1D4A79"/>
<path d="M199.79 145.12C203.623 145.12 206.73 142.013 206.73 138.18C206.73 134.347 203.623 131.24 199.79 131.24C195.957 131.24 192.85 134.347 192.85 138.18C192.85 142.013 195.957 145.12 199.79 145.12Z" fill="#1D4A79"/>
<path d="M199.79 125.6C203.623 125.6 206.73 122.493 206.73 118.66C206.73 114.827 203.623 111.72 199.79 111.72C195.957 111.72 192.85 114.827 192.85 118.66C192.85 122.493 195.957 125.6 199.79 125.6Z" fill="#1D4A79"/>
<path d="M199.79 106.08C203.623 106.08 206.73 102.973 206.73 99.1402C206.73 95.3073 203.623 92.2002 199.79 92.2002C195.957 92.2002 192.85 95.3073 192.85 99.1402C192.85 102.973 195.957 106.08 199.79 106.08Z" fill="#1D4A79"/>
<path d="M214.85 63.3102C218.683 63.3102 221.79 60.203 221.79 56.3702C221.79 52.5373 218.683 49.4302 214.85 49.4302C211.017 49.4302 207.91 52.5373 207.91 56.3702C207.91 60.203 211.017 63.3102 214.85 63.3102Z" fill="#0078D4"/>
<path d="M189.8 59.8102C193.633 59.8102 196.74 56.703 196.74 52.8702C196.74 49.0373 193.633 45.9302 189.8 45.9302C185.967 45.9302 182.86 49.0373 182.86 52.8702C182.86 56.703 185.967 59.8102 189.8 59.8102Z" fill="#0078D4"/>
<path d="M162.83 95.8402C166.663 95.8402 169.77 92.7331 169.77 88.9002C169.77 85.0674 166.663 81.9602 162.83 81.9602C158.997 81.9602 155.89 85.0674 155.89 88.9002C155.89 92.7331 158.997 95.8402 162.83 95.8402Z" fill="#0078D4"/>
<path d="M158.16 67.7301C161.993 67.7301 165.1 64.623 165.1 60.7901C165.1 56.9572 161.993 53.8501 158.16 53.8501C154.327 53.8501 151.22 56.9572 151.22 60.7901C151.22 64.623 154.327 67.7301 158.16 67.7301Z" fill="#0078D4"/>
<path d="M140.73 120.82C144.563 120.82 147.67 117.713 147.67 113.88C147.67 110.047 144.563 106.94 140.73 106.94C136.897 106.94 133.79 110.047 133.79 113.88C133.79 117.713 136.897 120.82 140.73 120.82Z" fill="#0078D4"/>
<path d="M237.59 59.7201C241.423 59.7201 244.53 56.6129 244.53 52.7801C244.53 48.9472 241.423 45.8401 237.59 45.8401C233.757 45.8401 230.65 48.9472 230.65 52.7801C230.65 56.6129 233.757 59.7201 237.59 59.7201Z" fill="#0078D4"/>
<path d="M275.5 69.87C279.333 69.87 282.44 66.7628 282.44 62.93C282.44 59.0971 279.333 55.99 275.5 55.99C271.667 55.99 268.56 59.0971 268.56 62.93C268.56 66.7628 271.667 69.87 275.5 69.87Z" fill="#0078D4"/>
<path d="M276.07 106.12C279.903 106.12 283.01 103.013 283.01 99.18C283.01 95.3471 279.903 92.24 276.07 92.24C272.237 92.24 269.13 95.3471 269.13 99.18C269.13 103.013 272.237 106.12 276.07 106.12Z" fill="#0078D4"/>
<path d="M278.1 137.06C281.933 137.06 285.04 133.953 285.04 130.12C285.04 126.287 281.933 123.18 278.1 123.18C274.267 123.18 271.16 126.287 271.16 130.12C271.16 133.953 274.267 137.06 278.1 137.06Z" fill="#0078D4"/>
<path d="M265.12 161.13C268.953 161.13 272.06 158.023 272.06 154.19C272.06 150.357 268.953 147.25 265.12 147.25C261.287 147.25 258.18 150.357 258.18 154.19C258.18 158.023 261.287 161.13 265.12 161.13Z" fill="#0078D4"/>
<path d="M261.07 189.72C264.903 189.72 268.01 186.613 268.01 182.78C268.01 178.947 264.903 175.84 261.07 175.84C257.237 175.84 254.13 178.947 254.13 182.78C254.13 186.613 257.237 189.72 261.07 189.72Z" fill="#0078D4"/>
<path d="M211.81 190C215.643 190 218.75 186.893 218.75 183.06C218.75 179.227 215.643 176.12 211.81 176.12C207.977 176.12 204.87 179.227 204.87 183.06C204.87 186.893 207.977 190 211.81 190Z" fill="#0078D4"/>
<path d="M186.36 176.34C190.193 176.34 193.3 173.233 193.3 169.4C193.3 165.567 190.193 162.46 186.36 162.46C182.527 162.46 179.42 165.567 179.42 169.4C179.42 173.233 182.527 176.34 186.36 176.34Z" fill="#0078D4"/>
<path d="M160.4 142.2C164.233 142.2 167.34 139.093 167.34 135.26C167.34 131.427 164.233 128.32 160.4 128.32C156.567 128.32 153.46 131.427 153.46 135.26C153.46 139.093 156.567 142.2 160.4 142.2Z" fill="#0078D4"/>
<path d="M160.62 178.3C164.453 178.3 167.56 175.193 167.56 171.36C167.56 167.527 164.453 164.42 160.62 164.42C156.787 164.42 153.68 167.527 153.68 171.36C153.68 175.193 156.787 178.3 160.62 178.3Z" fill="#0078D4"/>
<path d="M127.27 41.7601V33.3601H129.94C130.75 33.3601 131.4 33.5401 131.87 33.8901C132.34 34.2401 132.58 34.7101 132.58 35.2801C132.58 35.7601 132.45 36.1701 132.18 36.5201C131.91 36.8701 131.54 37.1201 131.06 37.2701V37.2901C131.64 37.3601 132.1 37.5701 132.45 37.9301C132.8 38.2901 132.97 38.7601 132.97 39.3401C132.97 40.0601 132.69 40.6401 132.12 41.0901C131.55 41.5401 130.84 41.7601 129.98 41.7601H127.27ZM128.66 34.4701V36.8601H129.56C130.04 36.8601 130.43 36.7501 130.7 36.5201C130.97 36.2901 131.11 35.9701 131.11 35.5501C131.11 34.8301 130.63 34.4701 129.67 34.4701H128.66ZM128.66 37.9801V40.6401H129.85C130.37 40.6401 130.77 40.5201 131.06 40.2801C131.35 40.0401 131.48 39.7101 131.48 39.2901C131.48 38.4201 130.88 37.9801 129.67 37.9801H128.66Z" fill="#F4F4F4"/>
<path d="M302.68 201.65L305.67 203.37L302.68 205.09V201.65Z" fill="#9B9BA0"/>
</svg>
