<svg width="406" height="233" viewBox="0 0 406 233" fill="none" xmlns="http://www.w3.org/2000/svg">
<path d="M95.14 25.4798L97.25 21.8198L99.36 25.4798H95.14Z" fill="#9B9BA0"/>
<path d="M316.26 211.71L319.91 213.82L316.26 215.94V211.71Z" fill="#9B9BA0"/>
<path d="M316.6 214.18H97.3C97.09 214.18 96.92 214.01 96.92 213.8V25.3199C96.92 25.1099 97.09 24.9399 97.3 24.9399C97.51 24.9399 97.68 25.1099 97.68 25.3199V213.43H316.6C316.81 213.43 316.98 213.6 316.98 213.81C316.98 214.02 316.8 214.18 316.6 214.18Z" fill="#9B9BA0"/>
<path d="M217.35 91.34H212.28V86.27H217.35V91.34ZM213.28 90.34H216.35V87.27H213.28V90.34Z" fill="#50E6FF"/>
<path d="M210.04 82.05H204.97V76.98H210.04V82.05ZM205.97 81.05H209.04V77.98H205.97V81.05Z" fill="#50E6FF"/>
<path d="M200.07 76.0798H195V71.0098H200.07V76.0798ZM196 75.0798H199.07V72.0098H196V75.0798Z" fill="#50E6FF"/>
<path d="M205.78 59.2599H200.71V54.1899H205.78V59.2599ZM201.72 58.2599H204.79V55.1899H201.72V58.2599Z" fill="#50E6FF"/>
<path d="M208.09 104.6H203.02V99.5298H208.09V104.6ZM204.02 103.6H207.09V100.53H204.02V103.6Z" fill="#50E6FF"/>
<path d="M190.5 103.24H185.43V98.1699H190.5V103.24ZM186.43 102.24H189.5V99.1699H186.43V102.24Z" fill="#50E6FF"/>
<path d="M186.87 89.1596H181.8V84.0996H186.87V89.1596ZM182.81 88.1596H185.88V85.0996H182.81V88.1596Z" fill="#50E6FF"/>
<path d="M265.87 167.08H260.8V162.01H265.87V167.08ZM261.8 166.08H264.87V163.01H261.8V166.08Z" fill="#2195DC"/>
<path d="M266.01 151.41H260.94V146.34H266.01V151.41ZM261.94 150.41H265.01V147.34H261.94V150.41Z" fill="#2195DC"/>
<path d="M253.39 144.93H248.32V139.86H253.39V144.93ZM249.32 143.93H252.39V140.86H249.32V143.93Z" fill="#2195DC"/>
<path d="M255.36 183.7H250.29V178.63H255.36V183.7ZM251.29 182.7H254.36V179.63H251.29V182.7Z" fill="#2195DC"/>
<path d="M251.27 164.99H246.2V159.92H251.27V164.99ZM247.21 163.99H250.28V160.92H247.21V163.99Z" fill="#2195DC"/>
<path d="M243.89 156.9H238.82V151.83H243.89V156.9ZM239.82 155.9H242.89V152.83H239.82V155.9Z" fill="#2195DC"/>
<path d="M235.68 179.58H230.61V174.51H235.68V179.58ZM231.61 178.58H234.68V175.51H231.61V178.58Z" fill="#2195DC"/>
<path d="M233.27 148.82H228.2V143.75H233.27V148.82ZM229.2 147.82H232.27V144.75H229.2V147.82Z" fill="#2195DC"/>
<path d="M227.32 162.76H222.25V157.69H227.32V162.76ZM223.26 161.76H226.33V158.69H223.26V161.76Z" fill="#2195DC"/>
<path d="M177.42 163.48H172.35V158.41H177.42V163.48ZM173.36 162.48H176.43V159.41H173.36V162.48Z" fill="white"/>
<path d="M161.98 160.68H156.91V155.61H161.98V160.68ZM157.91 159.68H160.98V156.61H157.91V159.68Z" fill="white"/>
<path d="M150.63 141.66H145.56V136.59H150.63V141.66ZM146.56 140.66H149.63V137.59H146.56V140.66Z" fill="white"/>
<path d="M160.4 184.46H155.33V179.39H160.4V184.46ZM156.33 183.46H159.4V180.39H156.33V183.46Z" fill="white"/>
<path d="M148.52 167.36H143.45V162.29H148.52V167.36ZM144.45 166.36H147.52V163.29H144.45V166.36Z" fill="white"/>
<path d="M161.3 147.17H156.23V142.1H161.3V147.17ZM157.23 146.17H160.3V143.1H157.23V146.17Z" fill="white"/>
<path d="M140.72 180.34H135.65V175.27H140.72V180.34ZM136.65 179.34H139.72V176.27H136.65V179.34Z" fill="white"/>
<path d="M138.31 149.58H133.24V144.51H138.31V149.58ZM134.24 148.58H137.31V145.51H134.24V148.58Z" fill="white"/>
<path d="M132.36 163.52H127.29V158.45H132.36V163.52ZM128.3 162.52H131.37V159.45H128.3V162.52Z" fill="white"/>
<path d="M199.15 122.75C177.54 122.75 159.97 105.17 159.97 83.5696C159.97 61.9696 177.55 44.3896 199.15 44.3896C220.75 44.3896 238.33 61.9696 238.33 83.5696C238.33 105.17 220.76 122.75 199.15 122.75ZM199.15 45.3896C178.1 45.3896 160.97 62.5196 160.97 83.5696C160.97 104.62 178.1 121.75 199.15 121.75C220.2 121.75 237.33 104.62 237.33 83.5696C237.33 62.5196 220.21 45.3896 199.15 45.3896Z" fill="#50E6FF"/>
<path d="M149.62 200.83C128.01 200.83 110.44 183.25 110.44 161.65C110.44 140.05 128.02 122.47 149.62 122.47C171.22 122.47 188.8 140.05 188.8 161.65C188.8 183.25 171.22 200.83 149.62 200.83ZM149.62 123.46C128.57 123.46 111.44 140.59 111.44 161.64C111.44 182.69 128.57 199.82 149.62 199.82C170.67 199.82 187.8 182.69 187.8 161.64C187.8 140.59 170.67 123.46 149.62 123.46Z" fill="white"/>
<path d="M243.6 200.83C221.99 200.83 204.42 183.25 204.42 161.65C204.42 140.05 222 122.47 243.6 122.47C265.2 122.47 282.78 140.05 282.78 161.65C282.78 183.25 265.2 200.83 243.6 200.83ZM243.6 123.46C222.55 123.46 205.42 140.59 205.42 161.64C205.42 182.69 222.55 199.82 243.6 199.82C264.65 199.82 281.78 182.69 281.78 161.64C281.78 140.59 264.65 123.46 243.6 123.46Z" fill="#2195DC"/>
</svg>
