<svg width="406" height="233" viewBox="0 0 406 233" fill="none" xmlns="http://www.w3.org/2000/svg">
<path d="M15.1699 161.77C15.0899 161.77 15.0199 161.75 14.9499 161.7C14.7799 161.58 14.7499 161.34 14.8699 161.18L33.9699 134.95C34.0099 134.89 34.0799 134.84 34.1499 134.82L35.2999 134.4C35.4799 134.33 35.6799 134.41 35.7599 134.58L48.8999 160.55C48.9899 160.73 48.9199 160.96 48.7299 161.05C48.5499 161.14 48.3199 161.07 48.2299 160.88L35.2399 135.21L34.5099 135.47L15.4699 161.61C15.3899 161.72 15.2799 161.77 15.1699 161.77Z" fill="#9B9BA0"/>
<path d="M14.6899 166.02C16.6229 166.02 18.1899 164.453 18.1899 162.52C18.1899 160.587 16.6229 159.02 14.6899 159.02C12.7569 159.02 11.1899 160.587 11.1899 162.52C11.1899 164.453 12.7569 166.02 14.6899 166.02Z" fill="#50E6FF"/>
<path d="M48.8199 166.02C50.7529 166.02 52.3199 164.453 52.3199 162.52C52.3199 160.587 50.7529 159.02 48.8199 159.02C46.8869 159.02 45.3199 160.587 45.3199 162.52C45.3199 164.453 46.8869 166.02 48.8199 166.02Z" fill="white"/>
<path d="M287.13 98.0803H280.92C280.71 98.0803 280.54 97.9103 280.54 97.7003C280.54 97.4903 280.71 97.3203 280.92 97.3203H287.13C287.34 97.3203 287.51 97.4903 287.51 97.7003C287.51 97.9103 287.33 98.0803 287.13 98.0803Z" fill="#F4F4F4"/>
<path d="M284.02 101.19C283.81 101.19 283.64 101.02 283.64 100.81V94.6002C283.64 94.3902 283.81 94.2202 284.02 94.2202C284.23 94.2202 284.4 94.3902 284.4 94.6002V100.81C284.4 101.02 284.23 101.19 284.02 101.19Z" fill="#F4F4F4"/>
<path d="M248 98.0803H241.79C241.58 98.0803 241.41 97.9103 241.41 97.7003C241.41 97.4903 241.58 97.3203 241.79 97.3203H248C248.21 97.3203 248.38 97.4903 248.38 97.7003C248.38 97.9103 248.21 98.0803 248 98.0803Z" fill="#F4F4F4"/>
<path d="M244.9 101.19C244.69 101.19 244.52 101.02 244.52 100.81V94.6002C244.52 94.3902 244.69 94.2202 244.9 94.2202C245.11 94.2202 245.28 94.3902 245.28 94.6002V100.81C245.27 101.02 245.11 101.19 244.9 101.19Z" fill="#F4F4F4"/>
<path d="M141.98 100.4H135.77C135.56 100.4 135.39 100.23 135.39 100.02C135.39 99.8101 135.56 99.6401 135.77 99.6401H141.98C142.19 99.6401 142.36 99.8101 142.36 100.02C142.36 100.23 142.19 100.4 141.98 100.4Z" fill="#F4F4F4"/>
<path d="M138.88 103.5C138.67 103.5 138.5 103.33 138.5 103.12V96.9103C138.5 96.7003 138.67 96.5303 138.88 96.5303C139.09 96.5303 139.26 96.7003 139.26 96.9103V103.12C139.25 103.33 139.09 103.5 138.88 103.5Z" fill="#F4F4F4"/>
<path d="M268.58 101.76H267.36V104.19H268.58V101.76Z" fill="#F4F4F4"/>
<path d="M265.13 101.76H263.91V104.19H265.13V101.76Z" fill="#F4F4F4"/>
<path d="M261.56 101.76H260.34V104.19H261.56V101.76Z" fill="#F4F4F4"/>
<path d="M376.83 135.42C376.69 135.42 376.55 135.34 376.49 135.2L375.3 132.49L357.11 109.05L356.67 108.71L346.1 134.52C346.02 134.71 345.8 134.81 345.61 134.72C345.42 134.64 345.33 134.42 345.41 134.23L356.17 107.96C356.21 107.85 356.31 107.77 356.42 107.74C356.54 107.71 356.66 107.74 356.75 107.81L357.64 108.52L375.93 132.1L377.16 134.89C377.24 135.08 377.16 135.3 376.97 135.38C376.94 135.41 376.89 135.42 376.83 135.42Z" fill="#9B9BA0"/>
<path d="M290.48 134.92C290.4 134.92 290.33 134.9 290.26 134.85C290.09 134.73 290.06 134.49 290.18 134.33L309.28 108.1C309.32 108.04 309.39 107.99 309.46 107.97L310.61 107.55C310.79 107.48 310.99 107.56 311.07 107.73L324.21 133.7C324.3 133.88 324.23 134.11 324.04 134.2C323.86 134.29 323.63 134.22 323.54 134.03L310.55 108.36L309.82 108.62L290.78 134.76C290.71 134.86 290.6 134.92 290.48 134.92Z" fill="#9B9BA0"/>
<path d="M310.6 106.48C310.52 106.48 310.44 106.45 310.37 106.4C310.2 106.27 310.17 106.04 310.3 105.87L333.4 75.4801C333.47 75.3901 333.58 75.3301 333.7 75.3301C333.8 75.3301 333.93 75.3901 334 75.4801L356.52 105.7C356.64 105.87 356.61 106.1 356.44 106.22C356.28 106.34 356.04 106.31 355.92 106.14L333.7 76.3501L310.9 106.34C310.83 106.43 310.72 106.48 310.6 106.48Z" fill="#9B9BA0"/>
<path d="M333.52 78.7402C335.453 78.7402 337.02 77.1732 337.02 75.2402C337.02 73.3072 335.453 71.7402 333.52 71.7402C331.587 71.7402 330.02 73.3072 330.02 75.2402C330.02 77.1732 331.587 78.7402 333.52 78.7402Z" fill="#50E6FF"/>
<path d="M310.4 111.61C312.333 111.61 313.9 110.043 313.9 108.11C313.9 106.177 312.333 104.61 310.4 104.61C308.467 104.61 306.9 106.177 306.9 108.11C306.9 110.043 308.467 111.61 310.4 111.61Z" fill="#50E6FF"/>
<path d="M356.6 111.8C358.533 111.8 360.1 110.233 360.1 108.3C360.1 106.367 358.533 104.8 356.6 104.8C354.667 104.8 353.1 106.367 353.1 108.3C353.1 110.233 354.667 111.8 356.6 111.8Z" fill="#50E6FF"/>
<path d="M377.4 139.16C379.333 139.16 380.9 137.593 380.9 135.66C380.9 133.727 379.333 132.16 377.4 132.16C375.467 132.16 373.9 133.727 373.9 135.66C373.9 137.593 375.467 139.16 377.4 139.16Z" fill="#50E6FF"/>
<path d="M290 139.16C291.933 139.16 293.5 137.593 293.5 135.66C293.5 133.727 291.933 132.16 290 132.16C288.067 132.16 286.5 133.727 286.5 135.66C286.5 137.593 288.067 139.16 290 139.16Z" fill="#50E6FF"/>
<path d="M324.14 139.16C326.073 139.16 327.64 137.593 327.64 135.66C327.64 133.727 326.073 132.16 324.14 132.16C322.207 132.16 320.64 133.727 320.64 135.66C320.64 137.593 322.207 139.16 324.14 139.16Z" fill="white"/>
<path d="M345.89 139.16C347.823 139.16 349.39 137.593 349.39 135.66C349.39 133.727 347.823 132.16 345.89 132.16C343.957 132.16 342.39 133.727 342.39 135.66C342.39 137.593 343.957 139.16 345.89 139.16Z" fill="#50E6FF"/>
<path d="M238.48 135.42C238.34 135.42 238.2 135.34 238.14 135.2L236.95 132.49L218.77 109.05L218.32 108.7L206.92 134.52C206.84 134.71 206.61 134.8 206.43 134.71C206.24 134.63 206.15 134.41 206.24 134.22L217.84 107.95C217.89 107.84 217.98 107.76 218.09 107.74C218.2 107.71 218.32 107.74 218.41 107.81L219.3 108.52L237.59 132.1L238.82 134.89C238.9 135.08 238.82 135.3 238.63 135.38C238.58 135.41 238.53 135.42 238.48 135.42Z" fill="#9B9BA0"/>
<path d="M152.13 134.92C152.05 134.92 151.98 134.9 151.91 134.85C151.74 134.73 151.71 134.49 151.83 134.33L170.93 108.1C170.97 108.04 171.04 107.99 171.11 107.97L172.27 107.55C172.45 107.48 172.65 107.56 172.73 107.73L185.86 133.7C185.95 133.88 185.88 134.11 185.69 134.2C185.51 134.29 185.28 134.22 185.19 134.03L172.21 108.36L171.47 108.62L152.44 134.76C152.36 134.86 152.25 134.92 152.13 134.92Z" fill="#9B9BA0"/>
<path d="M172.45 106.26L172.05 105.96L195.35 75.3101L195.55 75.5701L218.08 105.79L217.68 106.09L195.35 76.1401L172.45 106.26Z" fill="#9B9BA0"/>
<path d="M195.17 78.7402C197.103 78.7402 198.67 77.1732 198.67 75.2402C198.67 73.3072 197.103 71.7402 195.17 71.7402C193.237 71.7402 191.67 73.3072 191.67 75.2402C191.67 77.1732 193.237 78.7402 195.17 78.7402Z" fill="#50E6FF"/>
<path d="M172.05 111.61C173.983 111.61 175.55 110.043 175.55 108.11C175.55 106.177 173.983 104.61 172.05 104.61C170.117 104.61 168.55 106.177 168.55 108.11C168.55 110.043 170.117 111.61 172.05 111.61Z" fill="#50E6FF"/>
<path d="M218.24 111.8C220.173 111.8 221.74 110.233 221.74 108.3C221.74 106.367 220.173 104.8 218.24 104.8C216.307 104.8 214.74 106.367 214.74 108.3C214.74 110.233 216.307 111.8 218.24 111.8Z" fill="#50E6FF"/>
<path d="M239.04 139.16C240.973 139.16 242.54 137.593 242.54 135.66C242.54 133.727 240.973 132.16 239.04 132.16C237.107 132.16 235.54 133.727 235.54 135.66C235.54 137.593 237.107 139.16 239.04 139.16Z" fill="#50E6FF"/>
<path d="M151.65 139.16C153.583 139.16 155.15 137.593 155.15 135.66C155.15 133.727 153.583 132.16 151.65 132.16C149.717 132.16 148.15 133.727 148.15 135.66C148.15 137.593 149.717 139.16 151.65 139.16Z" fill="#50E6FF"/>
<path d="M185.6 139.16C187.533 139.16 189.1 137.593 189.1 135.66C189.1 133.727 187.533 132.16 185.6 132.16C183.667 132.16 182.1 133.727 182.1 135.66C182.1 137.593 183.667 139.16 185.6 139.16Z" fill="#50E6FF"/>
<path d="M206.69 139.16C208.623 139.16 210.19 137.593 210.19 135.66C210.19 133.727 208.623 132.16 206.69 132.16C204.757 132.16 203.19 133.727 203.19 135.66C203.19 137.593 204.757 139.16 206.69 139.16Z" fill="white"/>
<path d="M313.65 93.5201C313.57 93.5201 313.49 93.5001 313.43 93.4501C313.26 93.3301 313.23 93.0901 313.35 92.9301L318.71 85.7401C318.83 85.5701 319.07 85.5401 319.23 85.6601C319.39 85.7801 319.43 86.0201 319.31 86.1801L313.95 93.3701C313.88 93.4701 313.76 93.5201 313.65 93.5201Z" fill="#F4F4F4"/>
<path d="M315.68 93.3703L312.45 94.7603L312.86 91.2603L315.68 93.3703Z" fill="#F4F4F4"/>
<path d="M57.6099 93.6602C57.5299 93.6602 57.4499 93.6402 57.3899 93.5902C57.2199 93.4702 57.1899 93.2302 57.3099 93.0702L62.6699 85.8802C62.7899 85.7102 63.0299 85.6802 63.1899 85.8002C63.3599 85.9202 63.3899 86.1602 63.2699 86.3202L57.9099 93.5102C57.8399 93.6102 57.7199 93.6602 57.6099 93.6602Z" fill="#F4F4F4"/>
<path d="M59.6399 93.5104L56.4099 94.9004L56.8199 91.4004L59.6399 93.5104Z" fill="#F4F4F4"/>
<path d="M37.3899 121.03C37.3099 121.03 37.2299 121.01 37.1699 120.96C36.9999 120.84 36.9699 120.6 37.0899 120.44L42.4499 113.25C42.5699 113.08 42.8099 113.05 42.9699 113.17C43.1399 113.29 43.1699 113.53 43.0499 113.69L37.6899 120.88C37.6199 120.98 37.5099 121.03 37.3899 121.03Z" fill="#F4F4F4"/>
<path d="M39.4199 120.881L36.1899 122.271L36.5999 118.771L39.4199 120.881Z" fill="#F4F4F4"/>
<path d="M325.01 123.53C324.88 123.53 324.74 123.46 324.68 123.33L320.53 115.38C320.43 115.2 320.5 114.97 320.69 114.87C320.87 114.77 321.1 114.84 321.2 115.03L325.35 122.98C325.45 123.16 325.38 123.39 325.19 123.49C325.12 123.52 325.06 123.53 325.01 123.53Z" fill="#F4F4F4"/>
<path d="M322.97 123.05L325.94 124.94L326.09 121.42L322.97 123.05Z" fill="#F4F4F4"/>
<path d="M216.35 94.21C216.24 94.21 216.12 94.16 216.05 94.06L210.69 86.87C210.57 86.7 210.6 86.47 210.77 86.35C210.94 86.23 211.17 86.26 211.29 86.43L216.65 93.62C216.77 93.79 216.74 94.02 216.57 94.14C216.51 94.18 216.43 94.21 216.35 94.21Z" fill="#F4F4F4"/>
<path d="M214.32 94.0602L217.56 95.4502L217.15 91.9502L214.32 94.0602Z" fill="#F4F4F4"/>
<path d="M205.36 124.17C205.31 124.17 205.26 124.16 205.21 124.14C205.02 124.06 204.94 123.83 205.02 123.64L208.67 115.45C208.75 115.26 208.98 115.18 209.17 115.26C209.36 115.34 209.44 115.57 209.36 115.76L205.71 123.95C205.64 124.09 205.5 124.17 205.36 124.17Z" fill="#F4F4F4"/>
<path d="M207.39 123.57L204.54 125.64L204.17 122.13L207.39 123.57Z" fill="#F4F4F4"/>
<path d="M121.28 135.42C121.14 135.42 121 135.34 120.94 135.2L119.75 132.49L101.57 109.05L101.12 108.7L89.72 134.52C89.64 134.71 89.41 134.8 89.23 134.71C89.04 134.63 88.95 134.41 89.04 134.22L100.64 107.95C100.69 107.84 100.78 107.76 100.89 107.74C101 107.71 101.12 107.74 101.21 107.81L102.1 108.52L120.39 132.1L121.62 134.89C121.7 135.08 121.62 135.3 121.43 135.38C121.38 135.41 121.33 135.42 121.28 135.42Z" fill="#9B9BA0"/>
<path d="M34.9299 134.92C34.8499 134.92 34.7799 134.9 34.7099 134.85C34.5399 134.73 34.5099 134.49 34.6299 134.33L53.7299 108.1C53.7699 108.04 53.8399 107.99 53.9099 107.97L55.0699 107.55C55.2499 107.48 55.4499 107.56 55.5299 107.73L68.6599 133.7C68.7499 133.88 68.6799 134.11 68.4899 134.2C68.3099 134.29 68.0799 134.22 67.9899 134.03L54.9999 108.36L54.2599 108.62L35.2299 134.76C35.1599 134.86 35.0399 134.92 34.9299 134.92Z" fill="#9B9BA0"/>
<path d="M55.0499 106.48C54.9699 106.48 54.8899 106.45 54.8199 106.4C54.6499 106.27 54.6199 106.04 54.7499 105.87L77.8499 75.4801C77.9199 75.3901 78.0299 75.3301 78.1499 75.3301C78.2699 75.3301 78.3799 75.3901 78.4499 75.4801L100.97 105.7C101.09 105.87 101.06 106.1 100.89 106.22C100.73 106.34 100.49 106.31 100.37 106.14L78.1499 76.3501L55.3499 106.34C55.2699 106.43 55.1599 106.48 55.0499 106.48Z" fill="#9B9BA0"/>
<path d="M77.96 78.7402C79.893 78.7402 81.46 77.1732 81.46 75.2402C81.46 73.3072 79.893 71.7402 77.96 71.7402C76.027 71.7402 74.46 73.3072 74.46 75.2402C74.46 77.1732 76.027 78.7402 77.96 78.7402Z" fill="#50E6FF"/>
<path d="M54.85 111.61C56.783 111.61 58.35 110.043 58.35 108.11C58.35 106.177 56.783 104.61 54.85 104.61C52.917 104.61 51.35 106.177 51.35 108.11C51.35 110.043 52.917 111.61 54.85 111.61Z" fill="#50E6FF"/>
<path d="M101.04 111.8C102.973 111.8 104.54 110.233 104.54 108.3C104.54 106.367 102.973 104.8 101.04 104.8C99.1069 104.8 97.5399 106.367 97.5399 108.3C97.5399 110.233 99.1069 111.8 101.04 111.8Z" fill="#50E6FF"/>
<path d="M121.84 139.16C123.773 139.16 125.34 137.593 125.34 135.66C125.34 133.727 123.773 132.16 121.84 132.16C119.907 132.16 118.34 133.727 118.34 135.66C118.34 137.593 119.907 139.16 121.84 139.16Z" fill="#50E6FF"/>
<path d="M34.45 139.16C36.3829 139.16 37.95 137.593 37.95 135.66C37.95 133.727 36.3829 132.16 34.45 132.16C32.517 132.16 30.95 133.727 30.95 135.66C30.95 137.593 32.517 139.16 34.45 139.16Z" fill="#50E6FF"/>
<path d="M68.58 139.16C70.513 139.16 72.08 137.593 72.08 135.66C72.08 133.727 70.513 132.16 68.58 132.16C66.647 132.16 65.08 133.727 65.08 135.66C65.08 137.593 66.647 139.16 68.58 139.16Z" fill="#50E6FF"/>
<path d="M89.49 139.16C91.423 139.16 92.99 137.593 92.99 135.66C92.99 133.727 91.423 132.16 89.49 132.16C87.557 132.16 85.99 133.727 85.99 135.66C85.99 137.593 87.557 139.16 89.49 139.16Z" fill="#50E6FF"/>
<path d="M49.46 150.09C49.33 150.09 49.2 150.02 49.13 149.9L44.76 142.07C44.66 141.89 44.72 141.66 44.9 141.56C45.08 141.46 45.31 141.52 45.41 141.7L49.78 149.53C49.88 149.71 49.82 149.94 49.64 150.04C49.59 150.07 49.53 150.09 49.46 150.09Z" fill="#F4F4F4"/>
<path d="M47.42 149.67L50.45 151.47L50.49 147.95L47.42 149.67Z" fill="#F4F4F4"/>
</svg>
