<svg width="406" height="233" viewBox="0 0 406 233" fill="none" xmlns="http://www.w3.org/2000/svg">
<path d="M170.61 45.7402H157.92V58.4302H170.61V45.7402Z" fill="#156AB3"/>
<path d="M123.79 69.8701H111.1V82.5601H123.79V69.8701Z" fill="#156AB3"/>
<path d="M124.26 127.05H111.57V139.74H124.26V127.05Z" fill="#156AB3"/>
<path d="M98.03 104.19H85.34V116.88H98.03V104.19Z" fill="#156AB3"/>
<path d="M162.27 121.02H149.58V133.71H162.27V121.02Z" fill="#156AB3"/>
<path d="M192.3 136.66H179.61V149.35H192.3V136.66Z" fill="#156AB3"/>
<path d="M106.71 171.41H94.02V184.1H106.71V171.41Z" fill="#156AB3"/>
<path d="M135.12 169.7H122.43V182.39H135.12V169.7Z" fill="#156AB3"/>
<path d="M204.83 84.0801H192.14V96.7701H204.83V84.0801Z" fill="#156AB3"/>
<path d="M215.2 50.7304L209.39 62.6004C209.25 62.8904 209.46 63.2404 209.79 63.2404H221.66C221.99 63.2404 222.2 62.8904 222.05 62.6004L215.98 50.7304C215.82 50.4004 215.36 50.4004 215.2 50.7304Z" fill="#50E6FF"/>
<path d="M267.01 57.83L261.2 69.7C261.06 69.99 261.27 70.34 261.6 70.34H273.47C273.8 70.34 274.01 69.99 273.86 69.7L267.79 57.83C267.64 57.5 267.17 57.5 267.01 57.83Z" fill="#50E6FF"/>
<path d="M301.86 50.0405L296.05 61.9105C295.91 62.2005 296.12 62.5505 296.45 62.5505H308.32C308.65 62.5505 308.86 62.2005 308.71 61.9105L302.64 50.0405C302.48 49.7105 302.02 49.7105 301.86 50.0405Z" fill="#50E6FF"/>
<path d="M292.7 82.6103L286.89 94.4803C286.75 94.7703 286.96 95.1203 287.29 95.1203H299.16C299.49 95.1203 299.7 94.7703 299.55 94.4803L293.48 82.6103C293.32 82.2803 292.86 82.2803 292.7 82.6103Z" fill="#50E6FF"/>
<path d="M312.09 101.27L306.28 113.14C306.14 113.43 306.35 113.78 306.68 113.78H318.55C318.88 113.78 319.09 113.43 318.94 113.14L312.87 101.27C312.71 100.93 312.25 100.94 312.09 101.27Z" fill="#50E6FF"/>
<path d="M301.87 135.61L296.06 147.48C295.92 147.77 296.13 148.12 296.46 148.12H308.33C308.66 148.12 308.87 147.77 308.72 147.48L302.65 135.61C302.49 135.28 302.03 135.28 301.87 135.61Z" fill="#50E6FF"/>
<path d="M232.32 126.15L226.51 138.02C226.37 138.31 226.58 138.66 226.91 138.66H238.78C239.11 138.66 239.32 138.31 239.17 138.02L233.1 126.15C232.95 125.82 232.48 125.82 232.32 126.15Z" fill="#50E6FF"/>
<path d="M224.06 149.72L218.25 161.59C218.11 161.88 218.32 162.23 218.65 162.23H230.52C230.85 162.23 231.06 161.88 230.91 161.59L224.84 149.72C224.69 149.39 224.22 149.39 224.06 149.72Z" fill="#50E6FF"/>
<path d="M314.81 184.4L309 196.28C308.86 196.57 309.07 196.92 309.4 196.92H321.27C321.6 196.92 321.81 196.57 321.66 196.28L315.59 184.41C315.43 184.07 314.97 184.08 314.81 184.4Z" fill="#50E6FF"/>
<path d="M208.76 125.47C208.73 125.38 208.7 125.26 208.67 125.12C208.64 124.97 208.63 124.83 208.63 124.69C208.63 124.47 208.67 124.27 208.76 124.09C208.85 123.91 208.96 123.74 209.09 123.59C209.22 123.43 209.37 123.28 209.52 123.14C209.67 123 209.82 122.85 209.95 122.72C210.08 122.58 210.19 122.44 210.28 122.29C210.37 122.14 210.41 121.97 210.41 121.79C210.41 121.63 210.38 121.49 210.31 121.36C210.24 121.24 210.15 121.14 210.04 121.06C209.93 120.98 209.8 120.92 209.65 120.88C209.5 120.84 209.35 120.82 209.18 120.82C208.64 120.82 208.12 121.06 207.64 121.54V120.28C208.23 119.93 208.85 119.76 209.49 119.76C209.78 119.76 210.06 119.8 210.32 119.87C210.58 119.95 210.81 120.06 211.01 120.21C211.21 120.36 211.36 120.54 211.47 120.76C211.58 120.98 211.64 121.24 211.64 121.53C211.64 121.81 211.59 122.06 211.5 122.28C211.41 122.5 211.29 122.7 211.14 122.88C211 123.06 210.84 123.23 210.68 123.37C210.52 123.51 210.36 123.65 210.22 123.79C210.08 123.93 209.96 124.08 209.86 124.23C209.77 124.38 209.72 124.55 209.72 124.74C209.72 124.9 209.74 125.04 209.78 125.16C209.82 125.29 209.86 125.39 209.9 125.48H208.76V125.47ZM209.38 127.77C209.17 127.77 208.99 127.7 208.83 127.56C208.68 127.42 208.6 127.25 208.6 127.05C208.6 126.84 208.68 126.67 208.83 126.54C208.99 126.4 209.17 126.32 209.38 126.32C209.59 126.32 209.77 126.39 209.92 126.54C210.07 126.67 210.15 126.84 210.15 127.05C210.15 127.25 210.07 127.42 209.92 127.56C209.76 127.7 209.58 127.77 209.38 127.77Z" fill="#F4F4F4"/>
<path d="M209.67 147.07C213.149 147.07 215.97 144.25 215.97 140.77C215.97 137.291 213.149 134.47 209.67 134.47C206.191 134.47 203.37 137.291 203.37 140.77C203.37 144.25 206.191 147.07 209.67 147.07Z" fill="#50E6FF"/>
<path d="M209.67 147.56C205.92 147.56 202.87 144.51 202.87 140.76C202.87 137.01 205.92 133.96 209.67 133.96C213.42 133.96 216.47 137.01 216.47 140.76C216.47 144.51 213.41 147.56 209.67 147.56ZM209.67 134.97C206.47 134.97 203.87 137.57 203.87 140.77C203.87 143.97 206.47 146.57 209.67 146.57C212.87 146.57 215.47 143.97 215.47 140.77C215.47 137.57 212.86 134.97 209.67 134.97Z" fill="#156AB3"/>
<path d="M210.96 209.19C210.69 209.19 210.46 208.97 210.46 208.7C210.46 208.42 210.67 208.2 210.95 208.19L211.45 208.18C211.73 208.19 211.96 208.39 211.96 208.67C211.97 208.95 211.75 209.17 211.47 209.18L210.96 209.19ZM207.96 209.18H207.95L207.44 209.17C207.16 209.16 206.95 208.93 206.96 208.65C206.97 208.37 207.22 208.16 207.48 208.17L207.97 208.18C208.25 208.19 208.46 208.42 208.46 208.69C208.45 208.97 208.23 209.18 207.96 209.18ZM214.45 209.04C214.19 209.04 213.97 208.84 213.95 208.58C213.93 208.3 214.14 208.07 214.41 208.05L214.91 208.01C215.16 207.99 215.43 208.19 215.45 208.47C215.47 208.75 215.26 208.99 214.99 209.01L214.49 209.05C214.47 209.04 214.46 209.04 214.45 209.04ZM204.46 209.01C204.45 209.01 204.43 209.01 204.42 209.01L203.92 208.97C203.64 208.95 203.44 208.71 203.46 208.43C203.48 208.15 203.75 207.96 204 207.97L204.5 208.01C204.78 208.03 204.98 208.27 204.96 208.55C204.94 208.81 204.72 209.01 204.46 209.01ZM217.93 208.71C217.68 208.71 217.46 208.52 217.43 208.27C217.4 208 217.59 207.75 217.87 207.72L218.36 207.66C218.62 207.62 218.88 207.82 218.92 208.09C218.96 208.36 218.76 208.61 218.49 208.65L217.99 208.71C217.97 208.71 217.95 208.71 217.93 208.71ZM200.99 208.66C200.97 208.66 200.95 208.66 200.92 208.66L200.42 208.59C200.15 208.55 199.96 208.3 199.99 208.03C200.02 207.76 200.28 207.56 200.55 207.6L201.04 207.66C201.31 207.7 201.51 207.95 201.47 208.22C201.45 208.47 201.23 208.66 200.99 208.66ZM221.39 208.2C221.15 208.2 220.94 208.03 220.9 207.78C220.85 207.51 221.04 207.25 221.31 207.2L221.8 207.11C222.06 207.07 222.33 207.24 222.38 207.51C222.43 207.78 222.25 208.04 221.98 208.09L221.48 208.18C221.45 208.19 221.42 208.2 221.39 208.2ZM197.53 208.12C197.5 208.12 197.47 208.12 197.44 208.11L196.94 208.02C196.67 207.97 196.49 207.71 196.54 207.44C196.59 207.17 196.85 206.99 197.12 207.04L197.61 207.13C197.88 207.18 198.06 207.44 198.01 207.71C197.98 207.95 197.77 208.12 197.53 208.12ZM224.82 207.51C224.59 207.51 224.39 207.35 224.33 207.12C224.27 206.85 224.44 206.58 224.71 206.52L225.19 206.41C225.46 206.34 225.73 206.51 225.79 206.78C225.85 207.05 225.69 207.32 225.42 207.38L224.93 207.49C224.89 207.5 224.85 207.51 224.82 207.51ZM194.1 207.41C194.06 207.41 194.02 207.41 193.99 207.4L193.5 207.28C193.23 207.22 193.07 206.95 193.13 206.68C193.19 206.41 193.46 206.25 193.73 206.31L194.21 206.43C194.48 206.49 194.65 206.76 194.58 207.03C194.54 207.26 194.33 207.41 194.1 207.41ZM228.21 206.65C227.99 206.65 227.79 206.51 227.73 206.28C227.66 206.01 227.81 205.74 228.08 205.66L228.55 205.52C228.82 205.44 229.09 205.6 229.17 205.86C229.25 206.13 229.1 206.4 228.83 206.48L228.34 206.62C228.3 206.64 228.25 206.65 228.21 206.65ZM190.72 206.53C190.67 206.53 190.63 206.52 190.58 206.51L190.1 206.37C189.84 206.29 189.68 206.01 189.77 205.75C189.85 205.49 190.13 205.34 190.39 205.42L190.87 205.56C191.13 205.64 191.29 205.91 191.21 206.18C191.14 206.39 190.94 206.53 190.72 206.53ZM231.55 205.6C231.34 205.6 231.15 205.47 231.08 205.26C230.99 205 231.13 204.72 231.4 204.63L231.87 204.47C232.13 204.38 232.41 204.52 232.51 204.78C232.6 205.04 232.46 205.33 232.2 205.42L231.72 205.58C231.65 205.6 231.6 205.6 231.55 205.6ZM187.39 205.47C187.34 205.47 187.28 205.46 187.23 205.44L186.75 205.27C186.49 205.18 186.36 204.89 186.45 204.63C186.54 204.37 186.83 204.24 187.09 204.33L187.56 204.5C187.82 204.59 187.96 204.88 187.87 205.14C187.79 205.34 187.59 205.47 187.39 205.47ZM234.83 204.39C234.63 204.39 234.44 204.27 234.37 204.07C234.27 203.81 234.39 203.52 234.65 203.42L235.11 203.23C235.36 203.13 235.66 203.25 235.76 203.51C235.86 203.77 235.74 204.06 235.48 204.16L235.01 204.35C234.95 204.38 234.89 204.39 234.83 204.39ZM184.1 204.23C184.04 204.23 183.97 204.22 183.91 204.19L183.44 204C183.19 203.89 183.06 203.6 183.17 203.35C183.28 203.09 183.57 202.97 183.82 203.08L184.28 203.27C184.54 203.37 184.66 203.66 184.56 203.92C184.49 204.11 184.3 204.23 184.1 204.23ZM238.04 203.02C237.85 203.02 237.67 202.91 237.58 202.73C237.47 202.48 237.58 202.18 237.83 202.07L238.28 201.86C238.53 201.74 238.83 201.85 238.95 202.1C239.07 202.35 238.96 202.65 238.71 202.77L238.25 202.98C238.17 203 238.1 203.02 238.04 203.02ZM180.89 202.83C180.82 202.83 180.75 202.81 180.68 202.78L180.22 202.56C179.97 202.44 179.87 202.14 179.99 201.89C180.11 201.64 180.41 201.54 180.66 201.66L181.11 201.87C181.36 201.99 181.47 202.29 181.35 202.54C181.26 202.72 181.08 202.83 180.89 202.83ZM241.17 201.48C240.99 201.48 240.81 201.38 240.73 201.21C240.6 200.96 240.7 200.66 240.94 200.54L241.37 200.31C241.61 200.18 241.92 200.27 242.05 200.52C242.18 200.76 242.09 201.07 241.84 201.2L241.39 201.44C241.32 201.46 241.25 201.48 241.17 201.48ZM177.76 201.26C177.68 201.26 177.6 201.24 177.53 201.2L177.08 200.96C176.84 200.83 176.75 200.52 176.88 200.28C177.01 200.04 177.32 199.95 177.56 200.08L178 200.31C178.24 200.44 178.34 200.74 178.21 200.99C178.11 201.16 177.94 201.26 177.76 201.26ZM244.22 199.78C244.05 199.78 243.88 199.69 243.79 199.53C243.65 199.29 243.73 198.99 243.97 198.85L244.39 198.6C244.63 198.46 244.93 198.53 245.08 198.77C245.22 199.01 245.15 199.31 244.91 199.46L244.48 199.72C244.39 199.75 244.3 199.78 244.22 199.78ZM174.71 199.53C174.62 199.53 174.53 199.51 174.45 199.46L174.02 199.2C173.78 199.06 173.71 198.75 173.85 198.51C173.99 198.27 174.3 198.2 174.54 198.34L174.96 198.6C175.2 198.74 175.27 199.05 175.13 199.29C175.04 199.45 174.88 199.53 174.71 199.53ZM247.18 197.92C247.02 197.92 246.86 197.84 246.76 197.7C246.61 197.47 246.67 197.16 246.9 197.01L247.31 196.74C247.54 196.59 247.85 196.65 248 196.88C248.15 197.11 248.09 197.42 247.86 197.57L247.44 197.85C247.37 197.89 247.27 197.92 247.18 197.92ZM171.76 197.65C171.66 197.65 171.57 197.62 171.48 197.57L171.06 197.28C170.83 197.12 170.77 196.81 170.93 196.58C171.09 196.35 171.4 196.3 171.63 196.45L172.04 196.73C172.27 196.88 172.33 197.19 172.18 197.42C172.08 197.57 171.92 197.65 171.76 197.65ZM250.04 195.92C249.89 195.92 249.74 195.85 249.64 195.72C249.47 195.5 249.52 195.19 249.74 195.02L250.14 194.72C250.36 194.55 250.67 194.6 250.84 194.82C251.01 195.04 250.96 195.35 250.74 195.52L250.34 195.82C250.25 195.88 250.14 195.92 250.04 195.92ZM168.91 195.62C168.8 195.62 168.7 195.59 168.61 195.52L168.21 195.22C167.99 195.05 167.95 194.74 168.11 194.52C168.28 194.3 168.59 194.26 168.81 194.42L169.21 194.72C169.43 194.89 169.47 195.2 169.31 195.42C169.21 195.55 169.06 195.62 168.91 195.62ZM252.79 193.77C252.65 193.77 252.5 193.71 252.41 193.59C252.23 193.38 252.26 193.06 252.48 192.89L252.86 192.57C253.07 192.4 253.39 192.42 253.56 192.64C253.74 192.85 253.71 193.17 253.49 193.34L253.11 193.66C253.02 193.73 252.91 193.77 252.79 193.77ZM166.16 193.45C166.05 193.45 165.93 193.41 165.84 193.33L165.45 193.01C165.24 192.83 165.21 192.52 165.39 192.3C165.57 192.09 165.89 192.06 166.1 192.24L166.48 192.56C166.69 192.74 166.72 193.05 166.55 193.26C166.45 193.39 166.31 193.45 166.16 193.45ZM255.43 191.48C255.3 191.48 255.16 191.43 255.06 191.32C254.87 191.12 254.89 190.8 255.09 190.61L255.46 190.27C255.66 190.08 255.98 190.09 256.17 190.3C256.36 190.5 256.35 190.82 256.14 191.01L255.77 191.35C255.68 191.43 255.56 191.48 255.43 191.48ZM163.53 191.14C163.41 191.14 163.29 191.1 163.19 191.01L162.82 190.67C162.62 190.48 162.61 190.17 162.8 189.96C162.99 189.76 163.3 189.75 163.51 189.94L163.87 190.28C164.07 190.47 164.08 190.78 163.9 190.99C163.8 191.09 163.67 191.14 163.53 191.14ZM257.96 189.05C257.83 189.05 257.71 189 257.61 188.91C257.41 188.72 257.41 188.4 257.6 188.21L257.95 187.85C258.15 187.65 258.46 187.65 258.66 187.84C258.86 188.03 258.86 188.35 258.67 188.55L258.32 188.9C258.22 189 258.09 189.05 257.96 189.05ZM161.03 188.7C160.9 188.7 160.77 188.65 160.67 188.55L160.32 188.19C160.13 187.99 160.13 187.68 160.33 187.48C160.53 187.29 160.85 187.29 161.04 187.49L161.39 187.85C161.58 188.05 161.58 188.36 161.38 188.56C161.28 188.65 161.16 188.7 161.03 188.7ZM260.35 186.51C260.23 186.51 260.11 186.47 260.02 186.38C259.81 186.2 259.8 185.88 259.98 185.67L260.31 185.3C260.49 185.09 260.81 185.07 261.02 185.26C261.23 185.44 261.25 185.76 261.06 185.97L260.73 186.35C260.63 186.45 260.49 186.51 260.35 186.51ZM158.65 186.13C158.51 186.13 158.37 186.07 158.27 185.96L157.94 185.58C157.76 185.37 157.78 185.06 157.99 184.87C158.2 184.69 158.51 184.71 158.7 184.92L159.03 185.29C159.21 185.5 159.19 185.81 158.99 186C158.89 186.09 158.77 186.13 158.65 186.13ZM262.62 183.84C262.51 183.84 262.4 183.8 262.31 183.73C262.09 183.56 262.06 183.24 262.23 183.03L262.54 182.64C262.71 182.42 263.03 182.39 263.24 182.56C263.46 182.73 263.49 183.05 263.32 183.26L263.01 183.65C262.91 183.77 262.76 183.84 262.62 183.84ZM156.41 183.45C156.26 183.45 156.12 183.39 156.02 183.26L155.71 182.87C155.54 182.65 155.58 182.34 155.79 182.17C156.01 182 156.32 182.04 156.49 182.25L156.8 182.64C156.97 182.86 156.94 183.17 156.72 183.34C156.63 183.42 156.52 183.45 156.41 183.45ZM264.74 181.06C264.64 181.06 264.54 181.03 264.45 180.97C264.23 180.81 264.17 180.5 264.33 180.27L264.62 179.86C264.78 179.64 265.09 179.58 265.32 179.74C265.54 179.9 265.6 180.21 265.44 180.44L265.15 180.85C265.05 180.99 264.9 181.06 264.74 181.06ZM154.31 180.66C154.15 180.66 154 180.59 153.9 180.45L153.61 180.04C153.45 179.81 153.5 179.5 153.73 179.34C153.96 179.18 154.27 179.23 154.43 179.46L154.72 179.87C154.88 180.09 154.83 180.41 154.6 180.57C154.51 180.63 154.41 180.66 154.31 180.66ZM266.72 178.17C266.63 178.17 266.53 178.14 266.45 178.09C266.22 177.94 266.16 177.63 266.31 177.4L266.58 176.98C266.73 176.75 267.04 176.68 267.27 176.83C267.5 176.98 267.57 177.29 267.42 177.52L267.15 177.95C267.04 178.09 266.88 178.17 266.72 178.17ZM152.36 177.76C152.2 177.76 152.03 177.68 151.94 177.53L151.67 177.1C151.52 176.87 151.59 176.56 151.83 176.41C152.06 176.26 152.37 176.33 152.52 176.57L152.78 176.99C152.93 177.22 152.86 177.53 152.63 177.68C152.54 177.74 152.45 177.76 152.36 177.76ZM268.55 175.18C268.46 175.18 268.38 175.16 268.3 175.11C268.06 174.97 267.98 174.66 268.12 174.43L268.37 174C268.51 173.76 268.81 173.67 269.05 173.81C269.29 173.95 269.38 174.25 269.24 174.49L268.99 174.93C268.89 175.09 268.72 175.18 268.55 175.18ZM150.55 174.77C150.38 174.77 150.21 174.68 150.12 174.52L149.87 174.08C149.74 173.84 149.82 173.53 150.06 173.4C150.3 173.27 150.61 173.35 150.74 173.59L150.98 174.02C151.12 174.26 151.03 174.57 150.79 174.7C150.72 174.75 150.64 174.77 150.55 174.77ZM270.22 172.1C270.14 172.1 270.06 172.08 269.99 172.05C269.74 171.92 269.65 171.62 269.77 171.38L270 170.94C270.12 170.69 270.42 170.59 270.67 170.72C270.92 170.84 271.02 171.14 270.89 171.39L270.66 171.84C270.58 172.01 270.4 172.1 270.22 172.1ZM148.91 171.69C148.73 171.69 148.55 171.59 148.46 171.41L148.24 170.96C148.12 170.71 148.22 170.41 148.47 170.29C148.71 170.17 149.02 170.27 149.14 170.52L149.36 170.96C149.48 171.21 149.38 171.51 149.14 171.63C149.06 171.68 148.98 171.69 148.91 171.69ZM271.73 168.94C271.66 168.94 271.59 168.93 271.52 168.9C271.27 168.79 271.16 168.49 271.27 168.24L271.47 167.79C271.58 167.54 271.88 167.43 272.13 167.53C272.38 167.64 272.5 167.94 272.39 168.19L272.18 168.65C272.1 168.83 271.92 168.94 271.73 168.94ZM147.42 168.54C147.23 168.54 147.04 168.43 146.96 168.24L146.76 167.78C146.65 167.53 146.77 167.23 147.02 167.12C147.27 167.01 147.57 167.13 147.68 167.38L147.88 167.83C147.99 168.08 147.88 168.38 147.62 168.49C147.56 168.52 147.49 168.54 147.42 168.54ZM273.08 165.71C273.02 165.71 272.96 165.7 272.9 165.68C272.64 165.58 272.51 165.29 272.61 165.03L272.79 164.57C272.89 164.31 273.18 164.18 273.43 164.28C273.69 164.38 273.82 164.66 273.72 164.92L273.54 165.39C273.47 165.58 273.28 165.71 273.08 165.71ZM146.11 165.31C145.91 165.31 145.72 165.19 145.64 164.99L145.46 164.52C145.36 164.26 145.5 163.97 145.76 163.88C146.02 163.78 146.31 163.92 146.4 164.18L146.57 164.64C146.67 164.9 146.54 165.19 146.28 165.28C146.22 165.3 146.16 165.31 146.11 165.31ZM274.25 162.4C274.2 162.4 274.15 162.39 274.1 162.38C273.84 162.29 273.69 162.01 273.78 161.75L273.93 161.27C274.01 161.01 274.29 160.86 274.56 160.95C274.82 161.03 274.97 161.32 274.88 161.58L274.72 162.06C274.66 162.27 274.46 162.4 274.25 162.4ZM144.95 162C144.74 162 144.54 161.87 144.47 161.65L144.32 161.17C144.24 160.91 144.38 160.63 144.65 160.54C144.92 160.46 145.19 160.61 145.28 160.87L145.43 161.34C145.51 161.6 145.37 161.88 145.11 161.97C145.06 162 145 162 144.95 162ZM275.25 159.05C275.21 159.05 275.16 159.04 275.12 159.03C274.85 158.96 274.7 158.68 274.77 158.42L274.9 157.94C274.97 157.67 275.24 157.51 275.51 157.58C275.78 157.65 275.94 157.92 275.87 158.19L275.74 158.68C275.68 158.9 275.47 159.05 275.25 159.05ZM143.97 158.65C143.75 158.65 143.55 158.5 143.49 158.28L143.36 157.79C143.29 157.52 143.45 157.25 143.72 157.18C144 157.11 144.26 157.27 144.33 157.54L144.45 158.02C144.52 158.29 144.36 158.56 144.1 158.63C144.06 158.64 144.02 158.65 143.97 158.65ZM276.08 155.65C276.04 155.65 276.01 155.65 275.97 155.64C275.7 155.58 275.53 155.32 275.59 155.05L275.69 154.57C275.75 154.3 276.02 154.12 276.28 154.18C276.55 154.24 276.72 154.5 276.67 154.77L276.57 155.26C276.52 155.49 276.31 155.65 276.08 155.65ZM143.17 155.24C142.94 155.24 142.73 155.08 142.68 154.84L142.58 154.35C142.53 154.08 142.7 153.81 142.97 153.76C143.24 153.71 143.51 153.88 143.56 154.15L143.66 154.64C143.72 154.91 143.54 155.18 143.27 155.23C143.24 155.24 143.2 155.24 143.17 155.24ZM276.73 152.21C276.7 152.21 276.68 152.21 276.65 152.2C276.38 152.16 276.19 151.9 276.23 151.63L276.31 151.14C276.35 150.87 276.61 150.69 276.88 150.72C277.15 150.76 277.34 151.02 277.3 151.29L277.22 151.79C277.18 152.04 276.97 152.21 276.73 152.21ZM142.54 151.8C142.3 151.8 142.08 151.62 142.05 151.38L141.97 150.88C141.93 150.61 142.12 150.35 142.39 150.31C142.66 150.26 142.92 150.46 142.96 150.73L143.04 151.22C143.08 151.49 142.9 151.75 142.62 151.79C142.59 151.8 142.57 151.8 142.54 151.8ZM277.2 148.75C277.18 148.75 277.16 148.75 277.14 148.75C276.87 148.72 276.67 148.47 276.7 148.2L276.75 147.71C276.78 147.43 277.03 147.23 277.3 147.26C277.57 147.29 277.78 147.53 277.75 147.81L277.7 148.31C277.67 148.56 277.45 148.75 277.2 148.75ZM142.09 148.33C141.84 148.33 141.62 148.14 141.59 147.88L141.54 147.38C141.51 147.1 141.72 146.86 141.99 146.84C142.26 146.82 142.51 147.02 142.53 147.29L142.58 147.78C142.61 148.05 142.41 148.3 142.14 148.33C142.13 148.33 142.11 148.33 142.09 148.33ZM277.49 145.26C277.48 145.26 277.47 145.26 277.46 145.26C277.18 145.24 276.97 145.01 276.99 144.73L277.02 144.23C277.03 143.95 277.27 143.74 277.55 143.76C277.83 143.77 278.04 144.01 278.02 144.29L277.99 144.79C277.97 145.06 277.75 145.26 277.49 145.26ZM141.82 144.85C141.56 144.85 141.33 144.64 141.32 144.38L141.3 143.88C141.29 143.6 141.5 143.37 141.78 143.36C142.04 143.34 142.29 143.56 142.3 143.84L142.32 144.34C142.33 144.62 142.12 144.85 141.85 144.87C141.84 144.85 141.83 144.85 141.82 144.85ZM277.6 141.77C277.32 141.77 277.1 141.54 277.1 141.27V140.61C277.1 140.33 277.32 140.11 277.6 140.11C277.88 140.11 278.1 140.33 278.1 140.61V141.28C278.1 141.55 277.88 141.77 277.6 141.77ZM141.73 141.31C141.45 141.31 141.23 141.13 141.23 140.85V140.35C141.23 140.08 141.46 139.85 141.73 139.85C142.01 139.85 142.23 140.08 142.23 140.35V140.76C142.23 141.04 142.01 141.31 141.73 141.31ZM277.53 138.1C277.26 138.1 277.04 137.89 277.03 137.62L277.01 137.12C277 136.84 277.21 136.61 277.48 136.59C277.76 136.56 277.99 136.79 278.01 137.06L278.03 137.56C278.04 137.84 277.83 138.07 277.55 138.08C277.55 138.1 277.54 138.1 277.53 138.1ZM141.81 137.85C141.8 137.85 141.79 137.85 141.79 137.85C141.51 137.84 141.3 137.6 141.31 137.33L141.34 136.82C141.36 136.54 141.59 136.31 141.87 136.35C142.15 136.37 142.36 136.6 142.34 136.88L142.31 137.37C142.3 137.65 142.08 137.85 141.81 137.85ZM277.28 134.62C277.03 134.62 276.81 134.43 276.78 134.17L276.73 133.68C276.7 133.41 276.9 133.16 277.17 133.13C277.44 133.09 277.69 133.3 277.72 133.57L277.77 134.07C277.8 134.35 277.59 134.59 277.32 134.61C277.32 134.62 277.3 134.62 277.28 134.62ZM142.08 134.37C142.06 134.37 142.05 134.37 142.03 134.37C141.76 134.34 141.55 134.1 141.58 133.82L141.63 133.32C141.66 133.04 141.92 132.84 142.18 132.88C142.45 132.91 142.65 133.16 142.62 133.43L142.57 133.92C142.55 134.17 142.33 134.37 142.08 134.37ZM276.85 131.15C276.61 131.15 276.39 130.97 276.36 130.72L276.28 130.23C276.24 129.96 276.42 129.7 276.7 129.66C276.97 129.62 277.23 129.8 277.27 130.08L277.35 130.58C277.39 130.85 277.2 131.11 276.93 131.15C276.9 131.14 276.88 131.15 276.85 131.15ZM142.52 130.9C142.49 130.9 142.47 130.9 142.44 130.89C142.17 130.85 141.98 130.59 142.02 130.32L142.1 129.82C142.14 129.55 142.4 129.36 142.68 129.41C142.95 129.46 143.14 129.71 143.09 129.99L143.01 130.48C142.97 130.72 142.76 130.9 142.52 130.9ZM276.25 127.7C276.02 127.7 275.81 127.53 275.76 127.3L275.66 126.82C275.6 126.55 275.78 126.28 276.05 126.23C276.32 126.17 276.59 126.35 276.64 126.62L276.74 127.12C276.79 127.39 276.62 127.65 276.35 127.71C276.31 127.7 276.28 127.7 276.25 127.7ZM143.14 127.45C143.11 127.45 143.07 127.45 143.04 127.44C142.77 127.38 142.6 127.12 142.65 126.85L142.75 126.36C142.81 126.09 143.07 125.92 143.34 125.98C143.61 126.04 143.78 126.3 143.72 126.57L143.62 127.05C143.58 127.29 143.37 127.45 143.14 127.45ZM275.47 124.29C275.25 124.29 275.04 124.14 274.99 123.91L274.87 123.43C274.8 123.16 274.96 122.89 275.22 122.82C275.49 122.75 275.76 122.91 275.83 123.17L275.96 123.66C276.03 123.93 275.87 124.2 275.6 124.27C275.55 124.29 275.51 124.29 275.47 124.29ZM143.93 124.05C143.89 124.05 143.85 124.05 143.8 124.03C143.53 123.96 143.37 123.69 143.44 123.42L143.57 122.93C143.64 122.66 143.92 122.51 144.18 122.58C144.45 122.65 144.6 122.93 144.53 123.19L144.4 123.67C144.36 123.9 144.15 124.05 143.93 124.05ZM274.51 120.93C274.3 120.93 274.1 120.79 274.03 120.58L273.88 120.11C273.8 119.85 273.94 119.57 274.2 119.48C274.46 119.4 274.74 119.54 274.83 119.8L274.98 120.28C275.06 120.54 274.92 120.82 274.65 120.91C274.61 120.92 274.56 120.93 274.51 120.93ZM144.9 120.69C144.85 120.69 144.8 120.68 144.75 120.67C144.49 120.59 144.34 120.3 144.43 120.04L144.59 119.56C144.68 119.3 144.96 119.15 145.22 119.24C145.48 119.33 145.62 119.61 145.54 119.87L145.39 120.34C145.31 120.55 145.11 120.69 144.9 120.69ZM273.38 117.62C273.18 117.62 272.99 117.5 272.91 117.29L272.74 116.83C272.64 116.57 272.77 116.28 273.03 116.18C273.29 116.08 273.58 116.21 273.68 116.47L273.86 116.94C273.96 117.2 273.82 117.49 273.56 117.58C273.49 117.61 273.43 117.62 273.38 117.62ZM146.05 117.38C145.99 117.38 145.93 117.37 145.87 117.35C145.61 117.25 145.48 116.97 145.58 116.71L145.76 116.24C145.86 115.98 146.15 115.85 146.41 115.95C146.67 116.05 146.8 116.34 146.7 116.6L146.52 117.06C146.44 117.25 146.25 117.38 146.05 117.38ZM272.08 114.38C271.89 114.38 271.7 114.27 271.62 114.08L271.42 113.63C271.31 113.38 271.42 113.08 271.68 112.97C271.93 112.86 272.23 112.97 272.34 113.23L272.54 113.69C272.65 113.94 272.53 114.24 272.28 114.35C272.21 114.37 272.14 114.38 272.08 114.38ZM147.37 114.13C147.3 114.13 147.24 114.12 147.17 114.09C146.92 113.98 146.8 113.69 146.91 113.43L147.12 112.96C147.23 112.71 147.53 112.59 147.78 112.71C148.03 112.82 148.14 113.12 148.03 113.37L147.83 113.82C147.75 114.01 147.56 114.13 147.37 114.13ZM270.61 111.21C270.43 111.21 270.25 111.11 270.16 110.93L269.94 110.49C269.82 110.24 269.92 109.94 270.16 109.82C270.4 109.7 270.71 109.8 270.83 110.04L271.05 110.49C271.17 110.74 271.07 111.04 270.82 111.16C270.76 111.2 270.69 111.21 270.61 111.21ZM148.85 110.95C148.77 110.95 148.7 110.93 148.63 110.9C148.38 110.78 148.28 110.48 148.4 110.23L148.63 109.78C148.76 109.53 149.06 109.44 149.3 109.56C149.55 109.69 149.64 109.99 149.52 110.23L149.3 110.67C149.21 110.85 149.04 110.95 148.85 110.95ZM268.99 108.12C268.82 108.12 268.65 108.03 268.55 107.86L268.31 107.43C268.17 107.19 268.26 106.88 268.5 106.75C268.74 106.61 269.04 106.7 269.18 106.94L269.43 107.38C269.56 107.62 269.48 107.92 269.24 108.06C269.15 108.1 269.07 108.12 268.99 108.12ZM150.5 107.86C150.42 107.86 150.33 107.84 150.25 107.8C150.01 107.66 149.92 107.36 150.06 107.12L150.31 106.68C150.45 106.44 150.76 106.36 150.99 106.5C151.23 106.64 151.31 106.95 151.17 107.18L150.92 107.61C150.84 107.77 150.67 107.86 150.5 107.86ZM267.2 105.12C267.03 105.12 266.87 105.04 266.78 104.88L266.52 104.46C266.37 104.23 266.44 103.92 266.67 103.77C266.9 103.62 267.21 103.69 267.36 103.92L267.63 104.35C267.78 104.58 267.71 104.89 267.47 105.04C267.38 105.1 267.29 105.12 267.2 105.12ZM152.3 104.86C152.21 104.86 152.11 104.83 152.03 104.78C151.8 104.63 151.73 104.32 151.88 104.09L152.15 103.67C152.3 103.44 152.61 103.37 152.84 103.52C153.07 103.67 153.14 103.98 152.99 104.21L152.72 104.63C152.63 104.78 152.47 104.86 152.3 104.86ZM265.27 102.22C265.11 102.22 264.96 102.15 264.86 102.01L264.57 101.6C264.41 101.38 264.46 101.06 264.69 100.9C264.91 100.74 265.23 100.79 265.39 101.02L265.68 101.43C265.84 101.66 265.79 101.97 265.56 102.13C265.47 102.19 265.37 102.22 265.27 102.22ZM154.26 101.95C154.16 101.95 154.06 101.92 153.97 101.86C153.75 101.7 153.69 101.39 153.85 101.16L154.14 100.75C154.3 100.52 154.62 100.47 154.84 100.64C155.06 100.8 155.12 101.11 154.95 101.34L154.66 101.75C154.57 101.88 154.41 101.95 154.26 101.95ZM263.18 99.4101C263.03 99.4101 262.89 99.3401 262.79 99.2201L262.48 98.8301C262.31 98.6101 262.34 98.3001 262.56 98.1301C262.78 97.9601 263.09 97.9901 263.26 98.2101L263.57 98.6001C263.74 98.8201 263.7 99.1301 263.49 99.3001C263.4 99.3701 263.29 99.4101 263.18 99.4101ZM156.36 99.1501C156.25 99.1501 156.14 99.1101 156.05 99.0401C155.83 98.8701 155.8 98.5501 155.97 98.3401L156.28 97.9501C156.45 97.7301 156.77 97.7001 156.98 97.8701C157.2 98.0401 157.23 98.3601 157.06 98.5701L156.75 98.9601C156.65 99.0901 156.5 99.1501 156.36 99.1501ZM260.96 96.7101C260.82 96.7101 260.68 96.6501 260.58 96.5401L260.25 96.1701C260.07 95.9601 260.09 95.6501 260.29 95.4601C260.5 95.2801 260.81 95.3001 261 95.5001L261.33 95.8801C261.51 96.0901 261.49 96.4001 261.28 96.5901C261.19 96.6701 261.07 96.7101 260.96 96.7101ZM158.6 96.4601C158.48 96.4601 158.36 96.4201 158.27 96.3401C158.06 96.1601 158.04 95.8401 158.23 95.6301L158.56 95.2501C158.74 95.0401 159.06 95.0201 159.27 95.2101C159.48 95.3901 159.5 95.7101 159.31 95.9201L158.98 96.3001C158.87 96.4101 158.74 96.4601 158.6 96.4601ZM258.6 94.1401C258.47 94.1401 258.34 94.0901 258.24 93.9901L257.89 93.6301C257.7 93.4301 257.7 93.1201 257.9 92.9201C258.1 92.7301 258.41 92.7301 258.61 92.9301L258.96 93.2901C259.15 93.4901 259.15 93.8001 258.95 94.0001C258.85 94.0901 258.72 94.1401 258.6 94.1401ZM160.97 93.8901C160.84 93.8901 160.72 93.8401 160.62 93.7501C160.42 93.5601 160.42 93.2401 160.61 93.0401L160.96 92.6801C161.15 92.4801 161.47 92.4801 161.67 92.6701C161.87 92.8601 161.87 93.1801 161.68 93.3801L161.33 93.7401C161.23 93.8401 161.1 93.8901 160.97 93.8901ZM256.11 91.6801C255.99 91.6801 255.87 91.6401 255.77 91.5501L255.4 91.2101C255.2 91.0201 255.19 90.7101 255.37 90.5001C255.56 90.3001 255.88 90.2901 256.08 90.4701L256.45 90.8101C256.65 91.0001 256.66 91.3101 256.48 91.5201C256.37 91.6301 256.24 91.6801 256.11 91.6801ZM163.47 91.4501C163.34 91.4501 163.2 91.4001 163.1 91.2901C162.91 91.0901 162.92 90.7701 163.13 90.5801L163.47 90.2601C163.67 90.0701 164 90.0701 164.19 90.2801C164.38 90.4801 164.38 90.7901 164.17 90.9701L163.8 91.3101C163.72 91.4101 163.6 91.4501 163.47 91.4501ZM253.49 89.3501C253.38 89.3501 253.26 89.3101 253.17 89.2301L252.79 88.9101C252.58 88.7301 252.55 88.4201 252.72 88.2101C252.9 88.0001 253.21 87.9701 253.42 88.1401L253.81 88.4601C254.02 88.6401 254.05 88.9501 253.87 89.1701C253.78 89.2901 253.63 89.3501 253.49 89.3501ZM166.1 89.1401C165.96 89.1401 165.81 89.0801 165.72 88.9601C165.54 88.7501 165.57 88.4301 165.79 88.2601L166.17 87.9401C166.38 87.7701 166.7 87.7901 166.87 88.0101C167.05 88.2201 167.02 88.5401 166.8 88.7101L166.42 89.0301C166.32 89.1001 166.21 89.1401 166.1 89.1401ZM250.76 87.1601C250.65 87.1601 250.55 87.1301 250.46 87.0601L250.06 86.7601C249.84 86.5901 249.79 86.2801 249.96 86.0601C250.13 85.8401 250.44 85.7901 250.66 85.9601L251.06 86.2601C251.28 86.4301 251.32 86.7401 251.16 86.9601C251.06 87.1001 250.91 87.1601 250.76 87.1601ZM168.83 86.9701C168.68 86.9701 168.53 86.9001 168.43 86.7701C168.26 86.5501 168.31 86.2401 168.53 86.0701L168.93 85.7701C169.15 85.6101 169.46 85.6501 169.63 85.8701C169.8 86.0901 169.75 86.4101 169.53 86.5701L169.13 86.8701C169.04 86.9301 168.94 86.9701 168.83 86.9701ZM247.92 85.1201C247.82 85.1201 247.72 85.0901 247.64 85.0301L247.23 84.7501C247 84.6001 246.94 84.2901 247.09 84.0601C247.24 83.8301 247.55 83.7701 247.78 83.9201L248.2 84.2101C248.43 84.3701 248.49 84.6801 248.33 84.9101C248.24 85.0401 248.08 85.1201 247.92 85.1201ZM171.68 84.9401C171.52 84.9401 171.36 84.8601 171.26 84.7201C171.11 84.4901 171.17 84.1801 171.4 84.0301L171.82 83.7501C172.05 83.6001 172.36 83.6601 172.51 83.8901C172.66 84.1201 172.6 84.4301 172.37 84.5801L171.96 84.8601C171.87 84.9101 171.77 84.9401 171.68 84.9401ZM244.98 83.2201C244.89 83.2201 244.8 83.2001 244.72 83.1501L244.3 82.8901C244.06 82.7501 243.99 82.4401 244.13 82.2001C244.27 81.9601 244.58 81.8801 244.82 82.0301L245.25 82.2901C245.48 82.4401 245.56 82.7401 245.41 82.9801C245.31 83.1301 245.15 83.2201 244.98 83.2201ZM174.62 83.0601C174.45 83.0601 174.29 82.9701 174.19 82.8201C174.05 82.5801 174.12 82.2801 174.36 82.1301L174.79 81.8701C175.02 81.7301 175.33 81.8101 175.48 82.0401C175.62 82.2801 175.54 82.5801 175.31 82.7301L174.88 82.9801C174.8 83.0301 174.71 83.0601 174.62 83.0601ZM241.95 81.4701C241.87 81.4701 241.79 81.4501 241.71 81.4101L241.27 81.1801C241.03 81.0501 240.93 80.7501 241.06 80.5001C241.19 80.2601 241.49 80.1601 241.74 80.2901L242.19 80.5301C242.43 80.6601 242.52 80.9701 242.39 81.2101C242.29 81.3801 242.12 81.4701 241.95 81.4701ZM177.66 81.3301C177.48 81.3301 177.31 81.2301 177.22 81.0701C177.09 80.8301 177.18 80.5201 177.43 80.3901L177.87 80.1501C178.11 80.0201 178.42 80.1201 178.54 80.3601C178.67 80.6001 178.57 80.9101 178.33 81.0301L177.89 81.2601C177.82 81.3101 177.74 81.3301 177.66 81.3301ZM238.82 79.8901C238.75 79.8901 238.67 79.8701 238.6 79.8401L238.15 79.6301C237.9 79.5101 237.79 79.2201 237.91 78.9701C238.03 78.7201 238.32 78.6101 238.57 78.7301L239.03 78.9501C239.28 79.0701 239.38 79.3701 239.26 79.6201C239.19 79.7801 239.01 79.8901 238.82 79.8901ZM180.77 79.7601C180.58 79.7601 180.4 79.6501 180.32 79.4701C180.2 79.2201 180.31 78.9201 180.56 78.8001L181.01 78.5901C181.26 78.4701 181.56 78.5801 181.67 78.8401C181.79 79.0901 181.68 79.3901 181.42 79.5001L180.97 79.7101C180.92 79.7501 180.85 79.7601 180.77 79.7601ZM235.62 78.4601C235.56 78.4601 235.49 78.4501 235.43 78.4201L234.97 78.2301C234.71 78.1301 234.59 77.8401 234.69 77.5801C234.79 77.3201 235.09 77.2001 235.34 77.3001L235.81 77.4901C236.06 77.6001 236.19 77.8901 236.08 78.1401C236 78.3501 235.81 78.4601 235.62 78.4601ZM183.97 78.3601C183.77 78.3601 183.59 78.2401 183.51 78.0501C183.4 77.7901 183.53 77.5001 183.78 77.4001L184.25 77.2101C184.51 77.1101 184.8 77.2301 184.9 77.4901C185 77.7501 184.88 78.0401 184.62 78.1401L184.16 78.3201C184.1 78.3501 184.03 78.3601 183.97 78.3601ZM232.35 77.2101C232.29 77.2101 232.24 77.2001 232.18 77.1801L231.71 77.0101C231.45 76.9201 231.31 76.6301 231.4 76.3701C231.49 76.1101 231.78 75.9701 232.04 76.0601L232.52 76.2301C232.78 76.3201 232.92 76.6101 232.82 76.8701C232.74 77.0801 232.55 77.2101 232.35 77.2101ZM187.24 77.1201C187.03 77.1201 186.84 76.9901 186.77 76.7801C186.68 76.5201 186.82 76.2301 187.08 76.1401L187.56 75.9801C187.82 75.8901 188.1 76.0301 188.19 76.2901C188.28 76.5501 188.14 76.8401 187.88 76.9201L187.41 77.0801C187.35 77.1101 187.29 77.1201 187.24 77.1201ZM229.02 76.1201C228.97 76.1201 228.92 76.1101 228.88 76.1001L228.41 75.9601C228.14 75.8801 227.99 75.6101 228.07 75.3401C228.15 75.0701 228.42 74.9201 228.69 75.0001L229.18 75.1401C229.44 75.2201 229.6 75.5001 229.51 75.7601C229.43 75.9901 229.23 76.1201 229.02 76.1201ZM190.57 76.0501C190.35 76.0501 190.15 75.9101 190.09 75.6901C190.01 75.4201 190.16 75.1501 190.43 75.0701L190.91 74.9301C191.18 74.8501 191.45 75.0101 191.53 75.2701C191.61 75.5401 191.45 75.8101 191.19 75.8901L190.71 76.0301C190.66 76.0401 190.62 76.0501 190.57 76.0501ZM225.64 75.2201C225.6 75.2201 225.56 75.2201 225.52 75.2101L225.04 75.0901C224.77 75.0301 224.6 74.7601 224.67 74.4901C224.73 74.2201 225 74.0501 225.27 74.1201L225.76 74.2401C226.03 74.3001 226.19 74.5701 226.13 74.8401C226.07 75.0701 225.87 75.2201 225.64 75.2201ZM193.95 75.1601C193.72 75.1601 193.52 75.0001 193.46 74.7701C193.4 74.5001 193.56 74.2301 193.83 74.1701L194.32 74.0601C194.59 73.9901 194.86 74.1701 194.92 74.4401C194.98 74.7101 194.81 74.9801 194.54 75.0401L194.06 75.1501C194.03 75.1501 193.99 75.1601 193.95 75.1601ZM222.22 74.4901C222.19 74.4901 222.16 74.4901 222.13 74.4801L221.64 74.3901C221.37 74.3401 221.19 74.0801 221.24 73.8101C221.29 73.5401 221.56 73.3601 221.82 73.4101L222.31 73.5001C222.58 73.5501 222.76 73.8101 222.71 74.0801C222.66 74.3201 222.45 74.4901 222.22 74.4901ZM197.37 74.4401C197.13 74.4401 196.92 74.2701 196.88 74.0301C196.83 73.7601 197.01 73.5001 197.28 73.4501L197.78 73.3601C198.05 73.3101 198.31 73.5001 198.36 73.7701C198.41 74.0401 198.22 74.3001 197.95 74.3501L197.46 74.4401C197.43 74.4401 197.4 74.4401 197.37 74.4401ZM218.77 73.9301C218.75 73.9301 218.72 73.9301 218.7 73.9301L218.21 73.8701C217.94 73.8401 217.74 73.5901 217.78 73.3101C217.81 73.0401 218.07 72.8401 218.34 72.8801L218.84 72.9501C219.11 72.9901 219.3 73.2401 219.27 73.5101C219.23 73.7501 219.01 73.9301 218.77 73.9301ZM200.83 73.9001C200.58 73.9001 200.37 73.7201 200.33 73.4601C200.29 73.1901 200.49 72.9401 200.76 72.9001L201.26 72.8401C201.54 72.8001 201.78 73.0001 201.82 73.2701C201.86 73.5401 201.66 73.7901 201.39 73.8301L200.9 73.8901C200.87 73.9001 200.85 73.9001 200.83 73.9001ZM215.29 73.5601C215.28 73.5601 215.26 73.5601 215.25 73.5601L214.75 73.5201C214.47 73.5001 214.27 73.2601 214.29 72.9801C214.31 72.7001 214.58 72.5101 214.83 72.5201L215.33 72.5601C215.61 72.5801 215.81 72.8201 215.79 73.1001C215.77 73.3601 215.55 73.5601 215.29 73.5601ZM204.31 73.5401C204.05 73.5401 203.83 73.3401 203.81 73.0801C203.79 72.8001 204 72.5601 204.27 72.5401L204.77 72.5001C205.01 72.4701 205.28 72.6901 205.3 72.9601C205.32 73.2401 205.11 73.4701 204.84 73.4901L204.34 73.5301C204.33 73.5401 204.32 73.5401 204.31 73.5401ZM211.8 73.3601H211.79L211.29 73.3501C211.01 73.3401 210.8 73.1101 210.8 72.8401C210.81 72.5601 211.03 72.3501 211.31 72.3501L211.81 72.3601C212.09 72.3701 212.3 72.6001 212.3 72.8701C212.29 73.1501 212.07 73.3601 211.8 73.3601ZM207.8 73.3601C207.53 73.3601 207.31 73.1501 207.3 72.8701C207.29 72.5901 207.51 72.3601 207.79 72.3601L208.29 72.3501H208.3C208.57 72.3501 208.8 72.5701 208.8 72.8401C208.8 73.1201 208.59 73.3401 208.31 73.3501L207.82 73.3601C207.81 73.3601 207.8 73.3601 207.8 73.3601Z" fill="#F4F4F4"/>
<path d="M209.67 180.15C187.95 180.15 170.29 162.48 170.29 140.77C170.29 119.06 187.96 101.39 209.67 101.39C231.39 101.39 249.05 119.06 249.05 140.77C249.05 162.48 231.38 180.15 209.67 180.15ZM209.67 102.13C188.37 102.13 171.04 119.46 171.04 140.76C171.04 162.06 188.37 179.39 209.67 179.39C230.97 179.39 248.3 162.06 248.3 140.76C248.3 119.46 230.97 102.13 209.67 102.13Z" fill="#F4F4F4"/>
</svg>
