<svg width="406" height="233" viewBox="0 0 406 233" fill="none" xmlns="http://www.w3.org/2000/svg">
<path d="M166.9 133.3C165.45 133.3 164.27 132.12 164.27 130.67C164.27 129.22 165.45 128.04 166.9 128.04C168.35 128.04 169.53 129.22 169.53 130.67C169.53 132.12 168.35 133.3 166.9 133.3Z" fill="#0078D4"/>
<path d="M166.9 128.29C168.21 128.29 169.28 129.35 169.28 130.67C169.28 131.98 168.22 133.05 166.9 133.05C165.59 133.05 164.52 131.98 164.52 130.67C164.52 129.36 165.59 128.29 166.9 128.29ZM166.9 127.79C165.31 127.79 164.02 129.08 164.02 130.67C164.02 132.26 165.31 133.55 166.9 133.55C168.49 133.55 169.78 132.26 169.78 130.67C169.78 129.08 168.49 127.79 166.9 127.79Z" fill="#50E6FF"/>
<path d="M112.49 165.64C111.04 165.64 109.86 164.46 109.86 163.01C109.86 161.56 111.04 160.38 112.49 160.38C113.94 160.38 115.12 161.56 115.12 163.01C115.12 164.46 113.94 165.64 112.49 165.64Z" fill="#0078D4"/>
<path d="M112.49 160.63C113.8 160.63 114.87 161.7 114.87 163.01C114.87 164.32 113.8 165.39 112.49 165.39C111.18 165.39 110.11 164.32 110.11 163.01C110.11 161.7 111.18 160.63 112.49 160.63ZM112.49 160.13C110.9 160.13 109.61 161.42 109.61 163.01C109.61 164.6 110.9 165.89 112.49 165.89C114.08 165.89 115.37 164.6 115.37 163.01C115.37 161.42 114.08 160.13 112.49 160.13Z" fill="#50E6FF"/>
<path d="M221.53 91.1999C222.983 91.1999 224.16 90.0224 224.16 88.5699C224.16 87.1174 222.983 85.9399 221.53 85.9399C220.078 85.9399 218.9 87.1174 218.9 88.5699C218.9 90.0224 220.078 91.1999 221.53 91.1999Z" fill="#0078D4"/>
<path d="M221.53 86.1899C222.84 86.1899 223.91 87.2599 223.91 88.5699C223.91 89.8799 222.85 90.9499 221.53 90.9499C220.21 90.9499 219.15 89.8799 219.15 88.5699C219.15 87.2599 220.22 86.1899 221.53 86.1899ZM221.53 85.6899C219.94 85.6899 218.65 86.9799 218.65 88.5699C218.65 90.1599 219.94 91.4499 221.53 91.4499C223.12 91.4499 224.41 90.1599 224.41 88.5699C224.41 86.9799 223.12 85.6899 221.53 85.6899Z" fill="#50E6FF"/>
<path d="M268.08 81.3C266.63 81.3 265.45 80.12 265.45 78.67C265.45 77.22 266.63 76.04 268.08 76.04C269.53 76.04 270.71 77.22 270.71 78.67C270.71 80.12 269.53 81.3 268.08 81.3Z" fill="#0078D4"/>
<path d="M268.08 76.29C269.39 76.29 270.46 77.36 270.46 78.67C270.46 79.98 269.4 81.05 268.08 81.05C266.76 81.05 265.7 79.99 265.7 78.67C265.71 77.35 266.77 76.29 268.08 76.29ZM268.08 75.79C266.49 75.79 265.2 77.08 265.2 78.67C265.2 80.26 266.49 81.55 268.08 81.55C269.67 81.55 270.96 80.26 270.96 78.67C270.96 77.08 269.67 75.79 268.08 75.79Z" fill="#50E6FF"/>
<path d="M302.91 47.7099C304.363 47.7099 305.54 46.5325 305.54 45.08C305.54 43.6274 304.363 42.45 302.91 42.45C301.458 42.45 300.28 43.6274 300.28 45.08C300.28 46.5325 301.458 47.7099 302.91 47.7099Z" fill="#0078D4"/>
<path d="M302.91 42.7C304.22 42.7 305.29 43.77 305.29 45.08C305.29 46.39 304.23 47.4599 302.91 47.4599C301.59 47.4599 300.53 46.4 300.53 45.08C300.53 43.76 301.6 42.7 302.91 42.7ZM302.91 42.2C301.32 42.2 300.03 43.49 300.03 45.08C300.03 46.67 301.32 47.9599 302.91 47.9599C304.5 47.9599 305.79 46.67 305.79 45.08C305.79 43.49 304.5 42.2 302.91 42.2Z" fill="#50E6FF"/>
<path d="M112.05 186.86C111.9 186.86 111.75 186.79 111.66 186.67C111.49 186.45 111.53 186.14 111.75 185.97L301.55 38.3101C301.77 38.1401 302.08 38.1801 302.25 38.4001C302.42 38.6201 302.38 38.9301 302.16 39.1001L112.35 186.75C112.26 186.82 112.15 186.86 112.05 186.86Z" fill="#F4F4F4"/>
<path d="M88.71 39.46C88.71 41.24 88.05 42.23 86.89 42.23C85.86 42.23 85.17 41.27 85.15 39.53C85.15 37.77 85.91 36.8 86.97 36.8C88.08 36.8 88.71 37.79 88.71 39.46ZM85.86 39.5401C85.86 40.9001 86.28 41.68 86.93 41.68C87.66 41.68 88 40.8301 88 39.4901C88 38.2001 87.67 37.35 86.93 37.35C86.31 37.35 85.86 38.1101 85.86 39.5401Z" fill="#9B9BA0"/>
<path d="M89.42 41.72C89.42 41.42 89.62 41.21 89.9 41.21C90.18 41.21 90.38 41.42 90.38 41.72C90.38 42.01 90.19 42.23 89.9 42.23C89.62 42.23 89.42 42.01 89.42 41.72Z" fill="#9B9BA0"/>
<path d="M94.17 37.4901H92.17L91.97 38.8401C92.09 38.8201 92.2 38.8101 92.4 38.8101C92.8 38.8101 93.21 38.9001 93.53 39.0901C93.94 39.3201 94.28 39.7801 94.28 40.4401C94.28 41.4701 93.47 42.2301 92.33 42.2301C91.76 42.2301 91.27 42.0701 91.02 41.9101L91.2 41.3701C91.42 41.5001 91.85 41.6601 92.32 41.6601C92.99 41.6601 93.56 41.2201 93.56 40.5201C93.55 39.8401 93.1 39.3601 92.05 39.3601C91.75 39.3601 91.52 39.3901 91.32 39.4201L91.66 36.9001H94.17V37.4901Z" fill="#9B9BA0"/>
<path d="M88.71 71.89C88.71 73.67 88.05 74.66 86.89 74.66C85.86 74.66 85.17 73.7 85.15 71.96C85.15 70.2 85.91 69.23 86.97 69.23C88.08 69.24 88.71 70.22 88.71 71.89ZM85.86 71.97C85.86 73.33 86.28 74.11 86.93 74.11C87.66 74.11 88 73.26 88 71.92C88 70.63 87.67 69.78 86.93 69.78C86.31 69.79 85.86 70.54 85.86 71.97Z" fill="#9B9BA0"/>
<path d="M89.42 74.1499C89.42 73.8499 89.62 73.6399 89.9 73.6399C90.18 73.6399 90.38 73.8499 90.38 74.1499C90.38 74.4399 90.19 74.6599 89.9 74.6599C89.62 74.6599 89.42 74.4399 89.42 74.1499Z" fill="#9B9BA0"/>
<path d="M93.23 74.5701V73.1401H90.79V72.6701L93.13 69.3201H93.9V72.5801H94.63V73.1401H93.9V74.5701H93.23ZM93.23 72.5901V70.8401C93.23 70.5701 93.24 70.2901 93.25 70.0201H93.23C93.07 70.3301 92.94 70.5501 92.79 70.7901L91.51 72.5701V72.5901H93.23Z" fill="#9B9BA0"/>
<path d="M88.71 104.33C88.71 106.11 88.05 107.1 86.89 107.1C85.86 107.1 85.17 106.14 85.15 104.4C85.15 102.64 85.91 101.67 86.97 101.67C88.08 101.67 88.71 102.66 88.71 104.33ZM85.86 104.41C85.86 105.77 86.28 106.55 86.93 106.55C87.66 106.55 88 105.7 88 104.36C88 103.07 87.67 102.22 86.93 102.22C86.31 102.22 85.86 102.98 85.86 104.41Z" fill="#9B9BA0"/>
<path d="M89.42 106.59C89.42 106.29 89.62 106.08 89.9 106.08C90.18 106.08 90.38 106.29 90.38 106.59C90.38 106.88 90.19 107.1 89.9 107.1C89.62 107.1 89.42 106.88 89.42 106.59Z" fill="#9B9BA0"/>
<path d="M91.21 106.19C91.41 106.32 91.88 106.52 92.37 106.52C93.28 106.52 93.56 105.94 93.56 105.5C93.55 104.76 92.89 104.45 92.2 104.45H91.8V103.92H92.2C92.72 103.92 93.37 103.65 93.37 103.03C93.37 102.61 93.1 102.24 92.45 102.24C92.03 102.24 91.63 102.43 91.4 102.59L91.21 102.07C91.48 101.87 92.02 101.67 92.58 101.67C93.61 101.67 94.08 102.28 94.08 102.92C94.08 103.46 93.76 103.92 93.11 104.15V104.17C93.76 104.3 94.28 104.78 94.28 105.52C94.28 106.36 93.63 107.09 92.37 107.09C91.78 107.09 91.26 106.9 91.01 106.73L91.21 106.19Z" fill="#9B9BA0"/>
<path d="M88.71 136.38C88.71 138.16 88.05 139.15 86.89 139.15C85.86 139.15 85.17 138.19 85.15 136.45C85.15 134.69 85.91 133.72 86.97 133.72C88.08 133.72 88.71 134.71 88.71 136.38ZM85.86 136.46C85.86 137.82 86.28 138.6 86.93 138.6C87.66 138.6 88 137.75 88 136.41C88 135.12 87.67 134.27 86.93 134.27C86.31 134.27 85.86 135.03 85.86 136.46Z" fill="#9B9BA0"/>
<path d="M89.42 138.64C89.42 138.34 89.62 138.13 89.9 138.13C90.18 138.13 90.38 138.34 90.38 138.64C90.38 138.93 90.19 139.15 89.9 139.15C89.62 139.15 89.42 138.93 89.42 138.64Z" fill="#9B9BA0"/>
<path d="M91.04 139.06V138.62L91.6 138.08C92.94 136.8 93.55 136.13 93.55 135.34C93.55 134.81 93.29 134.31 92.51 134.31C92.03 134.31 91.64 134.55 91.4 134.75L91.17 134.25C91.53 133.94 92.05 133.72 92.66 133.72C93.79 133.72 94.27 134.5 94.27 135.25C94.27 136.22 93.57 137 92.46 138.07L92.04 138.46V138.48H94.4V139.07H91.04V139.06Z" fill="#9B9BA0"/>
<path d="M88.84 168.94C88.84 170.72 88.18 171.71 87.02 171.71C85.99 171.71 85.3 170.75 85.28 169.01C85.28 167.25 86.04 166.28 87.1 166.28C88.21 166.28 88.84 167.27 88.84 168.94ZM85.99 169.02C85.99 170.38 86.41 171.16 87.06 171.16C87.79 171.16 88.13 170.31 88.13 168.97C88.13 167.68 87.8 166.83 87.06 166.83C86.44 166.83 85.99 167.59 85.99 169.02Z" fill="#9B9BA0"/>
<path d="M89.55 171.2C89.55 170.9 89.75 170.69 90.03 170.69C90.31 170.69 90.51 170.9 90.51 171.2C90.51 171.49 90.32 171.71 90.03 171.71C89.74 171.71 89.55 171.49 89.55 171.2Z" fill="#9B9BA0"/>
<path d="M92.71 167.03H92.69L91.78 167.52L91.64 166.98L92.79 166.37H93.4V171.62H92.71V167.03Z" fill="#9B9BA0"/>
<path d="M301.45 200.56C301.45 202.34 300.79 203.33 299.63 203.33C298.6 203.33 297.91 202.37 297.89 200.63C297.89 198.87 298.65 197.9 299.71 197.9C300.82 197.9 301.45 198.89 301.45 200.56ZM298.6 200.64C298.6 202 299.02 202.78 299.67 202.78C300.4 202.78 300.74 201.93 300.74 200.59C300.74 199.3 300.41 198.45 299.67 198.45C299.06 198.45 298.6 199.21 298.6 200.64Z" fill="#9B9BA0"/>
<path d="M302.16 202.82C302.16 202.52 302.36 202.31 302.64 202.31C302.92 202.31 303.12 202.52 303.12 202.82C303.12 203.11 302.93 203.33 302.64 203.33C302.36 203.33 302.16 203.11 302.16 202.82Z" fill="#9B9BA0"/>
<path d="M306.91 198.59H304.91L304.71 199.94C304.83 199.92 304.94 199.91 305.14 199.91C305.54 199.91 305.95 200 306.27 200.19C306.68 200.42 307.02 200.88 307.02 201.54C307.02 202.57 306.21 203.33 305.07 203.33C304.5 203.33 304.01 203.17 303.76 203.01L303.94 202.47C304.16 202.6 304.59 202.76 305.06 202.76C305.73 202.76 306.3 202.32 306.3 201.62C306.29 200.94 305.84 200.46 304.79 200.46C304.49 200.46 304.26 200.49 304.06 200.52L304.4 198H306.91V198.59Z" fill="#9B9BA0"/>
<path d="M259.8 200.56C259.8 202.34 259.14 203.33 257.98 203.33C256.95 203.33 256.26 202.37 256.24 200.63C256.24 198.87 257 197.9 258.06 197.9C259.17 197.9 259.8 198.89 259.8 200.56ZM256.95 200.64C256.95 202 257.37 202.78 258.02 202.78C258.75 202.78 259.09 201.93 259.09 200.59C259.09 199.3 258.76 198.45 258.02 198.45C257.4 198.45 256.95 199.21 256.95 200.64Z" fill="#9B9BA0"/>
<path d="M260.51 202.82C260.51 202.52 260.71 202.31 260.99 202.31C261.27 202.31 261.47 202.52 261.47 202.82C261.47 203.11 261.28 203.33 260.99 203.33C260.7 203.33 260.51 203.11 260.51 202.82Z" fill="#9B9BA0"/>
<path d="M264.32 203.24V201.81H261.88V201.34L264.22 197.99H264.99V201.25H265.72V201.81H264.99V203.24H264.32ZM264.32 201.25V199.5C264.32 199.23 264.33 198.95 264.34 198.68H264.32C264.16 198.99 264.03 199.21 263.88 199.45L262.6 201.23V201.25H264.32Z" fill="#9B9BA0"/>
<path d="M216.84 200.56C216.84 202.34 216.18 203.33 215.02 203.33C213.99 203.33 213.3 202.37 213.28 200.63C213.28 198.87 214.04 197.9 215.1 197.9C216.21 197.9 216.84 198.89 216.84 200.56ZM213.99 200.64C213.99 202 214.41 202.78 215.06 202.78C215.79 202.78 216.13 201.93 216.13 200.59C216.13 199.3 215.8 198.45 215.06 198.45C214.45 198.45 213.99 199.21 213.99 200.64Z" fill="#9B9BA0"/>
<path d="M217.55 202.82C217.55 202.52 217.75 202.31 218.03 202.31C218.31 202.31 218.51 202.52 218.51 202.82C218.51 203.11 218.32 203.33 218.03 203.33C217.75 203.33 217.55 203.11 217.55 202.82Z" fill="#9B9BA0"/>
<path d="M219.34 202.42C219.54 202.55 220.01 202.75 220.5 202.75C221.41 202.75 221.69 202.17 221.69 201.73C221.68 200.99 221.02 200.68 220.33 200.68H219.93V200.15H220.33C220.85 200.15 221.5 199.88 221.5 199.26C221.5 198.84 221.23 198.47 220.58 198.47C220.16 198.47 219.76 198.66 219.53 198.82L219.34 198.3C219.61 198.1 220.15 197.9 220.71 197.9C221.74 197.9 222.21 198.51 222.21 199.15C222.21 199.69 221.89 200.15 221.24 200.38V200.4C221.89 200.53 222.41 201.01 222.41 201.75C222.41 202.59 221.76 203.32 220.5 203.32C219.91 203.32 219.39 203.13 219.14 202.96L219.34 202.42Z" fill="#9B9BA0"/>
<path d="M174.93 200.56C174.93 202.34 174.27 203.33 173.11 203.33C172.08 203.33 171.39 202.37 171.37 200.63C171.37 198.87 172.13 197.9 173.19 197.9C174.3 197.9 174.93 198.89 174.93 200.56ZM172.08 200.64C172.08 202 172.5 202.78 173.15 202.78C173.88 202.78 174.22 201.93 174.22 200.59C174.22 199.3 173.89 198.45 173.15 198.45C172.53 198.45 172.08 199.21 172.08 200.64Z" fill="#9B9BA0"/>
<path d="M175.64 202.82C175.64 202.52 175.84 202.31 176.12 202.31C176.4 202.31 176.6 202.52 176.6 202.82C176.6 203.11 176.41 203.33 176.12 203.33C175.83 203.33 175.64 203.11 175.64 202.82Z" fill="#9B9BA0"/>
<path d="M177.25 203.24V202.8L177.81 202.26C179.15 200.98 179.76 200.31 179.76 199.52C179.76 198.99 179.5 198.49 178.72 198.49C178.24 198.49 177.85 198.73 177.61 198.93L177.38 198.43C177.74 198.12 178.26 197.9 178.87 197.9C180 197.9 180.48 198.68 180.48 199.43C180.48 200.4 179.78 201.18 178.67 202.25L178.25 202.64V202.66H180.61V203.25H177.25V203.24Z" fill="#9B9BA0"/>
<path d="M132.62 200.56C132.62 202.34 131.96 203.33 130.8 203.33C129.77 203.33 129.08 202.37 129.06 200.63C129.06 198.87 129.82 197.9 130.88 197.9C131.99 197.9 132.62 198.89 132.62 200.56ZM129.77 200.64C129.77 202 130.19 202.78 130.84 202.78C131.57 202.78 131.91 201.93 131.91 200.59C131.91 199.3 131.58 198.45 130.84 198.45C130.22 198.45 129.77 199.21 129.77 200.64Z" fill="#9B9BA0"/>
<path d="M133.33 202.82C133.33 202.52 133.53 202.31 133.81 202.31C134.09 202.31 134.29 202.52 134.29 202.82C134.29 203.11 134.1 203.33 133.81 203.33C133.52 203.33 133.33 203.11 133.33 202.82Z" fill="#9B9BA0"/>
<path d="M136.49 198.65H136.47L135.56 199.14L135.42 198.6L136.57 197.99H137.18V203.24H136.49V198.65Z" fill="#9B9BA0"/>
<path d="M100.25 136.83H97.1C96.89 136.83 96.72 136.66 96.72 136.45C96.72 136.24 96.89 136.07 97.1 136.07H100.24C100.45 136.07 100.62 136.24 100.62 136.45C100.62 136.66 100.46 136.83 100.25 136.83Z" fill="#9B9BA0"/>
<path d="M100.25 169.08H97.1C96.89 169.08 96.72 168.91 96.72 168.7C96.72 168.49 96.89 168.32 97.1 168.32H100.24C100.45 168.32 100.62 168.49 100.62 168.7C100.62 168.91 100.46 169.08 100.25 169.08Z" fill="#9B9BA0"/>
<path d="M133.07 195.55C132.86 195.55 132.69 195.38 132.69 195.17V192.53C132.69 192.32 132.86 192.15 133.07 192.15C133.28 192.15 133.45 192.32 133.45 192.53V195.17C133.44 195.38 133.28 195.55 133.07 195.55Z" fill="#9B9BA0"/>
<path d="M175.72 195.55C175.51 195.55 175.34 195.38 175.34 195.17V192.53C175.34 192.32 175.51 192.15 175.72 192.15C175.93 192.15 176.1 192.32 176.1 192.53V195.17C176.1 195.38 175.93 195.55 175.72 195.55Z" fill="#9B9BA0"/>
<path d="M217.24 195.55C217.03 195.55 216.86 195.38 216.86 195.17V192.53C216.86 192.32 217.03 192.15 217.24 192.15C217.45 192.15 217.62 192.32 217.62 192.53V195.17C217.61 195.38 217.44 195.55 217.24 195.55Z" fill="#9B9BA0"/>
<path d="M259.91 195.55C259.7 195.55 259.53 195.38 259.53 195.17V192.53C259.53 192.32 259.7 192.15 259.91 192.15C260.12 192.15 260.29 192.32 260.29 192.53V195.17C260.28 195.38 260.12 195.55 259.91 195.55Z" fill="#9B9BA0"/>
<path d="M301.37 195.55C301.16 195.55 300.99 195.38 300.99 195.17V192.53C300.99 192.32 301.16 192.15 301.37 192.15C301.58 192.15 301.75 192.32 301.75 192.53V195.17C301.74 195.38 301.57 195.55 301.37 195.55Z" fill="#9B9BA0"/>
<path d="M100.25 104.67H97.1C96.89 104.67 96.72 104.5 96.72 104.29C96.72 104.08 96.89 103.91 97.1 103.91H100.24C100.45 103.91 100.62 104.08 100.62 104.29C100.62 104.5 100.46 104.67 100.25 104.67Z" fill="#9B9BA0"/>
<path d="M100.25 72.3201H97.1C96.89 72.3201 96.72 72.1501 96.72 71.9401C96.72 71.7301 96.89 71.5601 97.1 71.5601H100.24C100.45 71.5601 100.62 71.7301 100.62 71.9401C100.62 72.1501 100.46 72.3201 100.25 72.3201Z" fill="#9B9BA0"/>
<path d="M100.25 40.1599H97.1C96.89 40.1599 96.72 39.9899 96.72 39.7799C96.72 39.5699 96.89 39.3999 97.1 39.3999H100.24C100.45 39.3999 100.62 39.5699 100.62 39.7799C100.62 39.9899 100.46 40.1599 100.25 40.1599Z" fill="#9B9BA0"/>
<path d="M313.9 192.87H100.51C100.3 192.87 100.13 192.7 100.13 192.49V31.39C100.13 31.18 100.3 31.01 100.51 31.01H313.9C314.11 31.01 314.28 31.18 314.28 31.39V192.5C314.28 192.71 314.11 192.87 313.9 192.87ZM100.89 192.12H313.53V31.76H100.89V192.12Z" fill="#9B9BA0"/>
</svg>
