<svg width="406" height="233" viewBox="0 0 406 233" fill="none" xmlns="http://www.w3.org/2000/svg">
<path d="M297.91 52.2702H297.9L297.19 52.6502L297.08 52.2302L297.98 51.7502H298.45V55.8602H297.91V52.2702Z" fill="#9B9BA0"/>
<path d="M299.99 55.5301C299.99 55.3001 300.15 55.1301 300.37 55.1301C300.59 55.1301 300.74 55.2901 300.74 55.5301C300.74 55.7601 300.59 55.9301 300.36 55.9301C300.14 55.9301 299.99 55.7601 299.99 55.5301Z" fill="#9B9BA0"/>
<path d="M303.98 53.7602C303.98 55.1602 303.46 55.9302 302.55 55.9302C301.75 55.9302 301.2 55.1802 301.19 53.8202C301.19 52.4402 301.78 51.6802 302.62 51.6802C303.49 51.6902 303.98 52.4602 303.98 53.7602ZM301.75 53.8302C301.75 54.9002 302.08 55.5002 302.58 55.5002C303.15 55.5002 303.42 54.8402 303.42 53.7902C303.42 52.7802 303.16 52.1202 302.59 52.1202C302.11 52.1202 301.75 52.7102 301.75 53.8302Z" fill="#9B9BA0"/>
<path d="M293.75 54.1201H290.84C290.63 54.1201 290.46 53.9501 290.46 53.7401C290.46 53.5301 290.63 53.3601 290.84 53.3601H293.75C293.96 53.3601 294.13 53.5301 294.13 53.7401C294.13 53.9501 293.96 54.1201 293.75 54.1201Z" fill="#9B9BA0"/>
<path d="M299.43 78.8901C299.43 80.2901 298.91 81.0601 298 81.0601C297.2 81.0601 296.65 80.3101 296.64 78.9501C296.64 77.5701 297.23 76.8101 298.07 76.8101C298.94 76.8101 299.43 77.5801 299.43 78.8901ZM297.2 78.9501C297.2 80.0201 297.53 80.6201 298.03 80.6201C298.6 80.6201 298.87 79.9601 298.87 78.9101C298.87 77.9001 298.61 77.2401 298.04 77.2401C297.56 77.2401 297.2 77.8301 297.2 78.9501Z" fill="#9B9BA0"/>
<path d="M299.99 80.66C299.99 80.43 300.15 80.26 300.37 80.26C300.59 80.26 300.74 80.42 300.74 80.66C300.74 80.89 300.59 81.06 300.36 81.06C300.14 81.06 299.99 80.89 299.99 80.66Z" fill="#9B9BA0"/>
<path d="M301.2 79.9501C301.2 79.4301 301.51 79.0701 302.02 78.8501L302.01 78.8301C301.56 78.6201 301.36 78.2601 301.36 77.9101C301.36 77.2601 301.91 76.8201 302.63 76.8201C303.43 76.8201 303.82 77.3201 303.82 77.8301C303.82 78.1801 303.65 78.5501 303.14 78.7901V78.8101C303.65 79.0101 303.97 79.3701 303.97 79.8701C303.97 80.5801 303.36 81.0601 302.57 81.0601C301.72 81.0601 301.2 80.5401 301.2 79.9501ZM303.42 79.9201C303.42 79.4201 303.07 79.1801 302.52 79.0201C302.04 79.1601 301.78 79.4801 301.78 79.8701C301.76 80.2901 302.08 80.6501 302.6 80.6501C303.09 80.6501 303.42 80.3401 303.42 79.9201ZM301.89 77.8701C301.89 78.2801 302.2 78.5001 302.67 78.6301C303.02 78.5101 303.3 78.2601 303.3 77.8801C303.3 77.5501 303.1 77.2101 302.6 77.2101C302.14 77.2101 301.89 77.5101 301.89 77.8701Z" fill="#9B9BA0"/>
<path d="M293.75 79.25H290.84C290.63 79.25 290.46 79.08 290.46 78.87C290.46 78.66 290.63 78.49 290.84 78.49H293.75C293.96 78.49 294.13 78.66 294.13 78.87C294.13 79.08 293.96 79.25 293.75 79.25Z" fill="#9B9BA0"/>
<path d="M299.43 103.97C299.43 105.37 298.91 106.14 298 106.14C297.2 106.14 296.65 105.39 296.64 104.03C296.64 102.65 297.23 101.89 298.07 101.89C298.94 101.89 299.43 102.66 299.43 103.97ZM297.2 104.03C297.2 105.1 297.53 105.7 298.03 105.7C298.6 105.7 298.87 105.04 298.87 103.99C298.87 102.98 298.61 102.32 298.04 102.32C297.56 102.32 297.2 102.91 297.2 104.03Z" fill="#9B9BA0"/>
<path d="M299.99 105.74C299.99 105.51 300.15 105.34 300.37 105.34C300.59 105.34 300.74 105.5 300.74 105.74C300.74 105.97 300.59 106.14 300.36 106.14C300.14 106.14 299.99 105.97 299.99 105.74Z" fill="#9B9BA0"/>
<path d="M303.6 102.35C303.49 102.34 303.34 102.35 303.18 102.38C302.31 102.53 301.85 103.16 301.75 103.84H301.77C301.97 103.58 302.31 103.37 302.76 103.37C303.49 103.37 304 103.89 304 104.7C304 105.45 303.49 106.15 302.64 106.15C301.76 106.15 301.19 105.47 301.19 104.4C301.19 103.59 301.48 102.95 301.88 102.55C302.22 102.22 302.68 102.01 303.19 101.94C303.35 101.91 303.49 101.91 303.59 101.91V102.35H303.6ZM303.44 104.72C303.44 104.13 303.11 103.78 302.59 103.78C302.26 103.78 301.95 103.99 301.79 104.29C301.75 104.35 301.73 104.44 301.73 104.54C301.74 105.22 302.05 105.71 302.63 105.71C303.12 105.71 303.44 105.31 303.44 104.72Z" fill="#9B9BA0"/>
<path d="M293.75 104.33H290.8C290.59 104.33 290.42 104.16 290.42 103.95C290.42 103.74 290.59 103.57 290.8 103.57H293.75C293.96 103.57 294.13 103.74 294.13 103.95C294.13 104.16 293.96 104.33 293.75 104.33Z" fill="#9B9BA0"/>
<path d="M299.43 128.9C299.43 130.3 298.91 131.07 298 131.07C297.2 131.07 296.65 130.32 296.64 128.96C296.64 127.58 297.23 126.82 298.07 126.82C298.94 126.82 299.43 127.59 299.43 128.9ZM297.2 128.96C297.2 130.03 297.53 130.63 298.03 130.63C298.6 130.63 298.87 129.97 298.87 128.92C298.87 127.91 298.61 127.25 298.04 127.25C297.56 127.25 297.2 127.85 297.2 128.96Z" fill="#9B9BA0"/>
<path d="M299.99 130.67C299.99 130.44 300.15 130.27 300.37 130.27C300.59 130.27 300.74 130.43 300.74 130.67C300.74 130.9 300.59 131.07 300.36 131.07C300.14 131.07 299.99 130.9 299.99 130.67Z" fill="#9B9BA0"/>
<path d="M302.97 131V129.88H301.06V129.51L302.89 126.89H303.49V129.44H304.07V129.88H303.49V131H302.97ZM302.97 129.44V128.07C302.97 127.86 302.98 127.64 302.99 127.43H302.97C302.84 127.67 302.74 127.85 302.63 128.04L301.63 129.44V129.45H302.97V129.44Z" fill="#9B9BA0"/>
<path d="M293.75 129.26H290.8C290.59 129.26 290.42 129.09 290.42 128.88C290.42 128.67 290.59 128.5 290.8 128.5H293.75C293.96 128.5 294.13 128.67 294.13 128.88C294.13 129.09 293.96 129.26 293.75 129.26Z" fill="#9B9BA0"/>
<path d="M299.43 153.96C299.43 155.36 298.91 156.13 298 156.13C297.2 156.13 296.65 155.38 296.64 154.02C296.64 152.64 297.23 151.88 298.07 151.88C298.94 151.88 299.43 152.65 299.43 153.96ZM297.2 154.02C297.2 155.09 297.53 155.69 298.03 155.69C298.6 155.69 298.87 155.03 298.87 153.98C298.87 152.97 298.61 152.31 298.04 152.31C297.56 152.31 297.2 152.9 297.2 154.02Z" fill="#9B9BA0"/>
<path d="M299.99 155.73C299.99 155.5 300.15 155.33 300.37 155.33C300.59 155.33 300.74 155.49 300.74 155.73C300.74 155.96 300.59 156.13 300.36 156.13C300.14 156.13 299.99 155.96 299.99 155.73Z" fill="#9B9BA0"/>
<path d="M301.26 156.06V155.72L301.7 155.3C302.75 154.3 303.22 153.77 303.23 153.15C303.23 152.73 303.03 152.35 302.41 152.35C302.04 152.35 301.73 152.54 301.54 152.7L301.36 152.31C301.64 152.07 302.05 151.89 302.52 151.89C303.4 151.89 303.78 152.5 303.78 153.08C303.78 153.84 303.23 154.45 302.36 155.28L302.03 155.58V155.59H303.87V156.05H301.26V156.06Z" fill="#9B9BA0"/>
<path d="M293.75 154.32H290.94C290.73 154.32 290.56 154.15 290.56 153.94C290.56 153.73 290.73 153.56 290.94 153.56H293.75C293.96 153.56 294.13 153.73 294.13 153.94C294.13 154.15 293.96 154.32 293.75 154.32Z" fill="#9B9BA0"/>
<path d="M299.43 178.9C299.43 180.3 298.91 181.07 298 181.07C297.2 181.07 296.65 180.32 296.64 178.96C296.64 177.58 297.23 176.82 298.07 176.82C298.94 176.82 299.43 177.59 299.43 178.9ZM297.2 178.96C297.2 180.03 297.53 180.63 298.03 180.63C298.6 180.63 298.87 179.97 298.87 178.92C298.87 177.91 298.61 177.25 298.04 177.25C297.56 177.25 297.2 177.84 297.2 178.96Z" fill="#9B9BA0"/>
<path d="M299.99 180.67C299.99 180.44 300.15 180.27 300.37 180.27C300.59 180.27 300.74 180.43 300.74 180.67C300.74 180.9 300.59 181.07 300.36 181.07C300.14 181.06 299.99 180.89 299.99 180.67Z" fill="#9B9BA0"/>
<path d="M303.98 178.9C303.98 180.3 303.46 181.07 302.55 181.07C301.75 181.07 301.2 180.32 301.19 178.96C301.19 177.58 301.78 176.82 302.62 176.82C303.49 176.82 303.98 177.59 303.98 178.9ZM301.75 178.96C301.75 180.03 302.08 180.63 302.58 180.63C303.15 180.63 303.42 179.97 303.42 178.92C303.42 177.91 303.16 177.25 302.59 177.25C302.11 177.25 301.75 177.84 301.75 178.96Z" fill="#9B9BA0"/>
<path d="M293.75 179.13H290.84C290.7 179.13 290.59 179.02 290.59 178.88C290.59 178.74 290.7 178.63 290.84 178.63H293.75C293.89 178.63 294 178.74 294 178.88C294 179.02 293.89 179.13 293.75 179.13Z" fill="#78787D"/>
<path d="M140.88 195.98C140.67 195.98 140.5 195.81 140.5 195.6V193.14C140.5 192.93 140.67 192.76 140.88 192.76C141.09 192.76 141.26 192.93 141.26 193.14V195.6C141.25 195.81 141.09 195.98 140.88 195.98Z" fill="#9B9BA0"/>
<path d="M138.93 199.89H138.92L138.21 200.27L138.1 199.85L139 199.37H139.47V203.48H138.93V199.89Z" fill="#9B9BA0"/>
<path d="M142.69 203.47V202.35H140.78V201.98L142.61 199.36H143.21V201.91H143.78V202.35H143.21V203.47H142.69ZM142.69 201.92V200.55C142.69 200.34 142.7 200.12 142.71 199.91H142.69C142.56 200.15 142.46 200.33 142.35 200.52L141.35 201.92V201.93H142.69V201.92Z" fill="#9B9BA0"/>
<path d="M161.45 195.98C161.24 195.98 161.07 195.81 161.07 195.6V193.14C161.07 192.93 161.24 192.76 161.45 192.76C161.66 192.76 161.83 192.93 161.83 193.14V195.6C161.82 195.81 161.66 195.98 161.45 195.98Z" fill="#9B9BA0"/>
<path d="M159.87 199.89H159.86L159.15 200.27L159.04 199.85L159.94 199.37H160.41V203.48H159.87V199.89Z" fill="#9B9BA0"/>
<path d="M164.24 199.76C164.13 199.75 163.98 199.76 163.82 199.79C162.95 199.94 162.49 200.57 162.39 201.25H162.41C162.61 200.99 162.95 200.78 163.4 200.78C164.13 200.78 164.64 201.3 164.64 202.11C164.64 202.86 164.13 203.56 163.28 203.56C162.4 203.56 161.83 202.88 161.83 201.81C161.83 201 162.12 200.36 162.52 199.96C162.86 199.63 163.32 199.42 163.83 199.35C163.99 199.32 164.13 199.32 164.23 199.32V199.76H164.24ZM164.09 202.13C164.09 201.54 163.76 201.19 163.24 201.19C162.91 201.19 162.6 201.4 162.44 201.7C162.4 201.76 162.38 201.85 162.38 201.95C162.39 202.63 162.7 203.12 163.28 203.12C163.76 203.11 164.09 202.72 164.09 202.13Z" fill="#9B9BA0"/>
<path d="M181.8 195.98C181.59 195.98 181.42 195.81 181.42 195.6V193.14C181.42 192.93 181.59 192.76 181.8 192.76C182.01 192.76 182.18 192.93 182.18 193.14V195.6C182.17 195.81 182 195.98 181.8 195.98Z" fill="#9B9BA0"/>
<path d="M180.12 199.89H180.11L179.4 200.27L179.29 199.85L180.19 199.37H180.66V203.48H180.12V199.89Z" fill="#9B9BA0"/>
<path d="M182.11 202.43C182.11 201.91 182.42 201.55 182.93 201.33L182.92 201.31C182.47 201.1 182.27 200.74 182.27 200.39C182.27 199.74 182.82 199.3 183.54 199.3C184.34 199.3 184.73 199.8 184.73 200.31C184.73 200.66 184.56 201.03 184.05 201.27V201.29C184.56 201.49 184.88 201.85 184.88 202.35C184.88 203.06 184.27 203.54 183.48 203.54C182.63 203.54 182.11 203.03 182.11 202.43ZM184.32 202.41C184.32 201.91 183.97 201.67 183.42 201.51C182.94 201.65 182.68 201.97 182.68 202.36C182.66 202.78 182.98 203.14 183.5 203.14C184 203.14 184.32 202.83 184.32 202.41ZM182.79 200.35C182.79 200.76 183.1 200.98 183.57 201.11C183.92 200.99 184.2 200.74 184.2 200.36C184.2 200.03 184 199.69 183.5 199.69C183.04 199.7 182.79 200 182.79 200.35Z" fill="#9B9BA0"/>
<path d="M201.92 195.98C201.71 195.98 201.54 195.81 201.54 195.6V193.14C201.54 192.93 201.71 192.76 201.92 192.76C202.13 192.76 202.3 192.93 202.3 193.14V195.6C202.3 195.81 202.13 195.98 201.92 195.98Z" fill="#9B9BA0"/>
<path d="M198.95 203.47V203.13L199.39 202.71C200.44 201.71 200.91 201.18 200.92 200.56C200.92 200.14 200.72 199.76 200.1 199.76C199.73 199.76 199.42 199.95 199.23 200.11L199.05 199.72C199.33 199.48 199.74 199.3 200.21 199.3C201.09 199.3 201.47 199.91 201.47 200.49C201.47 201.25 200.92 201.86 200.05 202.69L199.72 202.99V203H201.56V203.46H198.95V203.47Z" fill="#9B9BA0"/>
<path d="M204.92 201.38C204.92 202.78 204.4 203.55 203.49 203.55C202.69 203.55 202.14 202.8 202.13 201.44C202.13 200.06 202.72 199.3 203.56 199.3C204.43 199.3 204.92 200.07 204.92 201.38ZM202.69 201.44C202.69 202.51 203.02 203.11 203.52 203.11C204.09 203.11 204.36 202.45 204.36 201.4C204.36 200.39 204.1 199.73 203.53 199.73C203.04 199.73 202.69 200.32 202.69 201.44Z" fill="#9B9BA0"/>
<path d="M222.27 195.98C222.06 195.98 221.89 195.81 221.89 195.6V193.14C221.89 192.93 222.06 192.76 222.27 192.76C222.48 192.76 222.65 192.93 222.65 193.14V195.6C222.64 195.81 222.47 195.98 222.27 195.98Z" fill="#9B9BA0"/>
<path d="M219.3 203.47V203.13L219.74 202.71C220.79 201.71 221.26 201.18 221.27 200.56C221.27 200.14 221.07 199.76 220.45 199.76C220.08 199.76 219.77 199.95 219.58 200.11L219.4 199.72C219.68 199.48 220.09 199.3 220.56 199.3C221.44 199.3 221.82 199.91 221.82 200.49C221.82 201.25 221.27 201.86 220.4 202.69L220.07 202.99V203H221.91V203.46H219.3V203.47Z" fill="#9B9BA0"/>
<path d="M222.54 203.47V203.13L222.98 202.71C224.03 201.71 224.5 201.18 224.51 200.56C224.51 200.14 224.31 199.76 223.69 199.76C223.32 199.76 223.01 199.95 222.82 200.11L222.64 199.72C222.92 199.48 223.33 199.3 223.8 199.3C224.68 199.3 225.06 199.91 225.06 200.49C225.06 201.25 224.51 201.86 223.64 202.69L223.31 202.99V203H225.15V203.46H222.54V203.47Z" fill="#9B9BA0"/>
<path d="M242.76 195.98C242.55 195.98 242.38 195.81 242.38 195.6V193.14C242.38 192.93 242.55 192.76 242.76 192.76C242.97 192.76 243.14 192.93 243.14 193.14V195.6C243.14 195.81 242.97 195.98 242.76 195.98Z" fill="#9B9BA0"/>
<path d="M239.61 203.47V203.13L240.05 202.71C241.1 201.71 241.57 201.18 241.58 200.56C241.58 200.14 241.38 199.76 240.76 199.76C240.39 199.76 240.08 199.95 239.89 200.11L239.71 199.72C239.99 199.48 240.4 199.3 240.87 199.3C241.75 199.3 242.13 199.91 242.13 200.49C242.13 201.25 241.58 201.86 240.71 202.69L240.38 202.99V203H242.22V203.46H239.61V203.47Z" fill="#9B9BA0"/>
<path d="M244.57 203.47V202.35H242.66V201.98L244.49 199.36H245.09V201.91H245.67V202.35H245.09V203.47H244.57ZM244.57 201.92V200.55C244.57 200.34 244.58 200.12 244.59 199.91H244.57C244.44 200.15 244.34 200.33 244.23 200.52L243.23 201.92V201.93H244.57V201.92Z" fill="#9B9BA0"/>
<path d="M263.26 195.98C263.05 195.98 262.88 195.81 262.88 195.6V193.14C262.88 192.93 263.05 192.76 263.26 192.76C263.47 192.76 263.64 192.93 263.64 193.14V195.6C263.64 195.81 263.47 195.98 263.26 195.98Z" fill="#9B9BA0"/>
<path d="M260.31 203.47V203.13L260.75 202.71C261.8 201.71 262.27 201.18 262.28 200.56C262.28 200.14 262.08 199.76 261.46 199.76C261.09 199.76 260.78 199.95 260.59 200.11L260.41 199.72C260.69 199.48 261.1 199.3 261.57 199.3C262.45 199.3 262.83 199.91 262.83 200.49C262.83 201.25 262.28 201.86 261.41 202.69L261.08 202.99V203H262.92V203.46H260.31V203.47Z" fill="#9B9BA0"/>
<path d="M265.89 199.76C265.78 199.75 265.63 199.76 265.47 199.79C264.6 199.94 264.14 200.57 264.04 201.25H264.06C264.26 200.99 264.6 200.78 265.05 200.78C265.78 200.78 266.29 201.3 266.29 202.11C266.29 202.86 265.78 203.56 264.93 203.56C264.05 203.56 263.48 202.88 263.48 201.81C263.48 201 263.77 200.36 264.17 199.96C264.51 199.63 264.97 199.42 265.48 199.35C265.64 199.32 265.78 199.32 265.88 199.32V199.76H265.89ZM265.74 202.13C265.74 201.54 265.41 201.19 264.89 201.19C264.56 201.19 264.25 201.4 264.09 201.7C264.05 201.76 264.03 201.85 264.03 201.95C264.04 202.63 264.35 203.12 264.93 203.12C265.41 203.11 265.74 202.72 265.74 202.13Z" fill="#9B9BA0"/>
<path d="M283.46 195.98C283.25 195.98 283.08 195.81 283.08 195.6V193.14C283.08 192.93 283.25 192.76 283.46 192.76C283.67 192.76 283.84 192.93 283.84 193.14V195.6C283.83 195.81 283.67 195.98 283.46 195.98Z" fill="#9B9BA0"/>
<path d="M280.97 203.47V203.13L281.41 202.71C282.46 201.71 282.93 201.18 282.94 200.56C282.94 200.14 282.74 199.76 282.12 199.76C281.75 199.76 281.44 199.95 281.25 200.11L281.07 199.72C281.35 199.48 281.76 199.3 282.23 199.3C283.11 199.3 283.49 199.91 283.49 200.49C283.49 201.25 282.94 201.86 282.07 202.69L281.74 202.99V203H283.58V203.46H280.97V203.47Z" fill="#9B9BA0"/>
<path d="M284.16 202.43C284.16 201.91 284.47 201.55 284.98 201.33L284.97 201.31C284.52 201.1 284.32 200.74 284.32 200.39C284.32 199.74 284.87 199.3 285.59 199.3C286.39 199.3 286.78 199.8 286.78 200.31C286.78 200.66 286.61 201.03 286.1 201.27V201.29C286.61 201.49 286.93 201.85 286.93 202.35C286.93 203.06 286.32 203.54 285.53 203.54C284.68 203.54 284.16 203.03 284.16 202.43ZM286.37 202.41C286.37 201.91 286.02 201.67 285.47 201.51C284.99 201.65 284.73 201.97 284.73 202.36C284.71 202.78 285.03 203.14 285.55 203.14C286.05 203.14 286.37 202.83 286.37 202.41ZM284.84 200.35C284.84 200.76 285.15 200.98 285.62 201.11C285.97 200.99 286.24 200.74 286.24 200.36C286.24 200.03 286.04 199.69 285.55 199.69C285.09 199.7 284.84 200 284.84 200.35Z" fill="#9B9BA0"/>
<path d="M126.1 62.3101C126.22 62.6501 126.42 63.3201 126.42 64.1201C126.42 65.0101 126.19 65.7501 125.64 66.3201C125.15 66.8301 124.36 67.1401 123.45 67.1401C121.69 67.1301 120.41 65.9201 120.41 63.9501C120.41 63.2701 120.56 62.7301 120.68 62.4801L121.3 62.6601C121.16 62.9701 121.05 63.3701 121.05 63.9601C121.05 65.3901 121.94 66.3301 123.42 66.3301C124.92 66.3301 125.8 65.4301 125.8 64.0601C125.8 63.5601 125.73 63.2201 125.64 63.0501H123.88V64.2501H123.27V62.3101H126.1Z" fill="#CDCDD0"/>
<path d="M123.45 61.1701C122.95 61.1701 122.52 61.1801 122.13 61.2101V60.5401L122.96 60.5101V60.4701C122.39 60.2801 122.03 59.8101 122.03 59.3001C122.03 59.2101 122.04 59.1501 122.06 59.0801H122.79C122.77 59.1601 122.76 59.2401 122.76 59.3401C122.76 59.8801 123.17 60.2701 123.75 60.3701C123.85 60.3901 123.98 60.4001 124.11 60.4001H126.37V61.1601H123.45V61.1701Z" fill="#CDCDD0"/>
<path d="M124.21 54.5801C125.77 54.5801 126.46 55.6601 126.46 56.6901C126.46 57.8401 125.62 58.7201 124.28 58.7201C122.86 58.7201 122.03 57.7901 122.03 56.6201C122.03 55.4001 122.92 54.5801 124.21 54.5801ZM124.25 57.9301C125.18 57.9301 125.88 57.4001 125.88 56.6401C125.88 55.9101 125.19 55.3501 124.24 55.3501C123.52 55.3501 122.61 55.7101 122.61 56.6201C122.61 57.5301 123.45 57.9301 124.25 57.9301Z" fill="#CDCDD0"/>
<path d="M120.15 49.9502H125.27C125.65 49.9502 126.07 49.9402 126.36 49.9102V50.6002L125.63 50.6302V50.6502C126.1 50.8902 126.46 51.4002 126.46 52.0902C126.46 53.1102 125.59 53.9002 124.31 53.9002C122.9 53.9102 122.04 53.0302 122.04 52.0002C122.04 51.3502 122.35 50.9202 122.69 50.7202V50.7002H120.16V49.9502H120.15ZM123.85 50.7202C123.75 50.7202 123.62 50.7302 123.53 50.7602C123.04 50.8702 122.64 51.2902 122.64 51.8702C122.64 52.6602 123.34 53.1402 124.27 53.1402C125.13 53.1402 125.84 52.7202 125.84 51.8902C125.84 51.3702 125.5 50.9002 124.92 50.7602C124.81 50.7302 124.71 50.7202 124.59 50.7202H123.85Z" fill="#CDCDD0"/>
<path d="M120.15 45.02H125.27C125.65 45.02 126.07 45.01 126.36 44.98V45.67L125.63 45.71V45.73C126.1 45.97 126.46 46.48 126.46 47.17C126.46 48.19 125.59 48.98 124.31 48.98C122.9 48.99 122.04 48.11 122.04 47.08C122.04 46.43 122.35 46 122.69 45.8V45.78H120.16V45.02H120.15ZM123.85 45.79C123.75 45.79 123.62 45.8 123.53 45.83C123.04 45.94 122.64 46.36 122.64 46.94C122.64 47.73 123.34 48.21 124.27 48.21C125.13 48.21 125.84 47.79 125.84 46.96C125.84 46.44 125.5 45.97 124.92 45.83C124.81 45.8 124.71 45.79 124.59 45.79H123.85Z" fill="#CDCDD0"/>
<path d="M124.39 43.3201C125.43 43.3001 125.86 42.6401 125.86 41.8701C125.86 41.3201 125.76 40.9901 125.64 40.7001L126.19 40.5701C126.31 40.8401 126.45 41.3101 126.45 41.9801C126.45 43.2801 125.59 44.0601 124.32 44.0601C123.05 44.0601 122.04 43.3101 122.04 42.0701C122.04 40.6901 123.26 40.3201 124.03 40.3201C124.19 40.3201 124.31 40.3401 124.39 40.3501V43.3201ZM123.83 41.0701C123.34 41.0601 122.58 41.2701 122.58 42.1401C122.58 42.9201 123.3 43.2601 123.83 43.3201V41.0701Z" fill="#CDCDD0"/>
<path d="M126.1 195.79C126.22 196.13 126.42 196.8 126.42 197.6C126.42 198.49 126.19 199.23 125.64 199.8C125.15 200.31 124.36 200.62 123.45 200.62C121.69 200.61 120.41 199.4 120.41 197.43C120.41 196.75 120.56 196.21 120.68 195.96L121.3 196.14C121.16 196.45 121.05 196.85 121.05 197.44C121.05 198.87 121.94 199.81 123.42 199.81C124.92 199.81 125.8 198.91 125.8 197.54C125.8 197.04 125.73 196.7 125.64 196.53H123.88V197.73H123.27V195.79H126.1Z" fill="#CDCDD0"/>
<path d="M123.45 194.66C122.95 194.66 122.52 194.67 122.13 194.7V194.03L122.96 194V193.96C122.39 193.77 122.03 193.3 122.03 192.79C122.03 192.7 122.04 192.64 122.06 192.57H122.79C122.77 192.65 122.76 192.73 122.76 192.83C122.76 193.37 123.17 193.76 123.75 193.86C123.85 193.88 123.98 193.9 124.11 193.9H126.37V194.66H123.45Z" fill="#CDCDD0"/>
<path d="M124.21 188.06C125.77 188.06 126.46 189.14 126.46 190.17C126.46 191.32 125.62 192.2 124.28 192.2C122.86 192.2 122.03 191.27 122.03 190.1C122.03 188.88 122.92 188.06 124.21 188.06ZM124.25 191.42C125.18 191.42 125.88 190.89 125.88 190.13C125.88 189.4 125.19 188.84 124.24 188.84C123.52 188.84 122.61 189.2 122.61 190.11C122.61 191.02 123.45 191.42 124.25 191.42Z" fill="#CDCDD0"/>
<path d="M120.15 183.44H125.27C125.65 183.44 126.07 183.43 126.36 183.4V184.09L125.63 184.13V184.15C126.1 184.39 126.46 184.9 126.46 185.59C126.46 186.61 125.59 187.4 124.31 187.4C122.9 187.41 122.04 186.53 122.04 185.5C122.04 184.85 122.35 184.42 122.69 184.22V184.2H120.16V183.44H120.15ZM123.85 184.21C123.75 184.21 123.62 184.22 123.53 184.25C123.04 184.36 122.64 184.78 122.64 185.36C122.64 186.15 123.34 186.63 124.27 186.63C125.13 186.63 125.84 186.21 125.84 185.38C125.84 184.86 125.5 184.39 124.92 184.25C124.81 184.22 124.71 184.21 124.59 184.21H123.85Z" fill="#CDCDD0"/>
<path d="M120.15 178.51H125.27C125.65 178.51 126.07 178.5 126.36 178.47V179.16L125.63 179.19V179.21C126.1 179.45 126.46 179.96 126.46 180.65C126.46 181.67 125.59 182.46 124.31 182.46C122.9 182.47 122.04 181.59 122.04 180.56C122.04 179.91 122.35 179.48 122.69 179.28V179.26H120.16V178.51H120.15ZM123.85 179.28C123.75 179.28 123.62 179.29 123.53 179.32C123.04 179.43 122.64 179.85 122.64 180.43C122.64 181.22 123.34 181.7 124.27 181.7C125.13 181.7 125.84 181.28 125.84 180.45C125.84 179.93 125.5 179.46 124.92 179.32C124.81 179.29 124.71 179.28 124.59 179.28H123.85Z" fill="#CDCDD0"/>
<path d="M124.39 176.8C125.43 176.78 125.86 176.12 125.86 175.35C125.86 174.8 125.76 174.47 125.64 174.18L126.19 174.05C126.31 174.32 126.45 174.79 126.45 175.46C126.45 176.76 125.59 177.54 124.32 177.54C123.05 177.54 122.04 176.79 122.04 175.55C122.04 174.17 123.26 173.8 124.03 173.8C124.19 173.8 124.31 173.82 124.39 173.83V176.8ZM123.83 174.55C123.34 174.54 122.58 174.75 122.58 175.62C122.58 176.4 123.3 176.74 123.83 176.8V174.55Z" fill="#CDCDD0"/>
<path d="M120.94 170.15C121.2 170.14 121.41 170.33 121.41 170.64C121.41 170.91 121.2 171.1 120.94 171.1C120.67 171.1 120.46 170.9 120.46 170.62C120.46 170.33 120.67 170.15 120.94 170.15ZM126.36 171H122.13V170.23H126.36V171Z" fill="#CDCDD0"/>
<path d="M123.27 168.96C122.83 168.96 122.47 168.97 122.12 169V168.32L122.82 168.28V168.26C122.42 168.05 122.02 167.56 122.02 166.86C122.02 166.27 122.37 165.36 123.82 165.36H126.35V166.13H123.91C123.23 166.13 122.66 166.38 122.66 167.11C122.66 167.62 123.02 168.01 123.45 168.14C123.55 168.18 123.68 168.19 123.81 168.19H126.35V168.96H123.27Z" fill="#CDCDD0"/>
<path d="M120.91 163.21H122.13V162.11H122.72V163.21H125C125.52 163.21 125.82 163.06 125.82 162.63C125.82 162.43 125.79 162.28 125.77 162.18L126.35 162.14C126.41 162.29 126.46 162.52 126.46 162.82C126.46 163.18 126.35 163.47 126.14 163.65C125.91 163.87 125.54 163.95 125.04 163.95H122.73V164.61H122.14V163.95H121.13L120.91 163.21Z" fill="#CDCDD0"/>
<path d="M124.39 160.87C125.43 160.85 125.86 160.19 125.86 159.42C125.86 158.87 125.76 158.54 125.64 158.25L126.19 158.12C126.31 158.39 126.45 158.86 126.45 159.53C126.45 160.83 125.59 161.61 124.32 161.61C123.05 161.61 122.04 160.86 122.04 159.62C122.04 158.24 123.26 157.87 124.03 157.87C124.19 157.87 124.31 157.89 124.39 157.9V160.87ZM123.83 158.62C123.34 158.61 122.58 158.82 122.58 159.69C122.58 160.47 123.3 160.81 123.83 160.87V158.62Z" fill="#CDCDD0"/>
<path d="M315.92 149.13C316.13 148.79 316.3 148.29 316.3 147.77C316.3 146.99 315.89 146.54 315.29 146.54C314.74 146.54 314.42 146.85 314.12 147.65C313.78 148.61 313.28 149.21 312.45 149.21C311.53 149.21 310.85 148.45 310.85 147.3C310.85 146.7 310.99 146.26 311.14 146L311.76 146.21C311.66 146.4 311.48 146.8 311.48 147.33C311.48 148.13 311.96 148.44 312.36 148.44C312.91 148.44 313.18 148.08 313.5 147.27C313.88 146.27 314.37 145.77 315.23 145.77C316.14 145.77 316.93 146.44 316.93 147.83C316.93 148.4 316.76 149.02 316.55 149.33L315.92 149.13Z" fill="#CDCDD0"/>
<path d="M316.85 142.37L316.32 142.43V142.46C316.65 142.7 316.95 143.15 316.95 143.75C316.95 144.61 316.35 145.04 315.74 145.04C314.72 145.04 314.16 144.13 314.17 142.5H314.08C313.73 142.5 313.1 142.6 313.1 143.46C313.1 143.85 313.22 144.26 313.41 144.56L312.9 144.73C312.67 144.38 312.52 143.87 312.52 143.34C312.52 142.05 313.4 141.73 314.25 141.73H315.83C316.2 141.73 316.56 141.71 316.84 141.66V142.37H316.85ZM314.69 142.49C314.67 143.33 314.82 144.28 315.64 144.28C316.14 144.28 316.38 143.95 316.38 143.55C316.38 143 316.03 142.65 315.67 142.53C315.59 142.5 315.5 142.49 315.43 142.49H314.69Z" fill="#CDCDD0"/>
<path d="M313.77 140.5C313.33 140.5 312.97 140.51 312.62 140.54V139.86L313.32 139.82V139.8C312.92 139.59 312.52 139.1 312.52 138.4C312.52 137.81 312.87 136.9 314.32 136.9H316.85V137.67H314.41C313.73 137.67 313.16 137.92 313.16 138.65C313.16 139.16 313.52 139.55 313.95 139.68C314.05 139.72 314.18 139.73 314.31 139.73H316.85V140.5H313.77Z" fill="#CDCDD0"/>
<path d="M313.77 135.65C313.33 135.65 312.97 135.66 312.62 135.69V135.01L313.32 134.97V134.95C312.92 134.74 312.52 134.25 312.52 133.55C312.52 132.96 312.87 132.05 314.32 132.05H316.85V132.82H314.41C313.73 132.82 313.16 133.07 313.16 133.8C313.16 134.31 313.52 134.7 313.95 134.83C314.05 134.87 314.18 134.88 314.31 134.88H316.85V135.65H313.77Z" fill="#CDCDD0"/>
<path d="M314.7 126.97C316.26 126.97 316.95 128.05 316.95 129.08C316.95 130.23 316.11 131.11 314.77 131.11C313.35 131.11 312.52 130.18 312.52 129.01C312.52 127.8 313.41 126.97 314.7 126.97ZM314.74 130.33C315.67 130.33 316.37 129.8 316.37 129.04C316.37 128.31 315.68 127.75 314.73 127.75C314.01 127.75 313.1 128.11 313.1 129.02C313.1 129.93 313.94 130.33 314.74 130.33Z" fill="#CDCDD0"/>
<path d="M310.64 126.01V125.24H316.85V126.01H310.64Z" fill="#CDCDD0"/>
<path d="M311.43 123.09C311.69 123.08 311.9 123.27 311.9 123.58C311.9 123.85 311.69 124.04 311.43 124.04C311.16 124.04 310.95 123.84 310.95 123.56C310.95 123.27 311.16 123.09 311.43 123.09ZM316.85 123.94H312.62V123.17H316.85V123.94Z" fill="#CDCDD0"/>
<path d="M314.56 121.14V121.12C314.41 121.01 314.23 120.87 314.08 120.74L312.62 119.5V118.57L314.36 120.2L316.85 118.34V119.28L314.82 120.74L315.26 121.13H316.85V121.89H310.64V121.13H314.56V121.14Z" fill="#CDCDD0"/>
<path d="M310.64 117.65V116.88H313.28V116.86C313.06 116.74 312.87 116.54 312.74 116.31C312.61 116.08 312.52 115.81 312.52 115.52C312.52 114.95 312.87 114.04 314.33 114.04H316.85V114.81H314.42C313.74 114.81 313.16 115.06 313.16 115.79C313.16 116.29 313.51 116.68 313.93 116.82C314.03 116.86 314.15 116.87 314.3 116.87H316.85V117.64H310.64V117.65Z" fill="#CDCDD0"/>
<path d="M314.88 112.37C315.92 112.35 316.35 111.69 316.35 110.92C316.35 110.37 316.25 110.04 316.13 109.75L316.68 109.62C316.8 109.89 316.94 110.36 316.94 111.03C316.94 112.33 316.08 113.11 314.81 113.11C313.54 113.11 312.53 112.36 312.53 111.12C312.53 109.74 313.75 109.37 314.52 109.37C314.68 109.37 314.8 109.39 314.88 109.4V112.37ZM314.32 110.12C313.83 110.11 313.07 110.32 313.07 111.19C313.07 111.97 313.79 112.31 314.32 112.37V110.12Z" fill="#CDCDD0"/>
<path d="M311.4 107.5H312.62V106.4H313.21V107.5H315.49C316.01 107.5 316.31 107.35 316.31 106.92C316.31 106.72 316.28 106.57 316.26 106.47L316.84 106.43C316.9 106.58 316.95 106.81 316.95 107.11C316.95 107.47 316.84 107.76 316.63 107.94C316.4 108.16 316.03 108.24 315.53 108.24H313.22V108.9H312.63V108.24H311.62L311.4 107.5Z" fill="#CDCDD0"/>
<path d="M316.85 101.34L316.32 101.4V101.43C316.65 101.67 316.95 102.12 316.95 102.72C316.95 103.58 316.35 104.01 315.74 104.01C314.72 104.01 314.16 103.1 314.17 101.47H314.08C313.73 101.47 313.1 101.57 313.1 102.43C313.1 102.82 313.22 103.23 313.41 103.53L312.9 103.7C312.67 103.35 312.52 102.84 312.52 102.31C312.52 101.02 313.4 100.7 314.25 100.7H315.83C316.2 100.7 316.56 100.68 316.84 100.63V101.34H316.85ZM314.69 101.45C314.67 102.29 314.82 103.24 315.64 103.24C316.14 103.24 316.38 102.91 316.38 102.51C316.38 101.96 316.03 101.61 315.67 101.49C315.59 101.46 315.5 101.45 315.43 101.45H314.69Z" fill="#CDCDD0"/>
<path d="M310.64 99.47V98.7H316.85V99.47H310.64Z" fill="#CDCDD0"/>
<path d="M311.4 96.4799H312.62V95.3799H313.21V96.4799H315.49C316.01 96.4799 316.31 96.3299 316.31 95.8999C316.31 95.6999 316.28 95.5499 316.26 95.4499L316.84 95.4099C316.9 95.5599 316.95 95.7899 316.95 96.0899C316.95 96.4499 316.84 96.7399 316.63 96.9199C316.4 97.1399 316.03 97.2199 315.53 97.2199H313.22V97.8799H312.63V97.2199H311.62L311.4 96.4799Z" fill="#CDCDD0"/>
<path d="M312.62 89.01C312.93 89.03 313.27 89.05 313.78 89.05H316.24C317.21 89.05 317.81 89.24 318.17 89.65C318.55 90.06 318.68 90.65 318.68 91.19C318.68 91.7 318.56 92.26 318.33 92.6L317.74 92.41C317.91 92.13 318.07 91.69 318.07 91.17C318.07 90.38 317.66 89.81 316.59 89.81H316.12V89.83C316.51 90.07 316.83 90.52 316.83 91.18C316.83 92.23 315.94 92.98 314.77 92.98C313.34 92.98 312.52 92.04 312.52 91.07C312.52 90.34 312.9 89.93 313.25 89.75V89.73L312.61 89.69V89.01H312.62ZM314.29 89.81C314.16 89.81 314.04 89.82 313.94 89.85C313.49 89.99 313.13 90.37 313.13 90.93C313.13 91.66 313.75 92.19 314.73 92.19C315.56 92.19 316.25 91.77 316.25 90.94C316.25 90.47 315.95 90.04 315.46 89.87C315.33 89.83 315.18 89.81 315.05 89.81H314.29Z" fill="#CDCDD0"/>
<path d="M313.94 87.83C313.44 87.83 313.01 87.84 312.62 87.87V87.2L313.45 87.17V87.13C312.88 86.94 312.52 86.47 312.52 85.96C312.52 85.87 312.53 85.81 312.55 85.74H313.28C313.26 85.82 313.25 85.9 313.25 86C313.25 86.54 313.66 86.93 314.24 87.03C314.34 87.05 314.47 87.07 314.6 87.07H316.86V87.83H313.94Z" fill="#CDCDD0"/>
<path d="M314.7 81.23C316.26 81.23 316.95 82.31 316.95 83.34C316.95 84.49 316.11 85.37 314.77 85.37C313.35 85.37 312.52 84.44 312.52 83.27C312.52 82.05 313.41 81.23 314.7 81.23ZM314.74 84.58C315.67 84.58 316.37 84.05 316.37 83.29C316.37 82.56 315.68 82 314.73 82C314.01 82 313.1 82.36 313.1 83.27C313.1 84.18 313.94 84.58 314.74 84.58Z" fill="#CDCDD0"/>
<path d="M290.76 193.43H133.68C133.47 193.43 133.3 193.26 133.3 193.05V35.9801C133.3 35.7701 133.47 35.6001 133.68 35.6001H290.75C290.96 35.6001 291.13 35.7701 291.13 35.9801V193.05C291.13 193.26 290.96 193.43 290.76 193.43ZM134.06 192.68H290.38V36.3601H134.06V192.68Z" fill="#9B9BA0"/>
<path d="M133.64 54.51H131.18C130.97 54.51 130.8 54.34 130.8 54.13C130.8 53.92 130.97 53.75 131.18 53.75H133.64C133.85 53.75 134.02 53.92 134.02 54.13C134.02 54.34 133.85 54.51 133.64 54.51Z" fill="#9B9BA0"/>
<path d="M133.64 179.07H131.18C130.97 179.07 130.8 178.9 130.8 178.69C130.8 178.48 130.97 178.31 131.18 178.31H133.64C133.85 178.31 134.02 178.48 134.02 178.69C134.02 178.9 133.85 179.07 133.64 179.07Z" fill="#9B9BA0"/>
<path d="M218.43 168.87C219.065 168.87 219.58 168.355 219.58 167.72C219.58 167.085 219.065 166.57 218.43 166.57C217.795 166.57 217.28 167.085 217.28 167.72C217.28 168.355 217.795 168.87 218.43 168.87Z" fill="#50E6FF"/>
<path d="M235.05 174.66C235.685 174.66 236.2 174.145 236.2 173.51C236.2 172.875 235.685 172.36 235.05 172.36C234.415 172.36 233.9 172.875 233.9 173.51C233.9 174.145 234.415 174.66 235.05 174.66Z" fill="#50E6FF"/>
<path d="M214.86 174.04C215.495 174.04 216.01 173.525 216.01 172.89C216.01 172.255 215.495 171.74 214.86 171.74C214.225 171.74 213.71 172.255 213.71 172.89C213.71 173.525 214.225 174.04 214.86 174.04Z" fill="#50E6FF"/>
<path d="M213.79 177.13C214.425 177.13 214.94 176.615 214.94 175.98C214.94 175.345 214.425 174.83 213.79 174.83C213.155 174.83 212.64 175.345 212.64 175.98C212.64 176.615 213.155 177.13 213.79 177.13Z" fill="#50E6FF"/>
<path d="M204.97 171.51C205.605 171.51 206.12 170.995 206.12 170.36C206.12 169.725 205.605 169.21 204.97 169.21C204.335 169.21 203.82 169.725 203.82 170.36C203.82 170.995 204.335 171.51 204.97 171.51Z" fill="#50E6FF"/>
<path d="M198.39 170.33C199.025 170.33 199.54 169.815 199.54 169.18C199.54 168.545 199.025 168.03 198.39 168.03C197.755 168.03 197.24 168.545 197.24 169.18C197.24 169.815 197.755 170.33 198.39 170.33Z" fill="#50E6FF"/>
<path d="M195.08 168.87C195.715 168.87 196.23 168.355 196.23 167.72C196.23 167.085 195.715 166.57 195.08 166.57C194.445 166.57 193.93 167.085 193.93 167.72C193.93 168.355 194.445 168.87 195.08 168.87Z" fill="#50E6FF"/>
<path d="M185.21 179.3C185.845 179.3 186.36 178.785 186.36 178.15C186.36 177.515 185.845 177 185.21 177C184.575 177 184.06 177.515 184.06 178.15C184.06 178.785 184.575 179.3 185.21 179.3Z" fill="#50E6FF"/>
<path d="M183.58 182.64C184.215 182.64 184.73 182.125 184.73 181.49C184.73 180.855 184.215 180.34 183.58 180.34C182.945 180.34 182.43 180.855 182.43 181.49C182.43 182.125 182.945 182.64 183.58 182.64Z" fill="#50E6FF"/>
<path d="M174.9 188.68C175.535 188.68 176.05 188.165 176.05 187.53C176.05 186.895 175.535 186.38 174.9 186.38C174.265 186.38 173.75 186.895 173.75 187.53C173.75 188.165 174.265 188.68 174.9 188.68Z" fill="#50E6FF"/>
<path d="M206.12 180C206.755 180 207.27 179.485 207.27 178.85C207.27 178.215 206.755 177.7 206.12 177.7C205.485 177.7 204.97 178.215 204.97 178.85C204.97 179.485 205.485 180 206.12 180Z" fill="#50E6FF"/>
<path d="M206.12 188.21C206.755 188.21 207.27 187.695 207.27 187.06C207.27 186.425 206.755 185.91 206.12 185.91C205.485 185.91 204.97 186.425 204.97 187.06C204.97 187.695 205.485 188.21 206.12 188.21Z" fill="#50E6FF"/>
<path d="M172.29 171.61C172.925 171.61 173.44 171.095 173.44 170.46C173.44 169.825 172.925 169.31 172.29 169.31C171.655 169.31 171.14 169.825 171.14 170.46C171.14 171.095 171.655 171.61 172.29 171.61Z" fill="#50E6FF"/>
<path d="M163.69 171.3C164.325 171.3 164.84 170.785 164.84 170.15C164.84 169.515 164.325 169 163.69 169C163.055 169 162.54 169.515 162.54 170.15C162.54 170.785 163.055 171.3 163.69 171.3Z" fill="#50E6FF"/>
<path d="M148.63 184.23C149.265 184.23 149.78 183.715 149.78 183.08C149.78 182.445 149.265 181.93 148.63 181.93C147.995 181.93 147.48 182.445 147.48 183.08C147.48 183.715 147.995 184.23 148.63 184.23Z" fill="#50E6FF"/>
<path d="M144.12 182.67C144.755 182.67 145.27 182.155 145.27 181.52C145.27 180.885 144.755 180.37 144.12 180.37C143.485 180.37 142.97 180.885 142.97 181.52C142.97 182.155 143.485 182.67 144.12 182.67Z" fill="#50E6FF"/>
<path d="M138.56 188.56C139.195 188.56 139.71 188.045 139.71 187.41C139.71 186.775 139.195 186.26 138.56 186.26C137.925 186.26 137.41 186.775 137.41 187.41C137.41 188.045 137.925 188.56 138.56 188.56Z" fill="#50E6FF"/>
<path d="M254.05 46.79C254.685 46.79 255.2 46.2751 255.2 45.64C255.2 45.0049 254.685 44.49 254.05 44.49C253.415 44.49 252.9 45.0049 252.9 45.64C252.9 46.2751 253.415 46.79 254.05 46.79Z" fill="#50E6FF"/>
<path d="M242.39 42.7702C243.025 42.7702 243.54 42.2553 243.54 41.6202C243.54 40.9851 243.025 40.4702 242.39 40.4702C241.755 40.4702 241.24 40.9851 241.24 41.6202C241.24 42.2553 241.755 42.7702 242.39 42.7702Z" fill="#50E6FF"/>
<path d="M216.86 45.1301C217.495 45.1301 218.01 44.6152 218.01 43.9801C218.01 43.3449 217.495 42.8301 216.86 42.8301C216.225 42.8301 215.71 43.3449 215.71 43.9801C215.71 44.6152 216.225 45.1301 216.86 45.1301Z" fill="#50E6FF"/>
<path d="M214.67 61.29C215.305 61.29 215.82 60.7751 215.82 60.14C215.82 59.5049 215.305 58.99 214.67 58.99C214.035 58.99 213.52 59.5049 213.52 60.14C213.52 60.7751 214.035 61.29 214.67 61.29Z" fill="#50E6FF"/>
<path d="M201.71 64.4001C202.345 64.4001 202.86 63.8852 202.86 63.2501C202.86 62.615 202.345 62.1001 201.71 62.1001C201.075 62.1001 200.56 62.615 200.56 63.2501C200.56 63.8852 201.075 64.4001 201.71 64.4001Z" fill="#50E6FF"/>
<path d="M191.35 66.4201C191.985 66.4201 192.5 65.9052 192.5 65.2701C192.5 64.635 191.985 64.1201 191.35 64.1201C190.715 64.1201 190.2 64.635 190.2 65.2701C190.2 65.9052 190.715 66.4201 191.35 66.4201Z" fill="#50E6FF"/>
<path d="M221.15 64.4001C221.785 64.4001 222.3 63.8852 222.3 63.2501C222.3 62.615 221.785 62.1001 221.15 62.1001C220.515 62.1001 220 62.615 220 63.2501C220 63.8852 220.515 64.4001 221.15 64.4001Z" fill="#50E6FF"/>
<path d="M280.53 48.33C281.165 48.33 281.68 47.8152 281.68 47.18C281.68 46.5449 281.165 46.03 280.53 46.03C279.895 46.03 279.38 46.5449 279.38 47.18C279.38 47.8152 279.895 48.33 280.53 48.33Z" fill="#50E6FF"/>
<path d="M280.07 58.3701C280.705 58.3701 281.22 57.8552 281.22 57.2201C281.22 56.5849 280.705 56.0701 280.07 56.0701C279.435 56.0701 278.92 56.5849 278.92 57.2201C278.92 57.8552 279.435 58.3701 280.07 58.3701Z" fill="#50E6FF"/>
<path d="M285.63 67.53C286.265 67.53 286.78 67.0151 286.78 66.38C286.78 65.7448 286.265 65.23 285.63 65.23C284.995 65.23 284.48 65.7448 284.48 66.38C284.48 67.0151 284.995 67.53 285.63 67.53Z" fill="#50E6FF"/>
<path d="M262.83 61.55C263.465 61.55 263.98 61.0351 263.98 60.4C263.98 59.7649 263.465 59.25 262.83 59.25C262.195 59.25 261.68 59.7649 261.68 60.4C261.68 61.0351 262.195 61.55 262.83 61.55Z" fill="#50E6FF"/>
<path d="M255.85 66.6101C256.485 66.6101 257 66.0952 257 65.4601C257 64.8249 256.485 64.3101 255.85 64.3101C255.215 64.3101 254.7 64.8249 254.7 65.4601C254.7 66.0952 255.215 66.6101 255.85 66.6101Z" fill="#50E6FF"/>
<path d="M245.14 63.82C245.775 63.82 246.29 63.3051 246.29 62.67C246.29 62.0349 245.775 61.52 245.14 61.52C244.505 61.52 243.99 62.0349 243.99 62.67C243.99 63.3051 244.505 63.82 245.14 63.82Z" fill="#50E6FF"/>
<path d="M194.67 212.58H197.84V213.22H195.43V215.18H197.66V215.81H195.43V218.48H194.67V212.58Z" fill="#CDCDD0"/>
<path d="M198.67 215.56C198.67 215.06 198.66 214.63 198.63 214.24H199.3L199.33 215.07H199.37C199.56 214.5 200.03 214.14 200.54 214.14C200.63 214.14 200.69 214.15 200.76 214.17V214.9C200.68 214.88 200.6 214.87 200.5 214.87C199.96 214.87 199.57 215.28 199.47 215.86C199.45 215.96 199.44 216.09 199.44 216.22V218.48H198.68V215.56H198.67Z" fill="#CDCDD0"/>
<path d="M205.27 216.32C205.27 217.88 204.19 218.57 203.16 218.57C202.01 218.57 201.13 217.73 201.13 216.39C201.13 214.97 202.06 214.14 203.23 214.14C204.45 214.15 205.27 215.03 205.27 216.32ZM201.92 216.37C201.92 217.3 202.45 218 203.21 218C203.94 218 204.5 217.31 204.5 216.36C204.5 215.64 204.14 214.73 203.23 214.73C202.32 214.73 201.92 215.56 201.92 216.37Z" fill="#CDCDD0"/>
<path d="M206.14 217.69C206.37 217.84 206.77 218 207.15 218C207.71 218 207.97 217.72 207.97 217.37C207.97 217 207.75 216.8 207.18 216.59C206.42 216.32 206.06 215.9 206.06 215.39C206.06 214.71 206.61 214.15 207.52 214.15C207.95 214.15 208.32 214.27 208.56 214.41L208.37 214.97C208.2 214.86 207.9 214.72 207.5 214.72C207.04 214.72 206.79 214.98 206.79 215.3C206.79 215.65 207.04 215.81 207.59 216.02C208.32 216.3 208.7 216.67 208.7 217.3C208.7 218.04 208.12 218.57 207.12 218.57C206.66 218.57 206.23 218.46 205.93 218.28L206.14 217.69Z" fill="#CDCDD0"/>
<path d="M210.63 213.03V214.25H211.73V214.84H210.63V217.12C210.63 217.65 210.78 217.94 211.21 217.94C211.41 217.94 211.56 217.91 211.66 217.89L211.7 218.47C211.55 218.53 211.32 218.58 211.02 218.58C210.66 218.58 210.37 218.47 210.19 218.26C209.97 218.03 209.89 217.66 209.89 217.16V214.85H209.23V214.26H209.89V213.25L210.63 213.03Z" fill="#CDCDD0"/>
<path d="M216.37 216.32C216.37 217.88 215.29 218.57 214.26 218.57C213.11 218.57 212.23 217.73 212.23 216.39C212.23 214.97 213.16 214.14 214.33 214.14C215.55 214.15 216.37 215.03 216.37 216.32ZM213.02 216.37C213.02 217.3 213.55 218 214.31 218C215.04 218 215.6 217.31 215.6 216.36C215.6 215.64 215.24 214.73 214.33 214.73C213.42 214.73 213.02 215.56 213.02 216.37Z" fill="#CDCDD0"/>
<path d="M217.34 215.56C217.34 215.06 217.33 214.63 217.3 214.24H217.97L218 215.07H218.04C218.23 214.5 218.7 214.14 219.21 214.14C219.3 214.14 219.36 214.15 219.43 214.17V214.9C219.35 214.88 219.27 214.87 219.17 214.87C218.63 214.87 218.24 215.28 218.14 215.86C218.12 215.96 218.11 216.09 218.11 216.22V218.48H217.35V215.56H217.34Z" fill="#CDCDD0"/>
<path d="M220.23 212.27H221V218.48H220.23V212.27Z" fill="#CDCDD0"/>
<path d="M222.72 216.5C222.74 217.54 223.4 217.97 224.17 217.97C224.72 217.97 225.05 217.87 225.34 217.75L225.47 218.3C225.2 218.42 224.73 218.56 224.06 218.56C222.76 218.56 221.98 217.7 221.98 216.43C221.98 215.16 222.73 214.15 223.97 214.15C225.35 214.15 225.72 215.37 225.72 216.14C225.72 216.3 225.7 216.42 225.69 216.5H222.72ZM224.98 215.95C224.99 215.46 224.78 214.7 223.91 214.7C223.13 214.7 222.79 215.42 222.73 215.95H224.98Z" fill="#CDCDD0"/>
<path d="M227.43 216.18H227.45C227.56 216.03 227.7 215.85 227.83 215.7L229.07 214.24H230L228.37 215.98L230.23 218.47H229.29L227.83 216.44L227.44 216.88V218.47H226.68V212.26H227.44V216.18H227.43Z" fill="#CDCDD0"/>
<path d="M204.4 212.67C204.4 213.5 203.92 214.11 203.28 214.11C202.62 214.11 202.16 213.5 202.16 212.69C202.16 212.68 202.16 212.68 202.16 212.67H201.48C201.48 212.68 201.48 212.7 201.48 212.71C201.48 213.88 202.25 214.62 203.26 214.62C204.15 214.62 205.09 214.03 205.1 212.67H204.4Z" fill="#CDCDD0"/>
<path d="M138.38 179.3C137.08 179.3 136.33 179.28 136.29 179.27C136.01 179.26 135.8 179.03 135.81 178.75C135.82 178.47 136.06 178.26 136.33 178.27C136.61 178.28 164.31 179.16 179.02 169.72C192.39 161.14 198.3 149.93 202.21 142.51C202.66 141.66 203.08 140.85 203.49 140.1C205.11 137.12 209.03 128.98 213.56 119.56C219.33 107.57 225.86 93.9902 229.92 86.3402C237.25 72.5302 247.46 62.8902 258.66 59.2202C273.58 54.3202 282.93 54.4902 283.02 54.4902C283.3 54.5002 283.51 54.7302 283.51 55.0002C283.5 55.2802 283.3 55.5002 283 55.4902C282.91 55.4902 273.72 55.3302 258.97 60.1702C248.01 63.7702 238.01 73.2302 230.8 86.8102C226.75 94.4402 220.22 108.02 214.46 120C209.92 129.44 206 137.59 204.37 140.59C203.96 141.34 203.54 142.14 203.09 142.98C199.13 150.49 193.15 161.84 179.55 170.56C166.97 178.64 145.19 179.3 138.38 179.3Z" fill="#0078D4"/>
</svg>
