<svg width="406" height="233" viewBox="0 0 406 233" fill="none" xmlns="http://www.w3.org/2000/svg">
<path d="M339.21 139.15C340.232 139.15 341.06 138.322 341.06 137.3C341.06 136.278 340.232 135.45 339.21 135.45C338.188 135.45 337.36 136.278 337.36 137.3C337.36 138.322 338.188 139.15 339.21 139.15Z" fill="#F4F4F4"/>
<path d="M345.43 139.15C346.452 139.15 347.28 138.322 347.28 137.3C347.28 136.278 346.452 135.45 345.43 135.45C344.408 135.45 343.58 136.278 343.58 137.3C343.58 138.322 344.408 139.15 345.43 139.15Z" fill="#F4F4F4"/>
<path d="M332.53 139.15C333.552 139.15 334.38 138.322 334.38 137.3C334.38 136.278 333.552 135.45 332.53 135.45C331.508 135.45 330.68 136.278 330.68 137.3C330.68 138.322 331.508 139.15 332.53 139.15Z" fill="#F4F4F4"/>
<path d="M223.07 138.63C224.092 138.63 224.92 137.802 224.92 136.78C224.92 135.758 224.092 134.93 223.07 134.93C222.048 134.93 221.22 135.758 221.22 136.78C221.22 137.802 222.048 138.63 223.07 138.63Z" fill="#2195DC"/>
<path d="M218.45 138.63C219.472 138.63 220.3 137.802 220.3 136.78C220.3 135.758 219.472 134.93 218.45 134.93C217.428 134.93 216.6 135.758 216.6 136.78C216.6 137.802 217.428 138.63 218.45 138.63Z" fill="#1D4A79"/>
<path d="M236.93 138.63C237.952 138.63 238.78 137.802 238.78 136.78C238.78 135.758 237.952 134.93 236.93 134.93C235.908 134.93 235.08 135.758 235.08 136.78C235.08 137.802 235.908 138.63 236.93 138.63Z" fill="#2195DC"/>
<path d="M232.31 138.63C233.332 138.63 234.16 137.802 234.16 136.78C234.16 135.758 233.332 134.93 232.31 134.93C231.288 134.93 230.46 135.758 230.46 136.78C230.46 137.802 231.288 138.63 232.31 138.63Z" fill="#2195DC"/>
<path d="M241.55 138.63C242.572 138.63 243.4 137.802 243.4 136.78C243.4 135.758 242.572 134.93 241.55 134.93C240.528 134.93 239.7 135.758 239.7 136.78C239.7 137.802 240.528 138.63 241.55 138.63Z" fill="#45CAF2"/>
<path d="M227.69 138.63C228.712 138.63 229.54 137.802 229.54 136.78C229.54 135.758 228.712 134.93 227.69 134.93C226.668 134.93 225.84 135.758 225.84 136.78C225.84 137.802 226.668 138.63 227.69 138.63Z" fill="#2195DC"/>
<path d="M136.34 138.97C137.362 138.97 138.19 138.142 138.19 137.12C138.19 136.098 137.362 135.27 136.34 135.27C135.318 135.27 134.49 136.098 134.49 137.12C134.49 138.142 135.318 138.97 136.34 138.97Z" fill="#2195DC"/>
<path d="M126.34 138.97C127.362 138.97 128.19 138.142 128.19 137.12C128.19 136.098 127.362 135.27 126.34 135.27C125.318 135.27 124.49 136.098 124.49 137.12C124.49 138.142 125.318 138.97 126.34 138.97Z" fill="#2195DC"/>
<path d="M131.34 138.97C132.362 138.97 133.19 138.142 133.19 137.12C133.19 136.098 132.362 135.27 131.34 135.27C130.318 135.27 129.49 136.098 129.49 137.12C129.49 138.142 130.318 138.97 131.34 138.97Z" fill="#2195DC"/>
<path d="M121.34 138.97C122.362 138.97 123.19 138.142 123.19 137.12C123.19 136.098 122.362 135.27 121.34 135.27C120.318 135.27 119.49 136.098 119.49 137.12C119.49 138.142 120.318 138.97 121.34 138.97Z" fill="#2195DC"/>
<path d="M116.34 138.97C117.362 138.97 118.19 138.142 118.19 137.12C118.19 136.098 117.362 135.27 116.34 135.27C115.318 135.27 114.49 136.098 114.49 137.12C114.49 138.142 115.318 138.97 116.34 138.97Z" fill="#1D4A79"/>
<path d="M100.56 193C101.582 193 102.41 192.172 102.41 191.15C102.41 190.129 101.582 189.3 100.56 189.3C99.5382 189.3 98.71 190.129 98.71 191.15C98.71 192.172 99.5382 193 100.56 193Z" fill="#1D4A79"/>
<path d="M106.6 193C107.622 193 108.45 192.172 108.45 191.15C108.45 190.129 107.622 189.3 106.6 189.3C105.578 189.3 104.75 190.129 104.75 191.15C104.75 192.172 105.578 193 106.6 193Z" fill="#1D4A79"/>
<path d="M94.6 193C95.6217 193 96.45 192.172 96.45 191.15C96.45 190.129 95.6217 189.3 94.6 189.3C93.5783 189.3 92.75 190.129 92.75 191.15C92.75 192.172 93.5783 193 94.6 193Z" fill="#1D4A79"/>
<path d="M146.02 193C147.042 193 147.87 192.172 147.87 191.15C147.87 190.129 147.042 189.3 146.02 189.3C144.998 189.3 144.17 190.129 144.17 191.15C144.17 192.172 144.998 193 146.02 193Z" fill="#F4F4F4"/>
<path d="M152.96 193C153.982 193 154.81 192.172 154.81 191.15C154.81 190.129 153.982 189.3 152.96 189.3C151.938 189.3 151.11 190.129 151.11 191.15C151.11 192.172 151.938 193 152.96 193Z" fill="#1D4A79"/>
<path d="M202.66 193C203.682 193 204.51 192.172 204.51 191.15C204.51 190.129 203.682 189.3 202.66 189.3C201.638 189.3 200.81 190.129 200.81 191.15C200.81 192.172 201.638 193 202.66 193Z" fill="#45CAF2"/>
<path d="M209.13 193C210.152 193 210.98 192.172 210.98 191.15C210.98 190.129 210.152 189.3 209.13 189.3C208.108 189.3 207.28 190.129 207.28 191.15C207.28 192.172 208.108 193 209.13 193Z" fill="#45CAF2"/>
<path d="M245.59 193C246.612 193 247.44 192.172 247.44 191.15C247.44 190.129 246.612 189.3 245.59 189.3C244.568 189.3 243.74 190.129 243.74 191.15C243.74 192.172 244.568 193 245.59 193Z" fill="#2195DC"/>
<path d="M262.14 193C263.162 193 263.99 192.172 263.99 191.15C263.99 190.129 263.162 189.3 262.14 189.3C261.118 189.3 260.29 190.129 260.29 191.15C260.29 192.172 261.118 193 262.14 193Z" fill="#1D4A79"/>
<path d="M256.63 193C257.652 193 258.48 192.172 258.48 191.15C258.48 190.129 257.652 189.3 256.63 189.3C255.608 189.3 254.78 190.129 254.78 191.15C254.78 192.172 255.608 193 256.63 193Z" fill="#2195DC"/>
<path d="M251.11 193C252.132 193 252.96 192.172 252.96 191.15C252.96 190.129 252.132 189.3 251.11 189.3C250.088 189.3 249.26 190.129 249.26 191.15C249.26 192.172 250.088 193 251.11 193Z" fill="#2195DC"/>
<path d="M240.9 77.6902C241.922 77.6902 242.75 76.862 242.75 75.8402C242.75 74.8185 241.922 73.9902 240.9 73.9902C239.878 73.9902 239.05 74.8185 239.05 75.8402C239.05 76.862 239.878 77.6902 240.9 77.6902Z" fill="#1D4A79"/>
<path d="M220.7 83.8099C221.722 83.8099 222.55 82.9816 222.55 81.9599C222.55 80.9381 221.722 80.1099 220.7 80.1099C219.678 80.1099 218.85 80.9381 218.85 81.9599C218.85 82.9816 219.678 83.8099 220.7 83.8099Z" fill="#2195DC"/>
<path d="M220.66 77.6902C221.682 77.6902 222.51 76.862 222.51 75.8402C222.51 74.8185 221.682 73.9902 220.66 73.9902C219.638 73.9902 218.81 74.8185 218.81 75.8402C218.81 76.862 219.638 77.6902 220.66 77.6902Z" fill="#F4F4F4"/>
<path d="M213.91 77.6902C214.932 77.6902 215.76 76.862 215.76 75.8402C215.76 74.8185 214.932 73.9902 213.91 73.9902C212.888 73.9902 212.06 74.8185 212.06 75.8402C212.06 76.862 212.888 77.6902 213.91 77.6902Z" fill="#F4F4F4"/>
<path d="M247.93 83.8099C248.952 83.8099 249.78 82.9816 249.78 81.9599C249.78 80.9381 248.952 80.1099 247.93 80.1099C246.908 80.1099 246.08 80.9381 246.08 81.9599C246.08 82.9816 246.908 83.8099 247.93 83.8099Z" fill="#1D4A79"/>
<path d="M207.16 77.6902C208.182 77.6902 209.01 76.862 209.01 75.8402C209.01 74.8185 208.182 73.9902 207.16 73.9902C206.138 73.9902 205.31 74.8185 205.31 75.8402C205.31 76.862 206.138 77.6902 207.16 77.6902Z" fill="#F4F4F4"/>
<path d="M227.51 83.8099C228.532 83.8099 229.36 82.9816 229.36 81.9599C229.36 80.9381 228.532 80.1099 227.51 80.1099C226.488 80.1099 225.66 80.9381 225.66 81.9599C225.66 82.9816 226.488 83.8099 227.51 83.8099Z" fill="#45CAF2"/>
<path d="M241.12 83.8099C242.142 83.8099 242.97 82.9816 242.97 81.9599C242.97 80.9381 242.142 80.1099 241.12 80.1099C240.098 80.1099 239.27 80.9381 239.27 81.9599C239.27 82.9816 240.098 83.8099 241.12 83.8099Z" fill="#1D4A79"/>
<path d="M207.09 83.8099C208.112 83.8099 208.94 82.9816 208.94 81.9599C208.94 80.9381 208.112 80.1099 207.09 80.1099C206.068 80.1099 205.24 80.9381 205.24 81.9599C205.24 82.9816 206.068 83.8099 207.09 83.8099Z" fill="#2195DC"/>
<path d="M247.65 77.6902C248.672 77.6902 249.5 76.862 249.5 75.8402C249.5 74.8185 248.672 73.9902 247.65 73.9902C246.628 73.9902 245.8 74.8185 245.8 75.8402C245.8 76.862 246.628 77.6902 247.65 77.6902Z" fill="#1D4A79"/>
<path d="M254.39 77.6902C255.412 77.6902 256.24 76.862 256.24 75.8402C256.24 74.8185 255.412 73.9902 254.39 73.9902C253.368 73.9902 252.54 74.8185 252.54 75.8402C252.54 76.862 253.368 77.6902 254.39 77.6902Z" fill="#1D4A79"/>
<path d="M213.9 83.8099C214.922 83.8099 215.75 82.9816 215.75 81.9599C215.75 80.9381 214.922 80.1099 213.9 80.1099C212.878 80.1099 212.05 80.9381 212.05 81.9599C212.05 82.9816 212.878 83.8099 213.9 83.8099Z" fill="#2195DC"/>
<path d="M227.41 77.6902C228.432 77.6902 229.26 76.862 229.26 75.8402C229.26 74.8185 228.432 73.9902 227.41 73.9902C226.388 73.9902 225.56 74.8185 225.56 75.8402C225.56 76.862 226.388 77.6902 227.41 77.6902Z" fill="#F4F4F4"/>
<path d="M234.32 83.8099C235.342 83.8099 236.17 82.9816 236.17 81.9599C236.17 80.9381 235.342 80.1099 234.32 80.1099C233.298 80.1099 232.47 80.9381 232.47 81.9599C232.47 82.9816 233.298 83.8099 234.32 83.8099Z" fill="#45CAF2"/>
<path d="M234.15 77.6902C235.172 77.6902 236 76.862 236 75.8402C236 74.8185 235.172 73.9902 234.15 73.9902C233.128 73.9902 232.3 74.8185 232.3 75.8402C232.3 76.862 233.128 77.6902 234.15 77.6902Z" fill="#F4F4F4"/>
<path d="M225.59 64.4301H223.97L222.63 62.1901C222.51 61.9801 222.39 61.8101 222.28 61.6601C222.16 61.5101 222.05 61.3901 221.93 61.3001C221.81 61.2101 221.68 61.1401 221.54 61.0901C221.4 61.0501 221.24 61.0301 221.07 61.0301H220.51V64.4301H219.13V56.0601H221.88C222.27 56.0601 222.64 56.1101 222.97 56.2001C223.3 56.2901 223.59 56.4301 223.83 56.6201C224.08 56.8101 224.27 57.0401 224.41 57.3301C224.55 57.6101 224.62 57.9401 224.62 58.3201C224.62 58.6201 224.58 58.8901 224.49 59.1301C224.4 59.3801 224.28 59.6001 224.12 59.7901C223.96 59.9801 223.76 60.1501 223.54 60.2801C223.31 60.4201 223.06 60.5201 222.77 60.5901V60.6101C222.92 60.7001 223.06 60.7901 223.17 60.8901C223.28 60.9901 223.39 61.1001 223.49 61.2101C223.59 61.3201 223.69 61.4401 223.79 61.5801C223.89 61.7201 224 61.8801 224.12 62.0601L225.59 64.4301ZM220.5 57.1901V59.9101H221.66C221.87 59.9101 222.07 59.8801 222.25 59.8101C222.43 59.7401 222.59 59.6501 222.72 59.5201C222.85 59.4001 222.96 59.2401 223.03 59.0601C223.1 58.8801 223.14 58.6801 223.14 58.4601C223.14 58.0601 223.01 57.7501 222.76 57.5201C222.51 57.2901 222.14 57.1801 221.67 57.1801H220.5V57.1901Z" fill="#F4F4F4"/>
<path d="M228.74 64.5701C227.82 64.5701 227.08 64.2901 226.53 63.7301C225.98 63.1701 225.7 62.4301 225.7 61.5101C225.7 60.5101 225.99 59.7201 226.56 59.1601C227.13 58.6001 227.91 58.3101 228.88 58.3101C229.81 58.3101 230.54 58.5801 231.06 59.1301C231.58 59.6801 231.84 60.4401 231.84 61.4101C231.84 62.3601 231.56 63.1301 231 63.7001C230.44 64.2901 229.69 64.5701 228.74 64.5701ZM228.8 59.4001C228.27 59.4001 227.85 59.5901 227.55 59.9501C227.24 60.3201 227.09 60.8301 227.09 61.4801C227.09 62.1101 227.25 62.6001 227.56 62.9601C227.87 63.3201 228.29 63.5001 228.81 63.5001C229.34 63.5001 229.75 63.3201 230.04 62.9701C230.33 62.6201 230.47 62.1101 230.47 61.4601C230.47 60.8001 230.33 60.2901 230.04 59.9401C229.75 59.5801 229.34 59.4001 228.8 59.4001Z" fill="#F4F4F4"/>
<path d="M235.88 64.5701C234.96 64.5701 234.22 64.2901 233.67 63.7301C233.12 63.1701 232.84 62.4301 232.84 61.5101C232.84 60.5101 233.13 59.7201 233.7 59.1601C234.27 58.6001 235.05 58.3101 236.02 58.3101C236.95 58.3101 237.68 58.5801 238.2 59.1301C238.72 59.6801 238.98 60.4401 238.98 61.4101C238.98 62.3601 238.7 63.1301 238.14 63.7001C237.58 64.2901 236.83 64.5701 235.88 64.5701ZM235.94 59.4001C235.41 59.4001 234.99 59.5901 234.69 59.9501C234.38 60.3201 234.23 60.8301 234.23 61.4801C234.23 62.1101 234.39 62.6001 234.7 62.9601C235.01 63.3201 235.43 63.5001 235.95 63.5001C236.48 63.5001 236.89 63.3201 237.18 62.9701C237.47 62.6201 237.61 62.1101 237.61 61.4601C237.61 60.8001 237.47 60.2901 237.18 59.9401C236.88 59.5801 236.47 59.4001 235.94 59.4001Z" fill="#F4F4F4"/>
<path d="M243.52 64.3699C243.25 64.4999 242.91 64.5699 242.48 64.5699C241.32 64.5699 240.74 64.0099 240.74 62.8999V59.5199H239.74V58.4599H240.74V57.0799L242.09 56.6899V58.4599H243.52V59.5199H242.09V62.5099C242.09 62.8599 242.15 63.1199 242.28 63.2699C242.41 63.4199 242.62 63.4999 242.92 63.4999C243.15 63.4999 243.35 63.4299 243.52 63.2999V64.3699Z" fill="#F4F4F4"/>
<path d="M294.4 91.8099H292.78L291.44 89.5699C291.32 89.3599 291.2 89.1899 291.09 89.0399C290.98 88.8899 290.86 88.7699 290.74 88.6799C290.62 88.5899 290.49 88.5199 290.35 88.4699C290.21 88.4299 290.05 88.4099 289.88 88.4099H289.32V91.8099H287.94V83.4399H290.7C291.09 83.4399 291.45 83.4899 291.78 83.5799C292.11 83.6699 292.4 83.8099 292.65 83.9999C292.89 84.1899 293.09 84.4199 293.22 84.7099C293.35 84.9999 293.43 85.3199 293.43 85.6999C293.43 85.9999 293.39 86.2699 293.3 86.5099C293.21 86.7499 293.09 86.9799 292.93 87.1699C292.77 87.3599 292.57 87.5299 292.35 87.6599C292.12 87.7999 291.87 87.8999 291.58 87.9699V87.9999C291.73 88.0899 291.86 88.1799 291.98 88.2799C292.09 88.3799 292.2 88.4899 292.3 88.5999C292.4 88.7099 292.5 88.8299 292.6 88.9699C292.7 89.1099 292.81 89.2699 292.93 89.4499L294.4 91.8099ZM289.32 84.5599V87.2799H290.48C290.69 87.2799 290.89 87.2499 291.07 87.1799C291.25 87.1099 291.41 87.0199 291.54 86.8899C291.67 86.7699 291.77 86.6099 291.85 86.4299C291.92 86.2499 291.96 86.0499 291.96 85.8299C291.96 85.4299 291.83 85.1199 291.58 84.8899C291.33 84.6599 290.96 84.5499 290.49 84.5499H289.32V84.5599Z" fill="#F4F4F4"/>
<path d="M297.55 91.9499C296.63 91.9499 295.89 91.6699 295.34 91.1099C294.79 90.5499 294.51 89.8099 294.51 88.8899C294.51 87.8899 294.8 87.0999 295.37 86.5399C295.94 85.9799 296.72 85.6899 297.69 85.6899C298.62 85.6899 299.35 85.9599 299.87 86.5099C300.39 87.0599 300.65 87.8199 300.65 88.7899C300.65 89.7399 300.37 90.5099 299.81 91.0799C299.26 91.6599 298.5 91.9499 297.55 91.9499ZM297.62 86.7699C297.09 86.7699 296.67 86.9599 296.37 87.3199C296.06 87.6899 295.91 88.1999 295.91 88.8499C295.91 89.4799 296.07 89.9699 296.38 90.3299C296.69 90.6899 297.11 90.8699 297.63 90.8699C298.16 90.8699 298.57 90.6899 298.86 90.3399C299.15 89.9899 299.29 89.4799 299.29 88.8299C299.29 88.1699 299.15 87.6599 298.86 87.3099C298.56 86.9499 298.15 86.7699 297.62 86.7699Z" fill="#F4F4F4"/>
<path d="M304.69 91.9499C303.77 91.9499 303.03 91.6699 302.48 91.1099C301.93 90.5499 301.65 89.8099 301.65 88.8899C301.65 87.8899 301.94 87.0999 302.51 86.5399C303.08 85.9799 303.86 85.6899 304.83 85.6899C305.76 85.6899 306.49 85.9599 307.01 86.5099C307.53 87.0599 307.79 87.8199 307.79 88.7899C307.79 89.7399 307.51 90.5099 306.95 91.0799C306.39 91.6499 305.64 91.9499 304.69 91.9499ZM304.76 86.7699C304.23 86.7699 303.81 86.9599 303.51 87.3199C303.2 87.6899 303.05 88.1999 303.05 88.8499C303.05 89.4799 303.21 89.9699 303.52 90.3299C303.83 90.6899 304.25 90.8699 304.77 90.8699C305.3 90.8699 305.71 90.6899 306 90.3399C306.29 89.9899 306.43 89.4799 306.43 88.8299C306.43 88.1699 306.29 87.6599 306 87.3099C305.7 86.9499 305.29 86.7699 304.76 86.7699Z" fill="#F4F4F4"/>
<path d="M312.33 91.7401C312.07 91.8701 311.72 91.9401 311.29 91.9401C310.13 91.9401 309.55 91.3801 309.55 90.2701V86.8901H308.55V85.8301H309.55V84.4501L310.9 84.0601V85.8301H312.33V86.8901H310.9V89.8801C310.9 90.2301 310.96 90.4901 311.09 90.6401C311.22 90.7901 311.43 90.8701 311.73 90.8701C311.96 90.8701 312.16 90.8001 312.33 90.6701V91.7401Z" fill="#F4F4F4"/>
<path d="M316.41 91.62V90.37C316.92 90.75 317.47 90.95 318.08 90.95C318.9 90.95 319.31 90.71 319.31 90.23C319.31 90.09 319.27 89.98 319.2 89.88C319.13 89.78 319.04 89.7 318.92 89.63C318.8 89.56 318.66 89.49 318.5 89.43C318.34 89.37 318.16 89.31 317.96 89.23C317.71 89.13 317.49 89.03 317.3 88.92C317.1 88.81 316.94 88.69 316.81 88.55C316.68 88.41 316.58 88.26 316.52 88.08C316.45 87.91 316.42 87.7 316.42 87.47C316.42 87.18 316.49 86.93 316.62 86.71C316.76 86.49 316.94 86.3 317.17 86.16C317.4 86.01 317.66 85.9 317.95 85.82C318.24 85.74 318.54 85.71 318.85 85.71C319.4 85.71 319.9 85.79 320.33 85.96V87.14C319.91 86.85 319.43 86.71 318.88 86.71C318.71 86.71 318.55 86.73 318.42 86.76C318.28 86.8 318.16 86.84 318.07 86.91C317.97 86.97 317.9 87.05 317.84 87.13C317.78 87.21 317.76 87.31 317.76 87.42C317.76 87.55 317.79 87.66 317.84 87.75C317.89 87.84 317.97 87.92 318.08 87.99C318.19 88.06 318.31 88.12 318.46 88.18C318.61 88.24 318.78 88.3 318.98 88.36C319.24 88.47 319.47 88.57 319.67 88.68C319.87 88.79 320.05 88.91 320.19 89.05C320.33 89.19 320.45 89.35 320.52 89.53C320.6 89.71 320.64 89.93 320.64 90.18C320.64 90.48 320.57 90.75 320.43 90.97C320.29 91.2 320.1 91.38 319.87 91.53C319.64 91.68 319.37 91.79 319.06 91.86C318.75 91.93 318.43 91.97 318.09 91.97C317.46 91.95 316.89 91.84 316.41 91.62Z" fill="#F4F4F4"/>
<path d="M323.32 90.9299H323.3V94.5599H321.94V85.8299H323.3V86.8799H323.32C323.78 86.0899 324.46 85.6899 325.35 85.6899C326.11 85.6899 326.7 85.9599 327.12 86.4899C327.54 87.0199 327.76 87.7399 327.76 88.6399C327.76 89.6399 327.52 90.4299 327.04 91.0299C326.56 91.6299 325.91 91.9299 325.08 91.9299C324.32 91.9299 323.73 91.5999 323.32 90.9299ZM323.28 88.5699V89.3099C323.28 89.7499 323.42 90.1199 323.7 90.4199C323.98 90.7199 324.33 90.8799 324.76 90.8799C325.26 90.8799 325.65 90.6799 325.94 90.2899C326.23 89.8999 326.37 89.3499 326.37 88.6499C326.37 88.0599 326.24 87.5999 325.97 87.2699C325.7 86.9399 325.34 86.7699 324.89 86.7699C324.41 86.7699 324.02 86.9399 323.72 87.2799C323.43 87.6299 323.28 88.0499 323.28 88.5699Z" fill="#F4F4F4"/>
<path d="M330.5 91.81H329.14V82.96H330.5V91.81Z" fill="#F4F4F4"/>
<path d="M332.94 84.58C332.72 84.58 332.53 84.51 332.37 84.36C332.21 84.22 332.13 84.03 332.13 83.81C332.13 83.59 332.21 83.4 332.37 83.26C332.53 83.11 332.72 83.04 332.94 83.04C333.17 83.04 333.36 83.11 333.52 83.26C333.68 83.41 333.76 83.59 333.76 83.81C333.76 84.02 333.68 84.2 333.52 84.35C333.37 84.5 333.18 84.58 332.94 84.58ZM333.62 91.81H332.26V85.83H333.62V91.81Z" fill="#F4F4F4"/>
<path d="M338.54 91.7401C338.28 91.8701 337.93 91.9401 337.5 91.9401C336.34 91.9401 335.76 91.3801 335.76 90.2701V86.8901H334.76V85.8301H335.76V84.4501L337.11 84.0601V85.8301H338.54V86.8901H337.11V89.8801C337.11 90.2301 337.17 90.4901 337.3 90.6401C337.43 90.7901 337.64 90.8701 337.94 90.8701C338.17 90.8701 338.37 90.8001 338.54 90.6701V91.7401Z" fill="#F4F4F4"/>
<path d="M278.97 170.11C278.49 170.39 277.93 170.52 277.27 170.52C276.38 170.52 275.67 170.24 275.12 169.69C274.57 169.14 274.3 168.42 274.3 167.53C274.3 166.55 274.59 165.76 275.18 165.16C275.77 164.56 276.55 164.26 277.53 164.26C278.07 164.26 278.56 164.35 278.97 164.55V165.81C278.55 165.5 278.11 165.34 277.64 165.34C277.07 165.34 276.6 165.53 276.23 165.92C275.86 166.31 275.68 166.81 275.68 167.44C275.68 168.06 275.85 168.55 276.2 168.9C276.55 169.26 277.01 169.44 277.59 169.44C278.08 169.44 278.54 169.27 278.97 168.92V170.11Z" fill="#F4F4F4"/>
<path d="M285.63 170.38H284.27V167.11C284.27 165.93 283.88 165.34 283.09 165.34C282.69 165.34 282.36 165.51 282.09 165.85C281.82 166.19 281.68 166.63 281.68 167.16V170.38H280.32V161.53H281.68V165.39H281.7C282.15 164.64 282.8 164.26 283.64 164.26C284.97 164.26 285.63 165.07 285.63 166.69V170.38Z" fill="#F4F4F4"/>
<path d="M287.96 163.15C287.74 163.15 287.55 163.08 287.39 162.93C287.23 162.79 287.15 162.6 287.15 162.38C287.15 162.16 287.23 161.97 287.39 161.83C287.55 161.68 287.74 161.61 287.96 161.61C288.19 161.61 288.38 161.68 288.54 161.83C288.7 161.98 288.78 162.16 288.78 162.38C288.78 162.59 288.7 162.77 288.54 162.92C288.38 163.08 288.19 163.15 287.96 163.15ZM288.63 170.38H287.27V164.4H288.63V170.38Z" fill="#F4F4F4"/>
<path d="M291.76 170.38H290.4V161.53H291.76V170.38Z" fill="#F4F4F4"/>
<path d="M298.95 170.38H297.6V169.36H297.58C297.14 170.13 296.47 170.52 295.57 170.52C294.83 170.52 294.25 170.25 293.8 169.72C293.35 169.19 293.14 168.46 293.14 167.53C293.14 166.54 293.38 165.75 293.87 165.15C294.36 164.55 295.01 164.26 295.82 164.26C296.63 164.26 297.21 164.58 297.58 165.23H297.6V161.53H298.95V170.38ZM297.62 167.65V166.87C297.62 166.45 297.48 166.09 297.21 165.79C296.93 165.49 296.58 165.35 296.15 165.35C295.64 165.35 295.25 165.54 294.96 165.92C294.67 166.3 294.52 166.82 294.52 167.49C294.52 168.1 294.66 168.58 294.94 168.93C295.22 169.28 295.59 169.46 296.06 169.46C296.52 169.46 296.9 169.29 297.19 168.95C297.47 168.6 297.62 168.17 297.62 167.65Z" fill="#F4F4F4"/>
<path d="M303.63 170.2V168.95C304.14 169.33 304.69 169.53 305.3 169.53C306.12 169.53 306.53 169.29 306.53 168.81C306.53 168.67 306.49 168.56 306.42 168.46C306.35 168.36 306.26 168.28 306.14 168.21C306.02 168.14 305.88 168.07 305.72 168.01C305.56 167.95 305.38 167.89 305.18 167.81C304.93 167.71 304.71 167.61 304.52 167.5C304.32 167.39 304.16 167.27 304.03 167.13C303.9 166.99 303.8 166.84 303.74 166.66C303.67 166.49 303.64 166.28 303.64 166.05C303.64 165.76 303.71 165.51 303.84 165.29C303.98 165.07 304.16 164.88 304.39 164.74C304.62 164.59 304.88 164.48 305.17 164.4C305.46 164.32 305.76 164.29 306.07 164.29C306.62 164.29 307.12 164.37 307.55 164.54V165.72C307.13 165.43 306.65 165.29 306.1 165.29C305.93 165.29 305.77 165.31 305.64 165.34C305.5 165.38 305.38 165.42 305.29 165.49C305.19 165.55 305.12 165.63 305.06 165.71C305 165.79 304.98 165.89 304.98 166C304.98 166.13 305.01 166.24 305.06 166.33C305.11 166.42 305.19 166.5 305.3 166.57C305.41 166.64 305.53 166.7 305.68 166.76C305.83 166.82 306 166.88 306.2 166.94C306.46 167.05 306.69 167.15 306.89 167.26C307.09 167.37 307.27 167.49 307.41 167.63C307.55 167.77 307.67 167.93 307.74 168.11C307.82 168.29 307.86 168.51 307.86 168.76C307.86 169.06 307.79 169.33 307.65 169.55C307.51 169.78 307.32 169.96 307.09 170.11C306.86 170.26 306.59 170.37 306.28 170.44C305.97 170.51 305.65 170.55 305.31 170.55C304.68 170.52 304.11 170.41 303.63 170.2Z" fill="#F4F4F4"/>
<path d="M310.54 169.5H310.52V173.13H309.16V164.4H310.52V165.45H310.54C311 164.66 311.68 164.26 312.57 164.26C313.33 164.26 313.92 164.53 314.34 165.06C314.76 165.59 314.98 166.31 314.98 167.21C314.98 168.21 314.74 169 314.26 169.6C313.78 170.2 313.13 170.5 312.3 170.5C311.54 170.51 310.95 170.17 310.54 169.5ZM310.5 167.14V167.88C310.5 168.32 310.64 168.69 310.92 168.99C311.2 169.29 311.55 169.45 311.98 169.45C312.48 169.45 312.87 169.25 313.16 168.86C313.45 168.47 313.59 167.92 313.59 167.22C313.59 166.63 313.46 166.17 313.19 165.84C312.92 165.51 312.56 165.34 312.11 165.34C311.63 165.34 311.24 165.51 310.94 165.85C310.65 166.2 310.5 166.63 310.5 167.14Z" fill="#F4F4F4"/>
<path d="M317.72 170.38H316.36V161.53H317.72V170.38Z" fill="#F4F4F4"/>
<path d="M320.17 163.15C319.95 163.15 319.76 163.08 319.6 162.93C319.44 162.79 319.36 162.6 319.36 162.38C319.36 162.16 319.44 161.97 319.6 161.83C319.76 161.68 319.95 161.61 320.17 161.61C320.4 161.61 320.59 161.68 320.75 161.83C320.91 161.98 320.99 162.16 320.99 162.38C320.99 162.59 320.91 162.77 320.75 162.92C320.59 163.08 320.4 163.15 320.17 163.15ZM320.84 170.38H319.48V164.4H320.84V170.38Z" fill="#F4F4F4"/>
<path d="M325.76 170.32C325.5 170.45 325.15 170.52 324.72 170.52C323.56 170.52 322.98 169.96 322.98 168.85V165.47H321.98V164.41H322.98V163.03L324.33 162.64V164.41H325.76V165.47H324.33V168.46C324.33 168.81 324.39 169.07 324.52 169.22C324.65 169.37 324.86 169.45 325.16 169.45C325.39 169.45 325.59 169.38 325.76 169.25V170.32Z" fill="#F4F4F4"/>
<path d="M266.29 170.86L261.04 171.02L261.02 170.37C261.01 170.11 261.04 169.86 261.11 169.62C261.18 169.39 261.27 169.17 261.39 168.96C261.51 168.75 261.65 168.55 261.81 168.37C261.97 168.18 262.15 168 262.33 167.83C262.52 167.65 262.71 167.49 262.9 167.32C263.09 167.15 263.28 166.99 263.47 166.83C263.65 166.67 263.8 166.52 263.95 166.37C264.09 166.22 264.22 166.07 264.32 165.91C264.42 165.75 264.5 165.58 264.55 165.41C264.6 165.24 264.63 165.05 264.62 164.84C264.61 164.62 264.57 164.43 264.5 164.26C264.43 164.1 264.33 163.96 264.2 163.85C264.08 163.74 263.93 163.66 263.76 163.61C263.59 163.56 263.41 163.54 263.21 163.54C262.87 163.55 262.52 163.64 262.17 163.81C261.82 163.98 261.49 164.23 261.17 164.56L261.13 163.26C261.3 163.13 261.47 163.01 261.64 162.91C261.81 162.81 261.99 162.72 262.18 162.65C262.36 162.58 262.56 162.53 262.77 162.49C262.98 162.45 263.19 162.43 263.43 162.42C263.81 162.41 264.15 162.45 264.46 162.54C264.77 162.63 265.04 162.77 265.26 162.95C265.48 163.14 265.66 163.37 265.79 163.65C265.92 163.93 265.99 164.26 266 164.64C266.01 164.98 265.98 165.28 265.9 165.56C265.82 165.83 265.71 166.09 265.57 166.33C265.43 166.57 265.25 166.8 265.03 167.01C264.82 167.23 264.58 167.45 264.32 167.68C264.1 167.87 263.88 168.06 263.66 168.24C263.44 168.42 263.25 168.6 263.07 168.77C262.9 168.94 262.76 169.11 262.65 169.28C262.54 169.45 262.5 169.62 262.5 169.78V169.81L266.27 169.69L266.29 170.86Z" fill="#F4F4F4"/>
<path d="M269.49 165.47L268.93 165.49L268.89 164.1C268.88 163.64 268.7 163.41 268.38 163.42C268.21 163.43 268.07 163.49 267.96 163.63C267.85 163.76 267.8 163.92 267.81 164.12L267.85 165.52L267.29 165.54L267.21 163.08L267.77 163.06L267.78 163.47H267.79C267.96 163.15 268.23 162.99 268.57 162.98C268.84 162.97 269.04 163.05 269.19 163.22C269.33 163.39 269.41 163.64 269.42 163.97L269.49 165.47Z" fill="#F4F4F4"/>
<path d="M272.41 165.37L271.85 165.39L271.84 164.97H271.83C271.66 165.29 271.39 165.46 271.01 165.47C270.71 165.48 270.46 165.38 270.27 165.16C270.08 164.95 269.98 164.65 269.97 164.27C269.96 163.86 270.05 163.53 270.24 163.28C270.43 163.03 270.7 162.9 271.03 162.89C271.36 162.88 271.61 163.01 271.77 163.27H271.78L271.73 161.74L272.29 161.72L272.41 165.37ZM271.83 164.27L271.82 163.95C271.81 163.78 271.75 163.63 271.63 163.51C271.51 163.39 271.37 163.33 271.19 163.34C270.98 163.35 270.82 163.43 270.71 163.59C270.6 163.75 270.54 163.97 270.55 164.24C270.56 164.49 270.62 164.69 270.74 164.83C270.86 164.97 271.02 165.04 271.21 165.03C271.4 165.02 271.55 164.95 271.67 164.8C271.78 164.66 271.83 164.48 271.83 164.27Z" fill="#F4F4F4"/>
<path d="M46.7099 169.45C46.2299 169.73 45.6699 169.86 45.0099 169.86C44.1199 169.86 43.4099 169.58 42.8599 169.03C42.3099 168.48 42.0399 167.76 42.0399 166.87C42.0399 165.89 42.3299 165.1 42.9199 164.5C43.5099 163.9 44.2899 163.6 45.2699 163.6C45.8099 163.6 46.2999 163.69 46.7099 163.89V165.15C46.2899 164.84 45.8499 164.68 45.3799 164.68C44.8099 164.68 44.3399 164.87 43.9699 165.26C43.5999 165.65 43.4199 166.15 43.4199 166.78C43.4199 167.4 43.5899 167.89 43.9399 168.24C44.2899 168.6 44.7499 168.78 45.3299 168.78C45.8199 168.78 46.2799 168.61 46.7099 168.26V169.45Z" fill="#F4F4F4"/>
<path d="M53.3599 169.73H51.9999V166.46C51.9999 165.28 51.6099 164.69 50.8199 164.69C50.4199 164.69 50.0899 164.86 49.8199 165.2C49.5499 165.54 49.4099 165.98 49.4099 166.51V169.73H48.0499V160.88H49.4099V164.74H49.4299C49.8799 163.99 50.5299 163.61 51.3699 163.61C52.6999 163.61 53.3599 164.42 53.3599 166.04V169.73Z" fill="#F4F4F4"/>
<path d="M55.6899 162.5C55.4699 162.5 55.2799 162.43 55.1199 162.28C54.9599 162.14 54.8799 161.95 54.8799 161.73C54.8799 161.51 54.9599 161.32 55.1199 161.18C55.2799 161.03 55.4699 160.96 55.6899 160.96C55.9199 160.96 56.1099 161.03 56.2699 161.18C56.4299 161.33 56.5099 161.51 56.5099 161.73C56.5099 161.94 56.4299 162.12 56.2699 162.27C56.1099 162.42 55.9199 162.5 55.6899 162.5ZM56.3599 169.73H54.9999V163.75H56.3599V169.73Z" fill="#F4F4F4"/>
<path d="M59.4899 169.73H58.1299V160.88H59.4899V169.73Z" fill="#F4F4F4"/>
<path d="M66.6799 169.73H65.3299V168.71H65.3099C64.8699 169.48 64.1999 169.87 63.2999 169.87C62.5599 169.87 61.9799 169.6 61.5299 169.07C61.0799 168.54 60.8699 167.81 60.8699 166.88C60.8699 165.89 61.1099 165.1 61.5999 164.5C62.0899 163.9 62.7399 163.61 63.5499 163.61C64.3599 163.61 64.9399 163.93 65.3099 164.58H65.3299V160.88H66.6799V169.73ZM65.3499 167V166.22C65.3499 165.8 65.2099 165.44 64.9399 165.14C64.6599 164.84 64.3099 164.7 63.8799 164.7C63.3699 164.7 62.9799 164.89 62.6899 165.27C62.3999 165.65 62.2499 166.17 62.2499 166.84C62.2499 167.45 62.3899 167.93 62.6699 168.28C62.9499 168.63 63.3199 168.81 63.7899 168.81C64.2499 168.81 64.6299 168.64 64.9199 168.3C65.1999 167.94 65.3499 167.51 65.3499 167Z" fill="#F4F4F4"/>
<path d="M71.3699 169.54V168.29C71.8799 168.67 72.4299 168.87 73.0399 168.87C73.8599 168.87 74.2699 168.63 74.2699 168.15C74.2699 168.01 74.2299 167.9 74.1599 167.8C74.0899 167.7 73.9999 167.62 73.8799 167.55C73.7599 167.48 73.6199 167.41 73.4599 167.35C73.2999 167.29 73.1199 167.23 72.9199 167.15C72.6699 167.05 72.4499 166.95 72.2599 166.84C72.0599 166.73 71.8999 166.61 71.7699 166.47C71.6399 166.33 71.5399 166.18 71.4799 166C71.4099 165.83 71.3799 165.62 71.3799 165.39C71.3799 165.1 71.4499 164.85 71.5799 164.63C71.7199 164.41 71.8999 164.22 72.1299 164.08C72.3599 163.93 72.6199 163.82 72.9099 163.74C73.1999 163.66 73.4999 163.63 73.8099 163.63C74.3599 163.63 74.8599 163.71 75.2899 163.88V165.06C74.8699 164.77 74.3899 164.63 73.8399 164.63C73.6699 164.63 73.5099 164.65 73.3799 164.68C73.2399 164.72 73.1199 164.76 73.0299 164.83C72.9299 164.89 72.8599 164.97 72.7999 165.05C72.7399 165.13 72.7199 165.23 72.7199 165.34C72.7199 165.47 72.7499 165.58 72.7999 165.67C72.8499 165.76 72.9299 165.84 73.0399 165.91C73.1499 165.98 73.2699 166.04 73.4199 166.1C73.5699 166.16 73.7399 166.22 73.9399 166.28C74.1999 166.39 74.4299 166.49 74.6299 166.6C74.8299 166.71 75.0099 166.83 75.1499 166.97C75.2899 167.11 75.4099 167.27 75.4799 167.45C75.5599 167.63 75.5999 167.85 75.5999 168.1C75.5999 168.4 75.5299 168.67 75.3899 168.89C75.2499 169.12 75.0599 169.3 74.8299 169.45C74.5999 169.6 74.3299 169.71 74.0199 169.78C73.7099 169.85 73.3899 169.89 73.0499 169.89C72.4099 169.87 71.8499 169.76 71.3699 169.54Z" fill="#F4F4F4"/>
<path d="M78.2699 168.85H78.2499V172.48H76.8899V163.75H78.2499V164.8H78.2699C78.7299 164.01 79.4099 163.61 80.2999 163.61C81.0599 163.61 81.6499 163.88 82.0699 164.41C82.4899 164.94 82.7099 165.66 82.7099 166.56C82.7099 167.56 82.4699 168.35 81.9899 168.95C81.5099 169.55 80.8599 169.85 80.0299 169.85C79.2699 169.85 78.6799 169.52 78.2699 168.85ZM78.2399 166.49V167.23C78.2399 167.67 78.3799 168.04 78.6599 168.34C78.9399 168.64 79.2899 168.8 79.7199 168.8C80.2199 168.8 80.6099 168.6 80.8999 168.21C81.1899 167.82 81.3299 167.27 81.3299 166.57C81.3299 165.98 81.1999 165.52 80.9299 165.19C80.6599 164.86 80.2999 164.69 79.8499 164.69C79.3699 164.69 78.9799 164.86 78.6799 165.2C78.3799 165.55 78.2399 165.97 78.2399 166.49Z" fill="#F4F4F4"/>
<path d="M85.4499 169.73H84.0999V160.88H85.4599V169.73H85.4499Z" fill="#F4F4F4"/>
<path d="M87.8999 162.5C87.6799 162.5 87.4899 162.43 87.3299 162.28C87.1699 162.14 87.0899 161.95 87.0899 161.73C87.0899 161.51 87.1699 161.32 87.3299 161.18C87.4899 161.03 87.6799 160.96 87.8999 160.96C88.1299 160.96 88.3199 161.03 88.4799 161.18C88.6399 161.33 88.7199 161.51 88.7199 161.73C88.7199 161.94 88.6399 162.12 88.4799 162.27C88.3199 162.42 88.1299 162.5 87.8999 162.5ZM88.5699 169.73H87.2099V163.75H88.5699V169.73Z" fill="#F4F4F4"/>
<path d="M93.4899 169.66C93.2299 169.79 92.8799 169.86 92.4499 169.86C91.2899 169.86 90.7099 169.3 90.7099 168.19V164.81H89.7099V163.75H90.7099V162.37L92.0599 161.98V163.75H93.4899V164.81H92.0599V167.8C92.0599 168.15 92.1199 168.41 92.2499 168.56C92.3799 168.71 92.5899 168.79 92.8899 168.79C93.1199 168.79 93.3199 168.72 93.4899 168.59V169.66Z" fill="#F4F4F4"/>
<path d="M34.8799 161.72L35.1499 170.27L33.7999 170.31L33.5899 163.41C33.3499 163.59 33.0899 163.75 32.8099 163.88C32.5299 164.01 32.2199 164.13 31.8599 164.23L31.8199 163.07C32.0399 162.99 32.2599 162.9 32.4699 162.82C32.6799 162.74 32.8799 162.63 33.0799 162.53C33.2799 162.42 33.4799 162.3 33.6899 162.17C33.8999 162.04 34.1099 161.89 34.3199 161.72H34.8799Z" fill="#F4F4F4"/>
<path d="M36.46 164.81L36.44 164.29C36.65 164.44 36.89 164.51 37.14 164.51C37.48 164.5 37.64 164.39 37.64 164.2C37.64 164.14 37.62 164.1 37.59 164.06C37.56 164.02 37.52 163.99 37.47 163.96C37.42 163.93 37.36 163.91 37.29 163.88C37.22 163.86 37.15 163.83 37.07 163.8C36.97 163.76 36.87 163.72 36.79 163.68C36.71 163.64 36.64 163.59 36.58 163.53C36.52 163.47 36.48 163.41 36.45 163.34C36.42 163.27 36.4 163.19 36.4 163.09C36.4 162.97 36.42 162.87 36.48 162.77C36.53 162.68 36.6 162.6 36.7 162.53C36.79 162.46 36.9 162.41 37.02 162.38C37.14 162.34 37.26 162.33 37.39 162.32C37.62 162.31 37.82 162.34 38.01 162.4L38.03 162.89C37.85 162.78 37.65 162.72 37.43 162.73C37.36 162.73 37.3 162.74 37.24 162.76C37.18 162.78 37.13 162.8 37.1 162.82C37.07 162.84 37.03 162.88 37.01 162.92C36.99 162.96 36.98 163 36.98 163.04C36.98 163.09 37 163.14 37.02 163.17C37.04 163.2 37.08 163.24 37.12 163.26C37.16 163.29 37.22 163.31 37.28 163.33C37.34 163.35 37.41 163.37 37.49 163.4C37.6 163.44 37.69 163.48 37.78 163.52C37.87 163.56 37.94 163.61 38 163.67C38.06 163.73 38.11 163.79 38.14 163.86C38.18 163.93 38.19 164.02 38.2 164.12C38.2 164.24 38.18 164.35 38.12 164.45C38.06 164.55 37.99 164.62 37.9 164.69C37.8 164.75 37.69 164.8 37.57 164.84C37.45 164.87 37.31 164.89 37.17 164.9C36.89 164.93 36.66 164.89 36.46 164.81Z" fill="#F4F4F4"/>
<path d="M40.04 164.74C39.93 164.8 39.79 164.83 39.61 164.84C39.13 164.85 38.89 164.63 38.87 164.17L38.83 162.78L38.42 162.79L38.41 162.35L38.82 162.34L38.8 161.77L39.35 161.59L39.37 162.32L39.96 162.3L39.97 162.74L39.38 162.76L39.42 163.99C39.43 164.14 39.46 164.24 39.51 164.3C39.56 164.36 39.65 164.39 39.78 164.39C39.87 164.39 39.96 164.36 40.02 164.3L40.04 164.74Z" fill="#F4F4F4"/>
<path d="M230.95 122.63C230.74 122.63 230.57 122.46 230.57 122.25V88.0402C230.57 87.8302 230.74 87.6602 230.95 87.6602C231.16 87.6602 231.33 87.8302 231.33 88.0402V122.26C231.33 122.46 231.16 122.63 230.95 122.63Z" fill="#9B9BA0"/>
<path d="M126.77 123.1C126.56 123.1 126.39 122.93 126.39 122.72V106.51C126.39 101.96 130.09 98.2602 134.64 98.2602H220.92C226.24 98.2602 230.57 93.9302 230.57 88.6102V88.0402C230.57 87.8302 230.74 87.6602 230.95 87.6602C231.16 87.6602 231.33 87.8302 231.33 88.0402V88.6102C231.33 94.3402 226.66 99.0102 220.93 99.0102H134.65C130.51 99.0102 127.15 102.38 127.15 106.51V122.72C127.14 122.93 126.98 123.1 126.77 123.1Z" fill="#9B9BA0"/>
<path d="M338.77 122.71C338.56 122.71 338.39 122.54 338.39 122.33V106.5C338.39 102.36 335.02 98.9999 330.89 98.9999H240.98C235.24 98.9999 230.58 94.3299 230.58 88.5999V88.0299C230.58 87.8199 230.75 87.6499 230.96 87.6499C231.17 87.6499 231.34 87.8199 231.34 88.0299V88.5999C231.34 93.9199 235.67 98.2499 240.99 98.2499H330.9C335.45 98.2499 339.15 101.95 339.15 106.5V122.33C339.14 122.54 338.97 122.71 338.77 122.71Z" fill="#9B9BA0"/>
<path d="M151.39 175.28L148.96 179.48L146.54 175.28H151.39Z" fill="#9B9BA0"/>
<path d="M103.84 175.28L101.41 179.48L98.98 175.28H103.84Z" fill="#9B9BA0"/>
<path d="M148.87 175.86C148.66 175.86 148.49 175.69 148.49 175.48V170.14C148.49 166 145.12 162.64 140.99 162.64H136.16C130.42 162.64 125.76 157.97 125.76 152.24V151.73C125.76 151.52 125.93 151.35 126.14 151.35C126.35 151.35 126.52 151.52 126.52 151.73V152.24C126.52 157.56 130.85 161.89 136.17 161.89H141C145.55 161.89 149.25 165.59 149.25 170.14V175.48C149.24 175.7 149.07 175.86 148.87 175.86Z" fill="#9B9BA0"/>
<path d="M101.35 175.86C101.14 175.86 100.97 175.69 100.97 175.48V170.14C100.97 165.59 104.67 161.89 109.22 161.89H116.09C121.41 161.89 125.74 157.56 125.74 152.24V151.58C125.75 151.09 125.74 146.84 125.74 146.79C125.74 146.58 125.91 146.41 126.11 146.41C126.32 146.41 126.48 146.58 126.49 146.78C126.49 146.96 126.5 151.08 126.49 151.58V152.23C126.49 157.97 121.82 162.63 116.09 162.63H109.22C105.08 162.63 101.72 166 101.72 170.13V175.47C101.72 175.7 101.56 175.86 101.35 175.86Z" fill="#9B9BA0"/>
<path d="M253.78 175.86C253.57 175.86 253.4 175.69 253.4 175.48V170.14C253.4 166 250.03 162.64 245.9 162.64H241.07C235.33 162.64 230.67 157.97 230.67 152.24V151.73C230.67 151.52 230.84 151.35 231.05 151.35C231.26 151.35 231.43 151.52 231.43 151.73V152.24C231.43 157.56 235.76 161.89 241.08 161.89H245.91C250.46 161.89 254.16 165.59 254.16 170.14V175.48C254.15 175.7 253.98 175.86 253.78 175.86Z" fill="#9B9BA0"/>
<path d="M206.26 175.86C206.05 175.86 205.88 175.69 205.88 175.48V170.14C205.88 165.59 209.58 161.89 214.13 161.89H221C226.32 161.89 230.65 157.56 230.65 152.24V146.26C230.65 146.05 230.82 145.88 231.03 145.88C231.24 145.88 231.41 146.05 231.41 146.26V152.24C231.41 157.98 226.74 162.64 221.01 162.64H214.14C210 162.64 206.64 166.01 206.64 170.14V175.48C206.64 175.7 206.47 175.86 206.26 175.86Z" fill="#9B9BA0"/>
<path d="M256.3 175.28L253.87 179.48L251.45 175.28H256.3Z" fill="#9B9BA0"/>
<path d="M208.75 175.28L206.32 179.48L203.89 175.28H208.75Z" fill="#9B9BA0"/>
<path d="M252.91 146.17H208.66V127.38H252.91V146.17ZM209.41 145.42H252.16V128.13H209.41V145.42Z" fill="#0078D4"/>
<path d="M271.49 200.54H235.21V181.75H271.49V200.54ZM235.96 199.79H270.74V182.5H235.96V199.79Z" fill="#185A97"/>
<path d="M224.04 200.54H187.76V181.75H224.04V200.54ZM188.51 199.79H223.29V182.5H188.51V199.79Z" fill="#185A97"/>
<path d="M168 200.54H131.72V181.75H168V200.54ZM132.46 199.79H167.24V182.5H132.46V199.79Z" fill="#185A97"/>
<path d="M119.37 200.54H83.09V181.75H119.37V200.54ZM83.84 199.79H118.62V182.5H83.84V199.79Z" fill="#185A97"/>
<path d="M269.24 87.9898H192.32V68.8198H269.24V87.9898ZM193.07 87.2398H268.49V69.5698H193.07V87.2398Z" fill="#2195DC"/>
<path d="M361.21 146.7H316.96V127.91H361.21V146.7ZM317.71 145.95H360.46V128.66H317.71V145.95Z" fill="#0078D4"/>
<path d="M148.6 146.59H104.35V127.8H148.6V146.59ZM105.1 145.84H147.85V128.55H105.1V145.84Z" fill="#0078D4"/>
<path d="M233.37 121.44L230.94 125.64L228.52 121.44H233.37Z" fill="#9B9BA0"/>
<path d="M341.23 121.44L338.8 125.64L336.37 121.44H341.23Z" fill="#9B9BA0"/>
<path d="M129.25 121.44L126.82 125.64L124.39 121.44H129.25Z" fill="#9B9BA0"/>
</svg>
